# Blender 4.2.1 LTS
# www.blender.org
mtllib balon.mtl
o Ball3_MESH
v 1.630960 -2.096380 -1.815820
v 1.949551 -2.390750 -0.892040
v 1.690030 -2.568700 -0.913070
v 2.170071 -2.173630 -0.952730
v 2.330000 -1.938570 -1.089211
v 2.413701 -1.708590 -1.288110
v 2.800971 -1.584380 -0.255980
v 2.496761 -2.031490 0.003620
v 2.077311 -2.444490 0.119060
v 1.583670 -2.782960 0.079050
v 1.064170 -3.013770 -0.112490
v 1.416910 -2.690040 -1.013770
v 1.156940 -2.742900 -1.184280
v 0.569670 -3.114320 -0.436820
v -0.073370 -3.174260 0.353390
v 0.607260 -3.035860 0.799800
v 1.322290 -2.718190 1.063440
v 2.001720 -2.252320 1.118510
v 1.730191 -1.833060 2.008461
v 0.931470 -2.380720 1.943730
v 0.090910 -2.754170 1.633800
v -0.709220 -2.916870 1.109010
v -1.390590 -2.852880 0.420750
v -0.652980 -3.119830 -0.232080
v 0.148550 -3.074770 -0.862200
v 0.935550 -2.722110 -1.407910
v -1.886510 -2.568460 -0.363630
v -1.074830 -2.877890 -0.899320
v -0.157940 -2.898990 -1.346980
v 0.774410 -2.629700 -1.662780
v 1.289300 -1.227749 2.701820
v 0.449480 -1.803589 2.633741
v -0.434340 -2.196259 2.307871
v -1.275650 -2.367330 1.756081
v -1.992090 -2.300050 1.032400
v -2.513521 -2.001000 0.207650
v 3.214931 0.063461 -0.551630
v 3.156411 0.889311 0.045100
v 3.158691 0.266421 0.789470
v 2.992131 0.469211 -1.235311
v 2.796881 -0.467179 -1.591081
v 2.894491 1.366301 -0.758611
v 2.327851 -1.351220 -1.791111
v 2.958751 -0.761979 -1.094360
v 3.216871 -0.466389 0.081570
v 2.901111 -0.441379 1.401630
v 2.513521 2.136251 -0.207660
v 2.788911 1.634721 0.637410
v 2.791311 0.979781 1.420090
v 2.520481 0.235561 2.063760
v 2.002920 -0.525099 2.505410
v 2.408881 -1.164809 1.821670
v 2.412951 -1.506200 -1.529971
v 2.960171 -1.146940 -0.634320
v 2.997761 -1.068480 0.602310
v 2.579051 -1.683870 0.959610
v 1.574770 -0.352410 -2.825561
v 2.069281 -0.251859 -2.501231
v 1.945331 -1.238020 -2.269601
v 2.166721 -1.258810 -2.045971
v 2.490391 -0.291400 -2.075861
v 2.570281 0.711151 -1.902541
v 1.990670 0.765581 -2.488011
v 1.310040 0.627181 -2.934421
v 0.595010 0.309511 -3.198061
v 1.055270 -0.583210 -3.017111
v -0.084420 -0.156359 -3.253131
v 0.561640 -0.921680 -3.057121
v -1.893120 -0.760790 -2.523881
v -1.400900 -0.037360 -2.943911
v -0.661740 -0.724800 -3.094241
v -0.722210 0.630891 -3.130701
v 0.076510 1.178551 -3.065971
v 0.917070 1.552001 -2.756041
v 1.717201 1.714691 -2.231251
v 2.398571 1.650701 -1.542991
v 1.992080 2.435301 -1.032401
v 1.275640 2.502581 -1.756091
v 0.434340 2.331521 -2.307881
v -0.449480 1.938841 -2.633751
v -1.289310 1.363001 -2.701821
v -2.002920 0.660371 -2.505421
v -2.520481 -0.100299 -2.063771
v -2.791321 -0.844520 -1.420101
v -2.150710 -1.468590 -1.911711
v -2.788921 -1.499460 -0.637430
v -2.148431 -2.091470 -1.167350
v 0.689310 -2.474720 -1.923921
v 0.688570 -2.272330 -2.165781
v -0.319810 -2.604200 -1.843700
v -0.321220 -2.219230 -2.303741
v -1.297630 -2.472140 -1.583000
v -1.299570 -1.942280 -2.216201
v -1.080460 -1.340190 -2.736931
v 0.142180 -1.334680 -2.941681
v -0.162030 -1.781790 -2.682081
v 0.772260 -2.042350 -2.364681
v 0.932200 -1.807290 -2.501161
v 1.152720 -1.590170 -2.561851
v 1.412240 -1.412220 -2.540821
v 1.685350 -1.290880 -2.440121
v -1.630960 2.231631 1.815810
v -1.949560 2.526011 0.892030
v -2.170080 2.308882 0.952720
v -2.077311 2.579751 -0.119070
v -2.496761 2.166751 -0.003620
v -2.800981 1.719641 0.255970
v -2.330011 2.073821 1.089200
v -2.001730 2.387581 -1.118511
v -2.579051 1.819131 -0.959621
v -2.997771 1.203741 -0.602310
v -3.216881 0.601651 -0.081580
v -2.960171 1.282201 0.634310
v -2.413701 1.843851 1.288100
v -1.730200 1.968321 -2.008471
v -2.408890 1.300071 -1.821681
v -2.901111 0.576641 -1.401641
v -3.158691 -0.131159 -0.789480
v -3.156421 -0.754039 -0.045110
v -3.214941 0.071801 0.551620
v -2.958761 0.897231 1.094350
v -2.412961 1.641461 1.529970
v -2.327861 1.486481 1.791100
v -2.796891 0.602441 1.591070
v -2.992141 -0.333959 1.235300
v -2.894501 -1.231040 0.758600
v -0.931480 2.515971 -1.943731
v -0.090910 2.889431 -1.633801
v 1.074820 3.013151 0.899310
v 1.886500 2.703721 0.363620
v 1.390590 2.988132 -0.420761
v 0.652970 3.255081 0.232080
v 0.709210 3.052122 -1.109021
v 0.073360 3.309522 -0.353401
v -0.607270 3.171122 -0.799801
v -1.322290 2.853441 -1.063441
v 0.157930 3.034252 1.346960
v -0.148560 3.210032 0.862190
v -0.569670 3.249571 0.436820
v -1.064180 3.149021 0.112490
v -1.583680 2.918221 -0.079060
v -0.774420 2.764962 1.662770
v -0.935550 2.857371 1.407910
v -1.156940 2.878161 1.184280
v -1.416920 2.825302 1.013770
v -1.690040 2.703951 0.913060
v 0.722200 -0.495629 3.130701
v 1.400890 0.172621 2.943900
v 0.661740 0.860061 3.094231
v 1.080450 1.475451 2.736920
v 1.893120 0.896051 2.523860
v 1.299560 2.077542 2.216180
v 2.150701 1.603851 1.911700
v 2.148421 2.226731 1.167330
v 1.297620 2.607402 1.582980
v 0.319810 2.739452 1.843680
v 0.321220 2.354491 2.303730
v 0.162020 1.917052 2.682070
v -0.142190 1.469941 2.941671
v -0.689320 2.609972 1.923910
v -0.688580 2.407592 2.165770
v -0.772270 2.177611 2.364670
v -0.932200 1.942551 2.501150
v -1.152720 1.725421 2.561850
v -0.561640 1.056941 3.057111
v -1.055280 0.718471 3.017101
v -1.412240 1.547481 2.540810
v -1.574780 0.487661 2.825561
v -1.685360 1.426142 2.440110
v -1.945340 1.373271 2.269600
v -2.166730 1.394071 2.045970
v -2.069281 0.387111 2.501220
v -2.490401 0.426661 2.075850
v -2.570291 -0.575889 1.902540
v 0.084410 0.291621 3.253120
v -0.595020 -0.174249 3.198061
v -1.310050 -0.491929 2.934411
v -1.990680 -0.630329 2.488010
v -2.398581 -1.515450 1.542980
v -1.717210 -1.579440 2.231251
v -0.917080 -1.416749 2.756031
v -0.076520 -1.043289 3.065960
vn 0.5000 -0.6634 -0.5567
vn 0.6009 -0.7561 -0.2593
vn 0.5177 -0.8132 -0.2660
vn 0.6715 -0.6865 -0.2787
vn 0.7228 -0.6112 -0.3225
vn 0.7496 -0.5375 -0.3862
vn 0.8628 -0.5010 -0.0680
vn 0.7679 -0.6404 0.0129
vn 0.6371 -0.7692 0.0489
vn 0.4832 -0.8748 0.0365
vn 0.3212 -0.9467 -0.0233
vn 0.4302 -0.8520 -0.2983
vn 0.3469 -0.8690 -0.3529
vn 0.1670 -0.9781 -0.1244
vn -0.0282 -0.9929 0.1152
vn 0.1818 -0.9502 0.2530
vn 0.4024 -0.8522 0.3343
vn 0.6121 -0.7085 0.3513
vn 0.5288 -0.5803 0.6194
vn 0.2835 -0.7484 0.5996
vn 0.0254 -0.8631 0.5044
vn -0.2202 -0.9131 0.3433
vn -0.4294 -0.8934 0.1319
vn -0.2070 -0.9761 -0.0654
vn 0.0357 -0.9657 -0.2570
vn 0.2759 -0.8623 -0.4246
vn -0.5817 -0.8061 -0.1089
vn -0.3372 -0.9015 -0.2713
vn -0.0599 -0.9109 -0.4082
vn 0.2243 -0.8327 -0.5063
vn 0.3953 -0.3971 0.8283
vn 0.1378 -0.5737 0.8074
vn -0.1332 -0.6940 0.7075
vn -0.3911 -0.7465 0.5384
vn -0.6107 -0.7259 0.3165
vn -0.7706 -0.6342 0.0637
vn 0.9864 0.0061 -0.1640
vn 0.9666 0.2556 0.0166
vn 0.9673 0.0643 0.2452
vn 0.9177 0.1313 -0.3750
vn 0.8615 -0.1527 -0.4843
vn 0.8862 0.4020 -0.2302
vn 0.7221 -0.4230 -0.5474
vn 0.9120 -0.2446 -0.3294
vn 0.9870 -0.1574 0.0314
vn 0.8883 -0.1530 0.4331
vn 0.7706 0.6342 -0.0637
vn 0.8550 0.4804 0.1954
vn 0.8557 0.2796 0.4354
vn 0.7727 0.0515 0.6327
vn 0.6140 -0.1817 0.7681
vn 0.7371 -0.3751 0.5621
vn 0.7494 -0.4727 -0.4637
vn 0.9124 -0.3646 -0.1860
vn 0.9194 -0.3432 0.1920
vn 0.7902 -0.5331 0.3023
vn 0.4804 -0.1169 -0.8692
vn 0.6346 -0.0855 -0.7681
vn 0.5995 -0.3867 -0.7007
vn 0.6705 -0.3934 -0.6291
vn 0.7659 -0.0979 -0.6355
vn 0.7875 0.2060 -0.5809
vn 0.6087 0.2227 -0.7615
vn 0.3987 0.1800 -0.8993
vn 0.1780 0.0820 -0.9806
vn 0.3184 -0.1889 -0.9289
vn -0.0316 -0.0617 -0.9976
vn 0.1645 -0.2944 -0.9414
vn -0.5837 -0.2511 -0.7722
vn -0.4326 -0.0289 -0.9011
vn -0.2098 -0.2371 -0.9486
vn -0.2242 0.1762 -0.9585
vn 0.0210 0.3444 -0.9386
vn 0.2791 0.4590 -0.8434
vn 0.5248 0.5090 -0.6823
vn 0.7340 0.4893 -0.4710
vn 0.6107 0.7259 -0.3165
vn 0.3911 0.7465 -0.5384
vn 0.1332 0.6940 -0.7075
vn -0.1378 0.5737 -0.8074
vn -0.3953 0.3971 -0.8283
vn -0.6140 0.1817 -0.7681
vn -0.7727 -0.0515 -0.6327
vn -0.8557 -0.2796 -0.4354
vn -0.6628 -0.4684 -0.5842
vn -0.8550 -0.4804 -0.1954
vn -0.6621 -0.6596 -0.3557
vn 0.1970 -0.7830 -0.5899
vn 0.1968 -0.7182 -0.6675
vn -0.1103 -0.8190 -0.5631
vn -0.1108 -0.6990 -0.7065
vn -0.4060 -0.7763 -0.4823
vn -0.4066 -0.6128 -0.6776
vn -0.3390 -0.4270 -0.8383
vn 0.0337 -0.4232 -0.9054
vn -0.0611 -0.5626 -0.8245
vn 0.2236 -0.6445 -0.7312
vn 0.2748 -0.5692 -0.7749
vn 0.3455 -0.4996 -0.7944
vn 0.4287 -0.4425 -0.7876
vn 0.5162 -0.4037 -0.7554
vn -0.5000 0.6634 0.5567
vn -0.6009 0.7561 0.2593
vn -0.6715 0.6865 0.2787
vn -0.6371 0.7692 -0.0489
vn -0.7679 0.6404 -0.0129
vn -0.8628 0.5010 0.0680
vn -0.7228 0.6112 0.3225
vn -0.6121 0.7085 -0.3513
vn -0.7902 0.5331 -0.3023
vn -0.9194 0.3432 -0.1920
vn -0.9870 0.1574 -0.0314
vn -0.9124 0.3646 0.1860
vn -0.7496 0.5375 0.3862
vn -0.5287 0.5803 -0.6194
vn -0.7371 0.3751 -0.5621
vn -0.8883 0.1530 -0.4331
vn -0.9673 -0.0643 -0.2452
vn -0.9666 -0.2556 -0.0166
vn -0.9864 -0.0061 0.1640
vn -0.9120 0.2446 0.3294
vn -0.7494 0.4727 0.4637
vn -0.7221 0.4230 0.5474
vn -0.8615 0.1527 0.4843
vn -0.9177 -0.1313 0.3750
vn -0.8862 -0.4020 0.2302
vn -0.2835 0.7484 -0.5995
vn -0.0254 0.8631 -0.5044
vn 0.3372 0.9015 0.2713
vn 0.5817 0.8061 0.1089
vn 0.4294 0.8934 -0.1319
vn 0.2070 0.9761 0.0654
vn 0.2202 0.9131 -0.3433
vn 0.0282 0.9929 -0.1152
vn -0.1818 0.9502 -0.2530
vn -0.4024 0.8522 -0.3343
vn 0.0599 0.9109 0.4082
vn -0.0357 0.9657 0.2570
vn -0.1670 0.9781 0.1244
vn -0.3212 0.9467 0.0233
vn -0.4832 0.8748 -0.0365
vn -0.2243 0.8327 0.5063
vn -0.2759 0.8623 0.4246
vn -0.3469 0.8690 0.3529
vn -0.4302 0.8520 0.2983
vn -0.5177 0.8131 0.2660
vn 0.2242 -0.1762 0.9585
vn 0.4326 0.0290 0.9011
vn 0.2098 0.2371 0.9486
vn 0.3390 0.4270 0.8383
vn 0.5837 0.2511 0.7722
vn 0.4066 0.6128 0.6776
vn 0.6628 0.4684 0.5842
vn 0.6621 0.6596 0.3557
vn 0.4060 0.7763 0.4823
vn 0.1103 0.8190 0.5631
vn 0.1108 0.6990 0.7065
vn 0.0611 0.5626 0.8245
vn -0.0337 0.4232 0.9054
vn -0.1970 0.7830 0.5900
vn -0.1968 0.7182 0.6675
vn -0.2236 0.6445 0.7312
vn -0.2748 0.5692 0.7749
vn -0.3455 0.4996 0.7944
vn -0.1645 0.2944 0.9414
vn -0.3184 0.1889 0.9289
vn -0.4287 0.4425 0.7876
vn -0.4804 0.1169 0.8692
vn -0.5162 0.4037 0.7554
vn -0.5995 0.3867 0.7007
vn -0.6705 0.3934 0.6291
vn -0.6346 0.0855 0.7681
vn -0.7659 0.0979 0.6355
vn -0.7875 -0.2059 0.5809
vn 0.0316 0.0617 0.9976
vn -0.1780 -0.0820 0.9806
vn -0.3987 -0.1800 0.8992
vn -0.6087 -0.2227 0.7615
vn -0.7340 -0.4893 0.4710
vn -0.5248 -0.5090 0.6823
vn -0.2791 -0.4590 0.8434
vn -0.0210 -0.3444 0.9386
vt 0.249900 0.494100
vt 0.249900 0.447800
vt 0.201800 0.447800
vt 0.298100 0.494100
vt 0.298100 0.447800
vt 0.345900 0.494100
vt 0.345900 0.447800
vt 0.393800 0.494100
vt 0.393800 0.447800
vt 0.345900 0.383800
vt 0.298100 0.383800
vt 0.249900 0.383800
vt 0.201800 0.383800
vt 0.153700 0.383800
vt 0.153700 0.447800
vt 0.201800 0.494100
vt 0.153700 0.494100
vt 0.105500 0.447800
vt 0.105500 0.383800
vt 0.105500 0.331100
vt 0.153700 0.331100
vt 0.201800 0.331100
vt 0.249900 0.331100
vt 0.249900 0.290000
vt 0.201800 0.290000
vt 0.153700 0.290000
vt 0.105500 0.290000
vt 0.057700 0.290000
vt 0.057700 0.331100
vt 0.057700 0.383800
vt 0.057700 0.447800
vt 0.105500 0.494100
vt 0.009600 0.290000
vt 0.009600 0.331100
vt 0.009600 0.383800
vt 0.009600 0.447800
vt 0.057700 0.494100
vt 0.249900 0.254900
vt 0.201800 0.254900
vt 0.153700 0.254900
vt 0.105500 0.254900
vt 0.057700 0.254900
vt 0.009600 0.254900
vt 0.441900 0.331100
vt 0.441900 0.290000
vt 0.393800 0.290000
vt 0.488800 0.331100
vt 0.488800 0.383800
vt 0.488800 0.290000
vt 0.488800 0.447800
vt 0.441900 0.383800
vt 0.393800 0.331100
vt 0.345900 0.290000
vt 0.488800 0.254900
vt 0.441900 0.254900
vt 0.393800 0.254900
vt 0.345900 0.254900
vt 0.298100 0.254900
vt 0.298100 0.290000
vt 0.488800 0.494100
vt 0.441900 0.447800
vt 0.393800 0.383800
vt 0.345900 0.331100
vt 0.298100 0.331100
vt 0.441900 0.494100
vt 0.152100 0.127900
vt 0.104400 0.127900
vt 0.104400 0.065900
vt 0.056400 0.065900
vt 0.056400 0.127900
vt 0.008500 0.065900
vt 0.008500 0.127900
vt 0.056400 0.017100
vt 0.104400 0.017100
vt 0.056400 0.179700
vt 0.008500 0.179700
vt 0.104400 0.179700
vt 0.152100 0.179700
vt 0.200700 0.179700
vt 0.200700 0.127900
vt 0.248500 0.179700
vt 0.248500 0.127900
vt 0.344500 0.220200
vt 0.296600 0.220200
vt 0.296600 0.179700
vt 0.248500 0.220200
vt 0.200700 0.220200
vt 0.152100 0.220200
vt 0.104400 0.220200
vt 0.056400 0.220200
vt 0.008500 0.220200
vt 0.056400 0.254900
vt 0.008500 0.254900
vt 0.104400 0.254900
vt 0.152100 0.254900
vt 0.200700 0.254900
vt 0.248500 0.254900
vt 0.296600 0.254900
vt 0.344500 0.254900
vt 0.392600 0.254900
vt 0.392600 0.220200
vt 0.440700 0.254900
vt 0.440700 0.220200
vt 0.489000 0.254900
vt 0.489000 0.220200
vt 0.440700 0.017100
vt 0.440700 0.065900
vt 0.392600 0.065900
vt 0.440700 0.127900
vt 0.392600 0.127900
vt 0.440700 0.179700
vt 0.392600 0.179700
vt 0.344500 0.179700
vt 0.296600 0.127900
vt 0.344500 0.127900
vt 0.344500 0.065900
vt 0.392600 0.017100
vt 0.344500 0.017100
vt 0.296600 0.065900
vt 0.248500 0.065900
vt 0.200700 0.065900
vt 0.152100 0.065900
vt 0.152100 0.017100
vt 0.248500 0.017100
vt 0.198000 0.017100
vt 0.296600 0.017100
vt 0.296600 0.492700
vt 0.248500 0.447800
vt 0.296600 0.447800
vt 0.248500 0.383800
vt 0.296600 0.383800
vt 0.344500 0.383800
vt 0.344500 0.447800
vt 0.344500 0.492700
vt 0.248500 0.331100
vt 0.296600 0.331100
vt 0.344500 0.331100
vt 0.392600 0.331100
vt 0.392600 0.383800
vt 0.392600 0.447800
vt 0.392600 0.492700
vt 0.248500 0.290000
vt 0.296600 0.290000
vt 0.344500 0.290000
vt 0.392600 0.290000
vt 0.440700 0.290000
vt 0.440700 0.331100
vt 0.440700 0.383800
vt 0.440700 0.447800
vt 0.440700 0.492700
vt 0.489000 0.494600
vt 0.489000 0.447800
vt 0.489000 0.383800
vt 0.489000 0.331100
vt 0.489000 0.290000
vt 0.200700 0.290000
vt 0.152100 0.290000
vt 0.008500 0.331100
vt 0.008500 0.290000
vt 0.056400 0.290000
vt 0.056400 0.331100
vt 0.104400 0.290000
vt 0.104400 0.331100
vt 0.152100 0.331100
vt 0.200700 0.331100
vt 0.008500 0.383800
vt 0.056400 0.383800
vt 0.104400 0.383800
vt 0.152100 0.383800
vt 0.200700 0.383800
vt 0.008500 0.447800
vt 0.056400 0.447800
vt 0.104400 0.447800
vt 0.152100 0.447800
vt 0.200700 0.447800
vt 0.104400 0.492700
vt 0.248500 0.492700
vt 0.152100 0.492700
vt 0.202000 0.492700
vt 0.056400 0.492700
vt 0.249900 0.220200
vt 0.298100 0.220200
vt 0.298100 0.179700
vt 0.345900 0.179700
vt 0.345900 0.220200
vt 0.393800 0.179700
vt 0.393800 0.220200
vt 0.441900 0.220200
vt 0.441900 0.179700
vt 0.441900 0.127900
vt 0.393800 0.127900
vt 0.345900 0.127900
vt 0.298100 0.127900
vt 0.488800 0.220200
vt 0.488800 0.179700
vt 0.488800 0.127900
vt 0.488800 0.065900
vt 0.441900 0.065900
vt 0.393800 0.065900
vt 0.441900 0.016100
vt 0.488800 0.016100
vt 0.393800 0.016100
vt 0.345900 0.065900
vt 0.345900 0.016100
vt 0.298100 0.065900
vt 0.298100 0.016100
vt 0.249900 0.065900
vt 0.249900 0.127900
vt 0.201800 0.127900
vt 0.201800 0.065900
vt 0.153700 0.127900
vt 0.153700 0.065900
vt 0.249900 0.016100
vt 0.202100 0.016100
vt 0.153700 0.016100
vt 0.105500 0.065900
vt 0.105500 0.016100
vt 0.057700 0.065900
vt 0.105500 0.127900
vt 0.057700 0.127900
vt 0.009600 0.127900
vt 0.009600 0.065900
vt 0.057700 0.016100
vt 0.009600 0.179700
vt 0.057700 0.179700
vt 0.009600 0.220200
vt 0.249900 0.179700
vt 0.201800 0.179700
vt 0.153700 0.179700
vt 0.105500 0.179700
vt 0.057700 0.220200
vt 0.105500 0.220200
vt 0.153700 0.220200
vt 0.201800 0.220200
vt 0.489000 0.179700
vt 0.489000 0.127900
vt 0.489000 0.065900
vt 0.489000 0.019000
s 1
usemtl Ball_MAT
f 1/1/1 2/2/2 3/3/3
f 1/4/1 4/5/4 2/2/2
f 1/6/1 5/7/5 4/5/4
f 1/8/1 6/9/6 5/7/5
f 7/10/7 5/7/5 6/9/6
f 5/7/5 7/10/7 8/11/8
f 8/11/8 4/5/4 5/7/5
f 4/5/4 8/11/8 9/12/9
f 9/12/9 2/2/2 4/5/4
f 2/2/2 9/12/9 10/13/10
f 10/13/10 3/3/3 2/2/2
f 3/3/3 10/13/10 11/14/11
f 11/14/11 12/15/12 3/3/3
f 1/16/1 3/3/3 12/15/12
f 1/17/1 12/15/12 13/18/13
f 14/19/14 13/18/13 12/15/12
f 12/15/12 11/14/11 14/19/14
f 15/20/15 14/19/14 11/14/11
f 11/14/11 16/21/16 15/20/15
f 16/21/16 11/14/11 10/13/10
f 10/13/10 17/22/17 16/21/16
f 17/22/17 10/13/10 9/12/9
f 9/12/9 18/23/18 17/22/17
f 18/23/18 9/12/9 8/11/8
f 18/23/18 19/24/19 20/25/20
f 20/25/20 17/22/17 18/23/18
f 17/22/17 20/25/20 21/26/21
f 21/26/21 16/21/16 17/22/17
f 16/21/16 21/26/21 22/27/22
f 22/27/22 15/20/15 16/21/16
f 15/20/15 22/27/22 23/28/23
f 23/28/23 24/29/24 15/20/15
f 14/19/14 15/20/15 24/29/24
f 24/29/24 25/30/25 14/19/14
f 13/18/13 14/19/14 25/30/25
f 25/30/25 26/31/26 13/18/13
f 1/32/1 13/18/13 26/31/26
f 24/29/24 23/28/23 27/33/27
f 27/33/27 28/34/28 24/29/24
f 25/30/25 24/29/24 28/34/28
f 28/34/28 29/35/29 25/30/25
f 26/31/26 25/30/25 29/35/29
f 29/35/29 30/36/30 26/31/26
f 1/37/1 26/31/26 30/36/30
f 19/24/19 31/38/31 32/39/32
f 32/39/32 20/25/20 19/24/19
f 20/25/20 32/39/32 33/40/33
f 33/40/33 21/26/21 20/25/20
f 21/26/21 33/40/33 34/41/34
f 34/41/34 22/27/22 21/26/21
f 22/27/22 34/41/34 35/42/35
f 35/42/35 23/28/23 22/27/22
f 23/28/23 35/42/35 36/43/36
f 36/43/36 27/33/27 23/28/23
f 37/44/37 38/45/38 39/46/39
f 38/45/38 37/44/37 40/47/40
f 41/48/41 40/47/40 37/44/37
f 40/47/40 42/49/42 38/45/38
f 43/50/43 41/48/41 44/51/44
f 37/44/37 44/51/44 41/48/41
f 44/51/44 37/44/37 45/52/45
f 39/46/39 45/52/45 37/44/37
f 45/52/45 39/46/39 46/53/46
f 42/49/42 47/54/47 48/55/48
f 48/55/48 38/45/38 42/49/42
f 38/45/38 48/55/48 49/56/49
f 49/56/49 39/46/39 38/45/38
f 39/46/39 49/56/49 50/57/50
f 50/57/50 46/53/46 39/46/39
f 46/53/46 50/57/50 51/58/51
f 51/58/51 52/59/52 46/53/46
f 52/59/52 51/58/51 31/38/31
f 31/38/31 19/24/19 52/59/52
f 1/60/1 43/50/43 53/61/53
f 44/51/44 53/61/53 43/50/43
f 53/61/53 44/51/44 54/62/54
f 45/52/45 54/62/54 44/51/44
f 54/62/54 45/52/45 55/63/55
f 46/53/46 55/63/55 45/52/45
f 55/63/55 46/53/46 52/59/52
f 52/59/52 56/64/56 55/63/55
f 56/64/56 52/59/52 19/24/19
f 19/24/19 18/23/18 56/64/56
f 8/11/8 56/64/56 18/23/18
f 56/64/56 8/11/8 7/10/7
f 7/10/7 55/63/55 56/64/56
f 55/63/55 7/10/7 54/62/54
f 6/9/6 54/62/54 7/10/7
f 54/62/54 6/9/6 53/61/53
f 1/65/1 53/61/53 6/9/6
f 57/66/57 58/67/58 59/68/59
f 60/69/60 59/68/59 58/67/58
f 58/67/58 61/70/61 60/69/60
f 43/71/43 60/69/60 61/70/61
f 61/70/61 41/72/41 43/71/43
f 1/73/1 60/69/60 43/71/43
f 1/74/1 59/68/59 60/69/60
f 62/75/62 40/76/40 41/72/41
f 41/72/41 61/70/61 62/75/62
f 63/77/63 62/75/62 61/70/61
f 61/70/61 58/67/58 63/77/63
f 64/78/64 63/77/63 58/67/58
f 58/67/58 57/66/57 64/78/64
f 65/79/65 64/78/64 57/66/57
f 57/66/57 66/80/66 65/79/65
f 67/81/67 65/79/65 66/80/66
f 66/80/66 68/82/68 67/81/67
f 69/83/69 70/84/70 71/85/71
f 67/81/67 71/85/71 70/84/70
f 70/84/70 72/86/72 67/81/67
f 65/79/65 67/81/67 72/86/72
f 72/86/72 73/87/73 65/79/65
f 64/78/64 65/79/65 73/87/73
f 73/87/73 74/88/74 64/78/64
f 63/77/63 64/78/64 74/88/74
f 74/88/74 75/89/75 63/77/63
f 62/75/62 63/77/63 75/89/75
f 75/89/75 76/90/76 62/75/62
f 40/76/40 62/75/62 76/90/76
f 76/90/76 42/91/42 40/76/40
f 77/92/77 47/93/47 42/91/42
f 42/91/42 76/90/76 77/92/77
f 78/94/78 77/92/77 76/90/76
f 76/90/76 75/89/75 78/94/78
f 79/95/79 78/94/78 75/89/75
f 75/89/75 74/88/74 79/95/79
f 80/96/80 79/95/79 74/88/74
f 74/88/74 73/87/73 80/96/80
f 81/97/81 80/96/80 73/87/73
f 73/87/73 72/86/72 81/97/81
f 82/98/82 81/97/81 72/86/72
f 72/86/72 70/84/70 82/98/82
f 83/99/83 82/98/82 70/84/70
f 70/84/70 69/83/69 83/99/83
f 84/100/84 83/99/83 69/83/69
f 69/83/69 85/101/85 84/100/84
f 86/102/86 84/100/84 85/101/85
f 85/101/85 87/103/87 86/102/86
f 36/104/36 86/102/86 87/103/87
f 87/103/87 27/105/27 36/104/36
f 1/106/1 88/107/88 89/108/89
f 89/108/89 88/107/88 90/109/90
f 90/109/90 91/110/91 89/108/89
f 91/110/91 90/109/90 92/111/92
f 92/111/92 93/112/93 91/110/91
f 93/112/93 92/111/92 87/103/87
f 87/103/87 85/101/85 93/112/93
f 94/113/94 93/112/93 85/101/85
f 85/101/85 69/83/69 94/113/94
f 71/85/71 94/113/94 69/83/69
f 71/85/71 67/81/67 68/82/68
f 68/82/68 95/114/95 71/85/71
f 94/113/94 71/85/71 95/114/95
f 95/114/95 96/115/96 94/113/94
f 93/112/93 94/113/94 96/115/96
f 96/115/96 91/110/91 93/112/93
f 91/110/91 96/115/96 97/116/97
f 97/116/97 89/108/89 91/110/91
f 1/117/1 89/108/89 97/116/97
f 1/118/1 97/116/97 98/119/98
f 98/119/98 97/116/97 96/115/96
f 96/115/96 95/114/95 98/119/98
f 99/120/99 98/119/98 95/114/95
f 95/114/95 68/82/68 99/120/99
f 100/121/100 99/120/99 68/82/68
f 68/82/68 66/80/66 100/121/100
f 101/122/101 100/121/100 66/80/66
f 66/80/66 57/66/57 101/122/101
f 59/68/59 101/122/101 57/66/57
f 1/123/1 101/122/101 59/68/59
f 1/124/1 99/120/99 100/121/100
f 1/125/1 100/121/100 101/122/101
f 1/126/1 98/119/98 99/120/99
f 102/127/102 103/128/103 104/129/104
f 103/128/103 105/130/105 106/131/106
f 106/131/106 104/129/104 103/128/103
f 104/129/104 106/131/106 107/132/107
f 107/132/107 108/133/108 104/129/104
f 102/134/102 104/129/104 108/133/108
f 105/130/105 109/135/109 110/136/110
f 110/136/110 106/131/106 105/130/105
f 106/131/106 110/136/110 111/137/111
f 111/137/111 107/132/107 106/131/106
f 107/132/107 111/137/111 112/138/112
f 112/138/112 113/139/113 107/132/107
f 108/133/108 107/132/107 113/139/113
f 113/139/113 114/140/114 108/133/108
f 102/141/102 108/133/108 114/140/114
f 109/135/109 115/142/115 116/143/116
f 116/143/116 110/136/110 109/135/109
f 110/136/110 116/143/116 117/144/117
f 117/144/117 111/137/111 110/136/110
f 111/137/111 117/144/117 118/145/118
f 118/145/118 112/138/112 111/137/111
f 112/138/112 118/145/118 119/146/119
f 119/146/119 120/147/120 112/138/112
f 113/139/113 112/138/112 120/147/120
f 120/147/120 121/148/121 113/139/113
f 114/140/114 113/139/113 121/148/121
f 121/148/121 122/149/122 114/140/114
f 102/150/102 114/140/114 122/149/122
f 102/151/102 122/149/122 123/152/123
f 124/153/124 123/152/123 122/149/122
f 122/149/122 121/148/121 124/153/124
f 125/154/125 124/153/124 121/148/121
f 121/148/121 120/147/120 125/154/125
f 126/155/126 125/154/125 120/147/120
f 120/147/120 119/146/119 126/155/126
f 36/104/36 126/155/126 119/146/119
f 119/146/119 86/102/86 36/104/36
f 86/102/86 119/146/119 118/145/118
f 118/145/118 84/100/84 86/102/86
f 84/100/84 118/145/118 117/144/117
f 117/144/117 83/99/83 84/100/84
f 83/99/83 117/144/117 116/143/116
f 116/143/116 82/98/82 83/99/83
f 82/98/82 116/143/116 115/142/115
f 115/142/115 81/97/81 82/98/82
f 81/97/81 115/142/115 127/156/127
f 127/156/127 80/96/80 81/97/81
f 80/96/80 127/156/127 128/157/128
f 129/158/129 130/159/130 131/160/131
f 131/160/131 132/161/132 129/158/129
f 132/161/132 131/160/131 133/162/133
f 133/162/133 134/163/134 132/161/132
f 134/163/134 133/162/133 128/157/128
f 128/157/128 135/164/135 134/163/134
f 135/164/135 128/157/128 127/156/127
f 127/156/127 136/165/136 135/164/135
f 136/165/136 127/156/127 115/142/115
f 115/142/115 109/135/109 136/165/136
f 137/166/137 129/158/129 132/161/132
f 132/161/132 138/167/138 137/166/137
f 138/167/138 132/161/132 134/163/134
f 134/163/134 139/168/139 138/167/138
f 139/168/139 134/163/134 135/164/135
f 135/164/135 140/169/140 139/168/139
f 140/169/140 135/164/135 136/165/136
f 136/165/136 141/170/141 140/169/140
f 141/170/141 136/165/136 109/135/109
f 109/135/109 105/130/105 141/170/141
f 142/171/142 137/166/137 138/167/138
f 138/167/138 143/172/143 142/171/142
f 143/172/143 138/167/138 139/168/139
f 139/168/139 144/173/144 143/172/143
f 144/173/144 139/168/139 140/169/140
f 140/169/140 145/174/145 144/173/144
f 145/174/145 140/169/140 141/170/141
f 141/170/141 146/175/146 145/174/145
f 146/175/146 141/170/141 105/130/105
f 105/130/105 103/128/103 146/175/146
f 102/176/102 143/172/143 144/173/144
f 102/177/102 146/175/146 103/128/103
f 102/178/102 144/173/144 145/174/145
f 102/179/102 145/174/145 146/175/146
f 102/180/102 142/171/142 143/172/143
f 147/181/147 148/182/148 149/183/149
f 150/184/150 149/183/149 148/182/148
f 148/182/148 151/185/151 150/184/150
f 152/186/152 150/184/150 151/185/151
f 151/185/151 153/187/153 152/186/152
f 153/187/153 151/185/151 50/57/50
f 50/57/50 49/56/49 153/187/153
f 49/56/49 48/55/48 154/188/154
f 154/188/154 153/187/153 49/56/49
f 153/187/153 154/188/154 155/189/155
f 155/189/155 152/186/152 153/187/153
f 152/186/152 155/189/155 156/190/156
f 156/190/156 157/191/157 152/186/152
f 150/184/150 152/186/152 157/191/157
f 157/191/157 158/192/158 150/184/150
f 149/183/149 150/184/150 158/192/158
f 158/192/158 159/193/159 149/183/149
f 48/55/48 47/54/47 130/194/130
f 130/194/130 154/188/154 48/55/48
f 154/188/154 130/194/130 129/195/129
f 129/195/129 155/189/155 154/188/154
f 155/189/155 129/195/129 137/196/137
f 137/196/137 156/190/156 155/189/155
f 156/190/156 137/196/137 142/197/142
f 142/197/142 160/198/160 156/190/156
f 157/191/157 156/190/156 160/198/160
f 160/198/160 161/199/161 157/191/157
f 102/200/102 161/199/161 160/198/160
f 102/201/102 160/198/160 142/197/142
f 102/202/102 162/203/162 161/199/161
f 102/204/102 163/205/163 162/203/162
f 102/206/102 164/207/164 163/205/163
f 158/192/158 157/191/157 161/199/161
f 161/199/161 162/203/162 158/192/158
f 159/193/159 158/192/158 162/203/162
f 162/203/162 163/205/163 159/193/159
f 165/208/165 159/193/159 163/205/163
f 163/205/163 164/207/164 165/208/165
f 166/209/166 165/208/165 164/207/164
f 164/207/164 167/210/167 166/209/166
f 168/211/168 166/209/166 167/210/167
f 167/210/167 169/212/169 168/211/168
f 102/213/102 167/210/167 164/207/164
f 102/214/102 169/212/169 167/210/167
f 102/215/102 170/216/170 169/212/169
f 102/217/102 171/218/171 170/216/170
f 172/219/172 168/211/168 169/212/169
f 169/212/169 170/216/170 172/219/172
f 173/220/173 172/219/172 170/216/170
f 170/216/170 171/218/171 173/220/173
f 124/221/124 173/220/173 171/218/171
f 171/218/171 123/222/123 124/221/124
f 102/223/102 123/222/123 171/218/171
f 173/220/173 124/221/124 125/224/125
f 172/219/172 173/220/173 174/225/174
f 125/224/125 174/225/174 173/220/173
f 174/225/174 125/224/125 126/226/126
f 175/227/175 149/183/149 159/193/159
f 159/193/159 165/208/165 175/227/175
f 176/228/176 175/227/175 165/208/165
f 165/208/165 166/209/166 176/228/176
f 177/229/177 176/228/176 166/209/166
f 166/209/166 168/211/168 177/229/177
f 178/230/178 177/229/177 168/211/168
f 168/211/168 172/219/172 178/230/178
f 174/225/174 178/230/178 172/219/172
f 178/230/178 174/225/174 179/231/179
f 126/226/126 179/231/179 174/225/174
f 179/231/179 126/226/126 36/43/36
f 36/43/36 35/42/35 179/231/179
f 180/232/180 179/231/179 35/42/35
f 179/231/179 180/232/180 178/230/178
f 177/229/177 178/230/178 180/232/180
f 180/232/180 181/233/181 177/229/177
f 176/228/176 177/229/177 181/233/181
f 181/233/181 182/234/182 176/228/176
f 175/227/175 176/228/176 182/234/182
f 182/234/182 147/181/147 175/227/175
f 149/183/149 175/227/175 147/181/147
f 35/42/35 34/41/34 180/232/180
f 181/233/181 180/232/180 34/41/34
f 34/41/34 33/40/33 181/233/181
f 182/234/182 181/233/181 33/40/33
f 33/40/33 32/39/32 182/234/182
f 147/181/147 182/234/182 32/39/32
f 32/39/32 31/38/31 147/181/147
f 148/182/148 147/181/147 31/38/31
f 31/38/31 51/58/51 148/182/148
f 151/185/151 148/182/148 51/58/51
f 51/58/51 50/57/50 151/185/151
f 128/157/128 79/95/79 80/96/80
f 79/95/79 128/157/128 133/162/133
f 133/162/133 78/94/78 79/95/79
f 78/94/78 133/162/133 131/160/131
f 131/160/131 77/92/77 78/94/78
f 77/92/77 131/160/131 130/159/130
f 130/159/130 47/93/47 77/92/77
f 27/105/27 87/103/87 92/111/92
f 92/111/92 28/235/28 27/105/27
f 28/235/28 92/111/92 90/109/90
f 90/109/90 29/236/29 28/235/28
f 29/236/29 90/109/90 88/107/88
f 88/107/88 30/237/30 29/236/29
f 1/238/1 30/237/30 88/107/88
