# Blender 4.2.1 LTS
# www.blender.org
mtllib casilla.mtl
o Cube
v 2.000000 0.250000 -2.000000
v 2.000000 -0.250000 -2.000000
v 2.000000 0.250000 2.000000
v 2.000000 -0.250000 2.000000
v -2.000000 0.250000 -2.000000
v -2.000000 -0.250000 -2.000000
v -2.000000 0.250000 2.000000
v -2.000000 -0.250000 2.000000
vn -0.0000 1.0000 -0.0000
vn -0.0000 -0.0000 1.0000
vn -1.0000 -0.0000 -0.0000
vn -0.0000 -1.0000 -0.0000
vn 1.0000 -0.0000 -0.0000
vn -0.0000 -0.0000 -1.0000
vt 0.967979 0.999902
vt 0.236260 0.578821
vt 0.431816 0.032580
vt 0.327022 0.000098
vt 0.184975 0.563362
vt 0.111389 0.908672
vt 0.000098 0.999902
vt 0.375000 0.500000
vt 0.625000 0.750000
vt 0.375000 0.750000
vt 0.375000 0.250000
vt 0.625000 0.500000
vt 0.125000 0.500000
s 0
usemtl Material.001
f 1/1/1 7/2/1 3/3/1
f 4/4/2 7/2/2 8/5/2
f 8/5/3 5/6/3 6/7/3
f 6/7/4 4/4/4 8/5/4
f 2/8/5 3/9/5 4/10/5
f 6/11/6 1/12/6 2/8/6
f 1/1/1 5/6/1 7/2/1
f 4/4/2 3/3/2 7/2/2
f 8/5/3 7/2/3 5/6/3
f 6/13/4 2/8/4 4/10/4
f 2/8/5 1/12/5 3/9/5
f 6/7/6 5/6/6 1/1/6
