# Blender 4.2.1 LTS
# www.blender.org
mtllib Diamante.mtl
o Mesh_0002
v 0.000000 -2.257570 0.000000
v -1.494860 -0.938630 -0.000000
v -1.381070 -0.938630 -0.572060
v -1.057020 -0.938630 -1.057030
v -0.572060 -0.938629 -1.381070
v 0.000000 -0.938629 -1.494860
v 0.572060 -0.938629 -1.381070
v 1.057020 -0.938630 -1.057030
v 1.381070 -0.938630 -0.572060
v 1.494860 -0.938630 -0.000000
v 1.381070 -0.938630 0.572060
v 1.057030 -0.938630 1.057021
v 0.572060 -0.938630 1.381071
v 0.000000 -0.938630 1.494861
v -0.572060 -0.938630 1.381071
v -1.057030 -0.938630 1.057021
v -1.381070 -0.938630 0.572060
v -1.890801 1.080311 0.376101
v -1.457050 1.248891 -0.289829
v -1.602950 1.080311 -1.071050
v -0.825350 1.248891 -1.235230
v -0.376100 1.080311 -1.890800
v 0.289830 1.248891 -1.457050
v 1.071050 1.080311 -1.602950
v 1.235230 1.248891 -0.825350
v 1.890801 1.080311 -0.376100
v 1.457050 1.248891 0.289831
v 1.602950 1.080311 1.071051
v 0.825350 1.248891 1.235231
v 0.376100 1.080311 1.890801
v -0.289830 1.248891 1.457051
v -1.071050 1.080311 1.602951
v -1.235230 1.248891 0.825351
v -2.579491 0.045011 -0.513090
v -2.141310 0.045011 -1.430780
v -2.525841 0.045011 0.502420
v -1.461160 0.045011 -2.186780
v -0.502420 0.045011 -2.525840
v 0.513090 0.045011 -2.579490
v 1.430780 0.045011 -2.141310
v 2.186780 0.045011 -1.461160
v 2.525841 0.045011 -0.502420
v 2.579491 0.045011 0.513090
v 2.141310 0.045010 1.430771
v 1.461160 0.045010 2.186781
v 0.502420 0.045011 2.525841
v -0.513090 0.045011 2.579491
v -1.430780 0.045010 2.141311
v -2.186780 0.045010 1.461161
v -2.588021 0.368980 -0.514790
v -2.583761 0.207001 0.513941
v -1.466000 0.368981 -2.194020
v -2.190400 0.207001 -1.463580
v 0.514790 0.368981 -2.588020
v -0.513940 0.207001 -2.583760
v 2.194021 0.368981 -1.466000
v 1.463580 0.207001 -2.190400
v 2.588021 0.368980 0.514791
v 2.583761 0.207001 -0.513940
v 1.466000 0.368980 2.194021
v 2.190400 0.207000 1.463581
v -0.514790 0.368980 2.588021
v 0.513940 0.207000 2.583761
v -2.194021 0.368980 1.466001
v -1.463580 0.207000 2.190401
v 0.000000 1.248891 0.000001
vn -0.6560 -0.7434 -0.1305
vn -0.5561 -0.7434 -0.3716
vn -0.5539 -0.7458 -0.3701
vn -0.3716 -0.7434 -0.5561
vn -0.1305 -0.7434 -0.6560
vn -0.1300 -0.7458 -0.6534
vn 0.1305 -0.7434 -0.6560
vn 0.3716 -0.7434 -0.5561
vn 0.3701 -0.7458 -0.5539
vn 0.5561 -0.7434 -0.3716
vn 0.6560 -0.7434 -0.1305
vn 0.6534 -0.7458 -0.1300
vn 0.6560 -0.7434 0.1305
vn 0.5561 -0.7434 0.3716
vn 0.5539 -0.7458 0.3701
vn 0.3716 -0.7434 0.5561
vn 0.1305 -0.7434 0.6560
vn 0.1300 -0.7458 0.6534
vn -0.1305 -0.7434 0.6560
vn -0.3716 -0.7434 0.5561
vn -0.3701 -0.7458 0.5539
vn -0.5561 -0.7434 0.3716
vn -0.6560 -0.7434 0.1305
vn -0.6534 -0.7458 0.1300
vn -0.4860 0.8686 -0.0967
vn -0.2415 0.9569 -0.1614
vn -0.2753 0.8686 -0.4120
vn -0.0567 0.9569 -0.2849
vn 0.0967 0.8686 -0.4860
vn 0.1614 0.9569 -0.2415
vn 0.4120 0.8686 -0.2753
vn 0.2849 0.9569 -0.0567
vn 0.4860 0.8686 0.0967
vn 0.2415 0.9569 0.1614
vn 0.2753 0.8686 0.4120
vn 0.0567 0.9569 0.2849
vn -0.0967 0.8686 0.4860
vn -0.1614 0.9569 0.2415
vn -0.4120 0.8686 0.2753
vn -0.2849 0.9569 0.0567
vn -0.6151 -0.7317 -0.2937
vn -0.6806 -0.7317 0.0360
vn -0.5067 -0.7317 -0.4559
vn -0.2272 -0.7317 -0.6426
vn -0.0360 -0.7317 -0.6806
vn 0.2937 -0.7317 -0.6151
vn 0.4559 -0.7317 -0.5067
vn 0.6426 -0.7317 -0.2272
vn 0.6806 -0.7317 -0.0360
vn 0.6151 -0.7317 0.2937
vn 0.5067 -0.7317 0.4559
vn 0.2272 -0.7317 0.6426
vn 0.0360 -0.7317 0.6806
vn -0.2937 -0.7317 0.6151
vn -0.4559 -0.7317 0.5067
vn -0.6426 -0.7317 0.2272
vn -0.7713 0.6282 0.1021
vn -0.6176 0.6282 -0.4732
vn -0.1021 0.6282 -0.7713
vn 0.4732 0.6282 -0.6176
vn 0.7713 0.6282 -0.1021
vn 0.6176 0.6282 0.4732
vn 0.1021 0.6282 0.7713
vn -0.4732 0.6282 0.6176
vn -0.0000 1.0000 -0.0000
vn -0.9997 -0.0263 -0.0000
vn -0.9236 -0.0263 -0.3826
vn -0.7069 -0.0264 -0.7069
vn -0.3826 -0.0264 -0.9236
vn -0.0000 -0.0263 -0.9997
vn 0.3826 -0.0263 -0.9236
vn 0.7069 -0.0264 -0.7069
vn 0.9236 -0.0264 -0.3826
vn 0.9997 -0.0263 -0.0000
vn 0.9236 -0.0263 0.3826
vn 0.7069 -0.0264 0.7069
vn 0.3826 -0.0264 0.9236
vn -0.0000 -0.0263 0.9997
vn -0.3826 -0.0263 0.9236
vn -0.7069 -0.0264 0.7069
vn -0.9236 -0.0264 0.3826
vn -0.8489 -0.3393 -0.4053
vn -0.9393 -0.3394 0.0496
vn -0.6993 -0.3393 -0.6291
vn -0.3136 -0.3394 -0.8868
vn -0.0496 -0.3394 -0.9393
vn 0.4053 -0.3393 -0.8489
vn 0.6291 -0.3393 -0.6993
vn 0.8868 -0.3394 -0.3136
vn 0.9393 -0.3394 -0.0496
vn 0.8489 -0.3393 0.4053
vn 0.6993 -0.3393 0.6291
vn 0.3136 -0.3394 0.8868
vn 0.0496 -0.3394 0.9393
vn -0.4053 -0.3393 0.8489
vn -0.6291 -0.3393 0.6993
vn -0.8868 -0.3394 0.3136
vn -0.6261 0.7697 -0.1245
vn -0.3547 0.7697 -0.5308
vn 0.1245 0.7697 -0.6261
vn 0.5308 0.7697 -0.3547
vn 0.6261 0.7697 0.1245
vn 0.3547 0.7697 0.5308
vn -0.1245 0.7697 0.6261
vn -0.5308 0.7697 0.3547
vn -0.7517 0.6282 0.2008
vn -0.6736 0.6282 -0.3895
vn -0.2008 0.6282 -0.7517
vn 0.3895 0.6282 -0.6736
vn 0.7517 0.6282 -0.2008
vn 0.6736 0.6282 0.3895
vn 0.2008 0.6282 0.7517
vn -0.3895 0.6282 0.6736
vn -0.6331 -0.7638 -0.1259
vn -0.5517 -0.7482 -0.3686
vn -0.3586 -0.7638 -0.5367
vn -0.1294 -0.7482 -0.6507
vn 0.1259 -0.7638 -0.6331
vn 0.3686 -0.7482 -0.5517
vn 0.5367 -0.7638 -0.3586
vn 0.6507 -0.7482 -0.1294
vn 0.6331 -0.7638 0.1259
vn 0.5517 -0.7482 0.3686
vn 0.3586 -0.7638 0.5367
vn 0.1294 -0.7482 0.6507
vn -0.1259 -0.7638 0.6331
vn -0.3686 -0.7482 0.5517
vn -0.5367 -0.7638 0.3586
vn -0.6507 -0.7482 0.1294
vt 0.765200 -0.296400
vt 0.745000 -0.480500
vt 0.676000 -0.459100
vt 0.620800 -0.412400
vt 0.587200 -0.348400
vt 0.581100 -0.276400
vt 0.194000 -0.669900
vt 0.078100 -0.525500
vt 0.142100 -0.491900
vt 0.214200 -0.485800
vt 0.283200 -0.507300
vt 0.338400 -0.553900
vt 0.029900 -0.344600
vt 0.001700 -0.161600
vt 0.073900 -0.164500
vt 0.139300 -0.195300
vt 0.188400 -0.248400
vt 0.212900 -0.316400
vt 0.045300 -0.965800
vt 0.001200 -0.785900
vt 0.073500 -0.782500
vt 0.141300 -0.807500
vt 0.194800 -0.856100
vt 0.225100 -0.921700
vt 0.545500 -0.139000
vt 0.466400 -0.166000
vt 0.393600 -0.126300
vt 0.356900 -0.200600
vt 0.796400 -0.490200
vt 0.798300 -0.406600
vt 0.860900 -0.351500
vt 0.803700 -0.290900
vt 0.809600 -0.207400
vt 0.725900 -0.204900
vt 0.627600 -0.789400
vt 0.548200 -0.765500
vt 0.511800 -0.690300
vt 0.438600 -0.730600
vt 0.360100 -0.704200
vt 0.336800 -0.783700
vt 0.405400 -0.766000
vt 0.485700 -0.789500
vt 0.522700 -0.864200
vt 0.596100 -0.824600
vt 0.675100 -0.851900
vt 0.699300 -0.771700
vt 0.642300 -0.256700
vt 0.568200 -0.219400
vt 0.657400 -0.608500
vt 0.548900 -0.540300
vt 0.344400 -0.836200
vt 0.375400 -0.960300
vt 0.468300 -0.440900
vt 0.439800 -0.315700
vt 0.453200 -0.188600
vt 0.049700 -0.373000
vt 0.174600 -0.344500
vt 0.301800 -0.357800
vt 0.410300 -0.426000
vt 0.490900 -0.525300
vt 0.053200 -0.015200
vt 0.175700 -0.053100
vt 0.279200 -0.128200
vt 0.339200 -0.241700
vt 0.359200 -0.368000
vt 0.039900 -0.635700
vt 0.165100 -0.662700
vt 0.274800 -0.728400
vt 0.479800 -0.008900
vt 0.603000 -0.029300
vt 0.256700 -0.081200
vt 0.356700 -0.010700
vt 0.951900 -0.238000
vt 0.982600 -0.357200
vt 0.794400 -0.061200
vt 0.900800 -0.125600
vt 0.424500 -0.573600
vt 0.549400 -0.572200
vt 0.217300 -0.683600
vt 0.303600 -0.596700
vt 0.608800 -0.981400
vt 0.485700 -0.980300
vt 0.820300 -0.875100
vt 0.730600 -0.961200
vt 0.987900 -0.731500
vt 0.900300 -0.818300
vt 0.839300 -0.669100
vt 0.988400 -0.608100
vt 0.901600 -0.520500
vt 0.778200 -0.520000
vt 0.690600 -0.606800
vt 0.690100 -0.730200
vt 0.777000 -0.817800
vt 0.051300 -0.503100
vt 0.016200 -0.503400
vt 0.032300 -0.391800
vt 0.034000 -0.614800
vt 0.840300 -0.037200
vt 0.728600 -0.054200
vt 0.729000 -0.019000
vt 0.617300 -0.034900
vt 0.960100 -0.234800
vt 0.915200 -0.131100
vt 0.949300 -0.122500
vt 0.905700 -0.018500
vt 0.428100 -0.433200
vt 0.390400 -0.326700
vt 0.425100 -0.320500
vt 0.388500 -0.213800
vt 0.114700 -0.958600
vt 0.226000 -0.939600
vt 0.226300 -0.974800
vt 0.337700 -0.956900
vt 0.660400 -0.272200
vt 0.692200 -0.163800
vt 0.723900 -0.179000
vt 0.756800 -0.071100
vt 0.787300 -0.942400
vt 0.862300 -0.857900
vt 0.884500 -0.885200
vt 0.960300 -0.801600
vt 0.995900 -0.838000
vt 0.922500 -0.923800
vt 0.899800 -0.897000
vt 0.825600 -0.982000
vt 0.015400 -0.613700
vt 0.013600 -0.393100
vt 0.839300 -0.018500
vt 0.618700 -0.016200
vt 0.977900 -0.229100
vt 0.924000 -0.015200
vt 0.446300 -0.428700
vt 0.407100 -0.211600
vt 0.116000 -0.977300
vt 0.336600 -0.975600
vt 0.677800 -0.279200
vt 0.773100 -0.080200
vt 0.800000 -0.956100
vt 0.971200 -0.816900
vt 0.982900 -0.824500
vt 0.814500 -0.966900
vt 0.940900 -0.473000
vt 0.650600 -0.645600
vt 0.384600 -0.910000
vt 0.689900 -0.119100
s 1
usemtl Tex_0001_0_png
f 1/1/1 2/2/1 3/3/1
f 1/1/2 3/3/3 4/4/3
f 1/1/4 4/4/4 5/5/4
f 1/1/5 5/5/6 6/6/6
f 1/7/7 6/8/7 7/9/7
f 1/7/8 7/9/9 8/10/9
f 1/7/10 8/10/10 9/11/10
f 1/7/11 9/11/12 10/12/12
f 1/13/13 10/14/13 11/15/13
f 1/13/14 11/15/15 12/16/15
f 1/13/16 12/16/16 13/17/16
f 1/13/17 13/17/18 14/18/18
f 1/19/19 14/20/19 15/21/19
f 1/19/20 15/21/21 16/22/21
f 1/19/22 16/22/22 17/23/22
f 1/19/23 17/23/24 2/24/24
f 18/25/25 19/26/25 20/27/25
f 20/27/26 19/26/26 21/28/26
f 20/29/27 21/30/27 22/31/27
f 22/31/28 21/30/28 23/32/28
f 22/31/29 23/32/29 24/33/29
f 24/33/30 23/32/30 25/34/30
f 24/35/31 25/36/31 26/37/31
f 26/37/32 25/36/32 27/38/32
f 26/37/33 27/38/33 28/39/33
f 28/39/34 27/38/34 29/40/34
f 28/41/35 29/42/35 30/43/35
f 30/43/36 29/42/36 31/44/36
f 30/43/37 31/44/37 32/45/37
f 32/45/38 31/44/38 33/46/38
f 32/47/39 33/48/39 18/25/39
f 18/25/40 33/48/40 19/26/40
f 3/3/41 34/49/41 35/50/41
f 2/24/42 36/51/42 34/52/42
f 4/4/43 35/50/43 37/53/43
f 5/5/44 37/53/44 38/54/44
f 6/6/45 38/54/45 39/55/45
f 7/9/46 39/56/46 40/57/46
f 8/10/47 40/57/47 41/58/47
f 9/11/48 41/58/48 42/59/48
f 10/12/49 42/59/49 43/60/49
f 11/15/50 43/61/50 44/62/50
f 12/16/51 44/62/51 45/63/51
f 13/17/52 45/63/52 46/64/52
f 14/18/53 46/64/53 47/65/53
f 15/21/54 47/66/54 48/67/54
f 16/22/55 48/67/55 49/68/55
f 17/23/56 49/68/56 36/51/56
f 50/69/57 51/70/57 18/25/57
f 52/71/58 53/72/58 20/27/58
f 54/73/59 55/74/59 22/31/59
f 56/75/60 57/76/60 24/33/60
f 58/77/61 59/78/61 26/37/61
f 60/79/62 61/80/62 28/39/62
f 62/81/63 63/82/63 30/43/63
f 64/83/64 65/84/64 32/45/64
f 21/85/65 19/86/65 66/87/65
f 23/88/65 21/85/65 66/87/65
f 25/89/65 23/88/65 66/87/65
f 27/90/65 25/89/65 66/87/65
f 29/91/65 27/90/65 66/87/65
f 31/92/65 29/91/65 66/87/65
f 33/93/65 31/92/65 66/87/65
f 19/86/65 33/93/65 66/87/65
f 50/94/66 34/95/66 51/96/66
f 53/97/67 34/95/67 50/94/67
f 53/98/68 52/99/68 37/100/68
f 37/100/69 52/99/69 55/101/69
f 55/102/70 54/103/70 39/104/70
f 39/104/71 54/103/71 57/105/71
f 57/106/72 56/107/72 41/108/72
f 41/108/73 56/107/73 59/109/73
f 59/110/74 58/111/74 43/112/74
f 43/112/75 58/111/75 61/113/75
f 61/114/76 60/115/76 45/116/76
f 45/116/77 60/115/77 63/117/77
f 63/118/78 62/119/78 47/120/78
f 47/120/79 62/119/79 65/121/79
f 65/122/80 64/123/80 49/124/80
f 49/124/81 64/123/81 51/125/81
f 35/126/82 34/95/82 53/97/82
f 34/95/83 36/127/83 51/96/83
f 37/100/84 35/128/84 53/98/84
f 38/129/85 37/100/85 55/101/85
f 39/104/86 38/130/86 55/102/86
f 40/131/87 39/104/87 57/105/87
f 41/108/88 40/132/88 57/106/88
f 42/133/89 41/108/89 59/109/89
f 43/112/90 42/134/90 59/110/90
f 44/135/91 43/112/91 61/113/91
f 45/116/92 44/136/92 61/114/92
f 46/137/93 45/116/93 63/117/93
f 47/120/94 46/138/94 63/118/94
f 48/139/95 47/120/95 65/121/95
f 49/124/96 48/140/96 65/122/96
f 36/141/97 49/124/97 51/125/97
f 18/25/98 20/27/98 50/69/98
f 20/29/99 22/31/99 52/142/99
f 22/31/100 24/33/100 54/73/100
f 24/35/101 26/37/101 56/143/101
f 26/37/102 28/39/102 58/77/102
f 28/41/103 30/43/103 60/144/103
f 30/43/104 32/45/104 62/81/104
f 32/47/105 18/25/105 64/145/105
f 18/25/106 51/70/106 64/145/106
f 20/27/107 53/72/107 50/69/107
f 22/31/108 55/74/108 52/142/108
f 24/33/109 57/76/109 54/73/109
f 26/37/110 59/78/110 56/143/110
f 28/39/111 61/80/111 58/77/111
f 30/43/112 63/82/112 60/144/112
f 32/45/113 65/84/113 62/81/113
f 3/3/114 2/2/114 34/49/114
f 4/4/3 3/3/3 35/50/115
f 5/5/116 4/4/116 37/53/116
f 6/6/6 5/5/6 38/54/117
f 7/9/118 6/8/118 39/56/118
f 8/10/9 7/9/9 40/57/119
f 9/11/120 8/10/120 41/58/120
f 10/12/12 9/11/12 42/59/121
f 11/15/122 10/14/122 43/61/122
f 12/16/15 11/15/15 44/62/123
f 13/17/124 12/16/124 45/63/124
f 14/18/18 13/17/18 46/64/125
f 15/21/126 14/20/126 47/66/126
f 16/22/21 15/21/21 48/67/127
f 17/23/128 16/22/128 49/68/128
f 2/24/24 17/23/24 36/51/129
