# Blender 4.2.1 LTS
# www.blender.org
mtllib helices.mtl
o Helicopter.001
v 0.766992 0.001648 -0.000175
v 0.542382 0.001648 0.542305
v 0.000146 0.001648 -0.000175
v 0.000146 0.001648 0.766915
v 0.000146 0.001648 0.766915
v -0.542090 0.001648 0.542305
v 0.000146 0.001648 -0.000175
v -0.766700 0.001648 -0.000175
v -0.542090 0.001648 -0.542411
v 0.000146 0.001648 -0.767021
v 0.000146 0.001648 -0.000175
v 0.542382 0.001648 -0.542411
v 0.766992 0.007263 -0.000175
v 0.000146 0.007263 -0.000175
v 0.542382 0.007264 0.542305
v 0.000146 0.007264 0.766915
v 0.000146 0.007264 0.766915
v 0.000146 0.007263 -0.000175
v -0.542090 0.007264 0.542305
v -0.766700 0.007263 -0.000175
v -0.542090 0.007263 -0.542411
v 0.000146 0.007263 -0.000175
v 0.000146 0.007263 -0.767021
v 0.542382 0.007263 -0.542411
v 0.766992 0.001648 -0.000175
v 0.000146 0.001648 -0.000175
v 0.542382 0.001648 -0.542411
v -0.542090 0.001648 -0.542411
v 0.000146 0.001648 -0.000175
v -0.766700 0.001648 -0.000175
v 0.542382 0.007263 -0.542411
v 0.000146 0.007263 -0.000175
v 0.766992 0.007263 -0.000175
v -0.766700 0.007263 -0.000175
v 0.000146 0.007263 -0.000175
v -0.542090 0.007263 -0.542411
vn -0.0000 -1.0000 -0.0000
vn -0.0000 1.0000 -0.0000
vt 0.035156 -1.300781
vt 0.597656 -1.007813
vt 0.597656 -2.007813
vt 1.162109 -1.300781
vt 0.035156 -1.302734
vt 0.597656 -1.009766
vt 0.597656 -2.009766
vt 1.162109 -1.302734
vt 0.041016 -1.302734
vt 0.609375 -1.007813
vt 0.609375 -2.015625
vt 1.175781 -1.302734
vt 0.105469 -0.958984
vt 0.142578 -1.017578
vt 0.142578 -0.957031
vt 0.117188 -1.027344
vt 0.150391 -1.082031
vt 0.150391 -1.027344
s 0
usemtl prope
f 1/1/1 2/2/1 3/3/1
f 2/2/1 4/4/1 3/3/1
f 5/5/1 6/6/1 7/7/1
f 6/6/1 8/8/1 7/7/1
f 9/9/1 10/10/1 11/11/1
f 10/10/1 12/12/1 11/11/1
f 13/1/2 14/3/2 15/2/2
f 14/3/2 16/4/2 15/2/2
f 17/5/2 18/7/2 19/6/2
f 18/7/2 20/8/2 19/6/2
f 21/9/2 22/11/2 23/10/2
f 22/11/2 24/12/2 23/10/2
f 25/13/1 26/14/1 27/15/1
f 28/16/1 29/17/1 30/18/1
f 31/15/2 32/14/2 33/13/2
f 34/18/2 35/17/2 36/16/2
