# Blender 4.2.1 LTS
# www.blender.org
mtllib helicoptero.mtl
o Helicopter
v 0.045370 0.307089 -0.084512
v 0.084921 0.321005 -0.116494
v -0.001505 0.305380 -0.103311
v -0.001505 0.313437 -0.130899
v -0.048380 0.307089 -0.084512
v -0.087931 0.321005 -0.116494
v 0.067343 0.310507 0.038047
v 0.045370 0.321493 -0.012002
v -0.001505 0.318075 0.071982
v -0.001505 0.323202 0.006553
v -0.070353 0.310507 0.038047
v -0.048380 0.321493 -0.012002
v 0.045370 0.321493 -0.012002
v 0.067343 0.310507 0.038047
v 0.045370 0.307089 -0.084512
v 0.084921 0.321005 -0.116494
v -0.048380 0.321493 -0.012002
v -0.048380 0.307089 -0.084512
v -0.070353 0.310507 0.038047
v -0.087931 0.321005 -0.116494
v 0.004110 0.284140 0.011435
v 0.050985 0.282431 -0.007364
v 0.050985 0.322226 -0.011026
v 0.004110 0.323935 0.008017
v -0.007120 0.284140 0.011435
v -0.007120 0.323935 0.008017
v -0.053995 0.322226 -0.011026
v -0.053995 0.282431 -0.007364
v -0.001505 0.036825 -0.092813
v -0.001505 0.088827 -0.115518
v 0.030477 0.039755 -0.087930
v 0.036337 0.092001 -0.110879
v -0.001505 0.042441 -0.083779
v -0.001505 0.095175 -0.106973
v -0.033488 0.039755 -0.087930
v -0.039347 0.092001 -0.110879
v -0.001505 0.036825 -0.092813
v -0.001505 0.088827 -0.115518
v -0.001505 0.088827 -0.115518
v -0.001505 0.154501 -0.119180
v 0.036337 0.092001 -0.110879
v 0.046591 0.157431 -0.114297
v -0.001505 0.095175 -0.106973
v -0.001505 0.160849 -0.110391
v -0.039347 0.092001 -0.110879
v -0.049601 0.157431 -0.114297
v -0.001505 0.088827 -0.115518
v -0.001505 0.154501 -0.119180
v -0.001505 0.154501 -0.119180
v -0.001505 0.232382 -0.116494
v 0.046591 0.157431 -0.114297
v 0.061971 0.236288 -0.112344
v -0.001505 0.160849 -0.110391
v -0.001505 0.240439 -0.109414
v -0.049601 0.157431 -0.114297
v -0.064982 0.236288 -0.112344
v -0.001505 0.154501 -0.119180
v -0.001505 0.232382 -0.116494
v 0.061971 0.236288 -0.112344
v -0.001505 0.232382 -0.116494
v -0.001505 0.244589 -0.113076
v -0.064982 0.236288 -0.112344
v -0.001505 0.240439 -0.109414
v -0.001505 0.036825 -0.092813
v 0.030477 0.039755 -0.087930
v -0.001505 0.030478 -0.082315
v -0.001505 0.042441 -0.083779
v -0.033488 0.039755 -0.087930
v -0.001505 0.240439 -0.109414
v 0.061971 0.236288 -0.112344
v -0.001505 0.244589 -0.113076
v -0.033488 0.039755 -0.087930
v -0.001505 0.036825 -0.092813
v -0.001505 0.030478 -0.082315
v -0.001505 0.305380 -0.103311
v -0.001505 0.365439 -0.097451
v 0.045370 0.307089 -0.084512
v 0.041219 0.352499 -0.081094
v 0.045370 0.321493 -0.012002
v 0.041219 0.365927 -0.023233
v -0.001505 0.323202 0.006553
v -0.001505 0.393026 -0.010537
v -0.048380 0.321493 -0.012002
v -0.044230 0.365927 -0.023233
v -0.048380 0.307089 -0.084512
v -0.044230 0.352499 -0.081094
v -0.001505 0.305380 -0.103311
v -0.001505 0.365439 -0.097451
v 0.049032 0.130331 -0.079629
v 0.050253 0.215780 -0.080117
v 0.049032 0.130331 -0.006143
v 0.050253 0.201620 -0.006143
v -0.001505 0.130331 0.012656
v -0.001505 0.198202 0.012656
v -0.052042 0.130331 -0.006143
v -0.053263 0.201620 -0.006143
v -0.052042 0.130331 -0.079629
v -0.053263 0.215780 -0.080117
v -0.001505 0.130331 -0.098428
v -0.001505 0.220663 -0.098916
v 0.045370 0.321493 -0.012002
v 0.048300 0.250448 -0.005899
v 0.045370 0.307089 -0.084512
v 0.048788 0.260946 -0.080606
v -0.001505 0.305380 -0.103311
v -0.001505 0.264120 -0.099893
v -0.048380 0.307089 -0.084512
v -0.051798 0.260946 -0.080606
v -0.048380 0.321493 -0.012002
v -0.051310 0.250448 -0.005899
v 0.043173 0.264120 0.091513
v 0.038534 0.260946 -0.005655
v 0.033407 0.275595 0.077842
v 0.035116 0.266562 -0.004190
v -0.001505 0.279501 0.079795
v -0.001505 0.275107 0.012168
v -0.036417 0.275595 0.077842
v -0.038126 0.266562 -0.004190
v -0.046183 0.264120 0.091513
v -0.041544 0.260946 -0.005655
v 0.026327 0.253622 -0.005410
v 0.035360 0.260458 -0.009561
v 0.022909 0.254843 0.057090
v 0.030233 0.262899 0.064170
v -0.001505 0.252646 0.067099
v -0.001505 0.265341 0.077353
v -0.025919 0.254843 0.057090
v -0.033243 0.262899 0.064170
v -0.029337 0.253622 -0.005410
v -0.038370 0.260458 -0.009561
v -0.086954 0.055868 -0.017862
v -0.091837 0.079062 -0.032754
v -0.060831 0.057333 -0.018838
v -0.062784 0.079062 -0.032754
v -0.060587 0.073202 0.006064
v -0.062540 0.094931 -0.007852
v -0.086954 0.071982 0.007041
v -0.092081 0.094931 -0.008340
v 0.098348 0.080038 -0.033242
v 0.094686 0.056845 -0.018350
v 0.069296 0.079062 -0.032754
v 0.068563 0.057089 -0.018594
v 0.069052 0.094931 -0.007852
v 0.068075 0.073202 0.006308
v 0.098348 0.095907 -0.008828
v 0.094686 0.072714 0.006553
v -0.001505 0.264120 -0.099893
v 0.048788 0.260946 -0.080606
v -0.001505 0.220663 -0.098916
v 0.050253 0.215780 -0.080117
v -0.001505 0.130331 -0.098428
v 0.049032 0.130331 -0.079629
v -0.001505 0.064901 -0.098428
v 0.042684 0.067587 -0.083779
v 0.038534 0.260946 -0.005655
v 0.043173 0.264120 0.091513
v -0.001505 0.264364 0.013144
v -0.001505 0.259726 0.102011
v -0.041544 0.260946 -0.005655
v -0.046183 0.264120 0.091513
v 0.030233 0.262899 0.064170
v 0.035360 0.260458 -0.009561
v -0.001505 0.265341 0.077353
v -0.001505 0.259237 0.012656
v -0.033243 0.262899 0.064170
v -0.038370 0.260458 -0.009561
v -0.092081 0.094931 -0.008340
v -0.091837 0.079062 -0.032754
v -0.086954 0.071982 0.007041
v -0.086954 0.055868 -0.017862
v -0.060587 0.073202 0.006064
v -0.060831 0.057333 -0.018838
v 0.098348 0.080038 -0.033242
v 0.098348 0.095907 -0.008828
v 0.094686 0.056845 -0.018350
v 0.094686 0.072714 0.006553
v 0.068563 0.057089 -0.018594
v 0.068075 0.073202 0.006308
v -0.038614 0.025351 -0.072549
v -0.039591 0.002401 -0.061563
v -0.053019 0.067587 -0.042764
v -0.053019 0.002401 -0.040811
v -0.039835 0.025351 -0.012979
v -0.039591 0.002401 -0.019570
v 0.036581 0.002401 -0.061563
v 0.035604 0.025351 -0.072549
v 0.050009 0.002401 -0.040811
v 0.050009 0.067587 -0.042764
v 0.036581 0.002401 -0.019570
v 0.036825 0.025351 -0.012979
v -0.048380 0.321493 -0.012002
v -0.051310 0.250448 -0.005899
v -0.001505 0.323202 0.006553
v -0.001505 0.250692 0.019736
v 0.045370 0.321493 -0.012002
v 0.048300 0.250448 -0.005899
v 0.042684 0.067587 -0.001992
v 0.049032 0.130331 -0.006143
v -0.001505 0.064901 0.012656
v -0.001505 0.130331 0.012656
v -0.045695 0.067587 -0.001992
v -0.052042 0.130331 -0.006143
v 0.043173 0.264120 0.091513
v 0.033407 0.275595 0.077842
v -0.001505 0.259726 0.102011
v -0.001505 0.279501 0.079795
v -0.046183 0.264120 0.091513
v -0.036417 0.275595 0.077842
v -0.075480 0.112997 -0.054971
v -0.078165 0.078573 -0.030313
v -0.091105 0.113241 -0.054483
v -0.089152 0.078817 -0.029824
v -0.091837 0.121054 -0.042764
v -0.089640 0.084189 -0.021280
v -0.067179 0.136923 -0.063516
v -0.075480 0.112997 -0.054971
v -0.080607 0.148642 -0.059121
v -0.091105 0.113241 -0.054483
v -0.081339 0.144247 -0.043252
v -0.091837 0.121054 -0.042764
v -0.078654 0.083700 -0.021768
v -0.078165 0.078573 -0.030313
v -0.076212 0.120566 -0.043008
v -0.075480 0.112997 -0.054971
v -0.067667 0.132773 -0.047647
v -0.067179 0.136923 -0.063516
v -0.089640 0.084189 -0.021280
v -0.078654 0.083700 -0.021768
v -0.091837 0.121054 -0.042764
v -0.076212 0.120566 -0.043008
v -0.081339 0.144247 -0.043252
v -0.067667 0.132773 -0.047647
v 0.095663 0.079550 -0.030557
v 0.084432 0.078817 -0.030557
v 0.095663 0.114218 -0.054971
v 0.080038 0.113241 -0.055215
v 0.081259 0.148886 -0.059121
v 0.069296 0.135702 -0.063760
v 0.096151 0.084921 -0.022012
v 0.095663 0.079550 -0.030557
v 0.096151 0.122030 -0.043252
v 0.095663 0.114218 -0.054971
v 0.081991 0.144491 -0.043252
v 0.081259 0.148886 -0.059121
v 0.084921 0.084189 -0.022012
v 0.096151 0.084921 -0.022012
v 0.080526 0.120810 -0.043252
v 0.096151 0.122030 -0.043252
v 0.069784 0.131552 -0.047891
v 0.081991 0.144491 -0.043252
v 0.069784 0.131552 -0.047891
v 0.069296 0.135702 -0.063760
v 0.080526 0.120810 -0.043252
v 0.080038 0.113241 -0.055215
v 0.084921 0.084189 -0.022012
v 0.084432 0.078817 -0.030557
v 0.026327 0.253622 -0.005410
v 0.022909 0.254843 0.057090
v -0.001505 0.248495 0.013633
v -0.001505 0.252646 0.067099
v -0.029337 0.253622 -0.005410
v -0.025919 0.254843 0.057090
v 0.035604 0.025351 -0.072549
v 0.042684 0.067587 -0.083779
v 0.050009 0.067587 -0.042764
v 0.049032 0.130331 -0.079629
v 0.049032 0.130331 -0.006143
v 0.021444 0.170858 -0.057656
v 0.069296 0.135702 -0.063760
v 0.020956 0.162558 -0.032266
v 0.069784 0.131552 -0.047891
v 0.081991 0.144491 -0.043252
v 0.050253 0.201620 -0.006143
v 0.048300 0.250448 -0.005899
v -0.001505 0.198202 0.012656
v -0.001505 0.250692 0.019736
v -0.051310 0.250448 -0.005899
v -0.023478 0.176962 -0.055703
v -0.067179 0.136923 -0.063516
v -0.051310 0.191611 -0.052530
v -0.080607 0.148642 -0.059121
v -0.081339 0.144247 -0.043252
v 0.042684 0.067587 -0.083779
v 0.035604 0.025351 -0.072549
v -0.001505 0.024374 -0.083291
v 0.015096 0.012655 -0.042764
v -0.018107 0.012655 -0.042764
v 0.041219 0.365927 -0.023233
v 0.041219 0.352499 -0.081094
v -0.001505 0.362997 -0.052530
v -0.001505 0.365439 -0.097451
v -0.044230 0.352499 -0.081094
v 0.042684 0.067587 -0.001992
v -0.001505 0.064901 0.012656
v -0.001505 0.024374 0.000937
v -0.045695 0.067587 -0.001992
v -0.039835 0.025351 -0.012979
v -0.051798 0.260946 -0.080606
v -0.053263 0.215780 -0.080117
v -0.051310 0.250448 -0.005899
v -0.053263 0.201620 -0.006143
v 0.048788 0.260946 -0.080606
v 0.048300 0.250448 -0.005899
v 0.050253 0.215780 -0.080117
v 0.050253 0.201620 -0.006143
v -0.023478 0.176962 -0.055703
v -0.022989 0.168661 -0.030557
v -0.067179 0.136923 -0.063516
v -0.067667 0.132773 -0.047647
v -0.048380 0.184286 -0.026162
v -0.081339 0.144247 -0.043252
v -0.022989 0.168661 -0.030557
v -0.067667 0.132773 -0.047647
v -0.038614 0.025351 -0.072549
v -0.053019 0.067587 -0.042764
v -0.045695 0.067587 -0.083779
v -0.052042 0.130331 -0.079629
v -0.052042 0.130331 -0.079629
v -0.053019 0.067587 -0.042764
v -0.052042 0.130331 -0.006143
v -0.045695 0.067587 -0.001992
v 0.021444 0.170858 -0.057656
v 0.047323 0.188192 -0.053506
v 0.069296 0.135702 -0.063760
v 0.081259 0.148886 -0.059121
v 0.042684 0.067587 -0.083779
v -0.001505 0.024374 -0.083291
v -0.001505 0.064901 -0.098428
v -0.045695 0.067587 -0.083779
v -0.045695 0.067587 -0.083779
v -0.001505 0.024374 -0.083291
v -0.038614 0.025351 -0.072549
v -0.018107 0.012655 -0.042764
v 0.044393 0.180624 -0.027383
v 0.081991 0.144491 -0.043252
v 0.047323 0.188192 -0.053506
v 0.081259 0.148886 -0.059121
v 0.041219 0.365927 -0.023233
v -0.001505 0.362997 -0.052530
v -0.001505 0.393026 -0.010537
v -0.044230 0.365927 -0.023233
v 0.049032 0.130331 -0.006143
v 0.042684 0.067587 -0.001992
v 0.050009 0.067587 -0.042764
v 0.036825 0.025351 -0.012979
v 0.042684 0.067587 -0.001992
v -0.001505 0.024374 0.000937
v 0.036825 0.025351 -0.012979
v 0.015096 0.012655 -0.042764
v 0.015096 0.012655 -0.042764
v -0.001505 0.024374 0.000937
v -0.018107 0.012655 -0.042764
v -0.039835 0.025351 -0.012979
v -0.001505 0.220663 -0.098916
v -0.053263 0.215780 -0.080117
v -0.051798 0.260946 -0.080606
v -0.001505 0.264120 -0.099893
v -0.001505 0.130331 -0.098428
v -0.001505 0.064901 -0.098428
v -0.045695 0.067587 -0.083779
v -0.052042 0.130331 -0.079629
v -0.062540 0.094931 -0.007852
v -0.062784 0.079062 -0.032754
v -0.091837 0.079062 -0.032754
v -0.092081 0.094931 -0.008340
v 0.069052 0.094931 -0.007852
v 0.098348 0.095907 -0.008828
v 0.098348 0.080038 -0.033242
v 0.069296 0.079062 -0.032754
v -0.051310 0.191611 -0.052530
v -0.081339 0.144247 -0.043252
v -0.048380 0.184286 -0.026162
v -0.044230 0.352499 -0.081094
v -0.044230 0.365927 -0.023233
v -0.001505 0.362997 -0.052530
v 0.044393 0.180624 -0.027383
v 0.020956 0.162558 -0.032266
v 0.081991 0.144491 -0.043252
v -0.053019 0.067587 -0.042764
v -0.039835 0.025351 -0.012979
v -0.045695 0.067587 -0.001992
v -0.053263 0.201620 -0.006143
v -0.001505 0.198202 0.012656
v -0.051310 0.250448 -0.005899
v 0.062216 0.152548 0.033652
v 0.050985 0.210409 0.034629
v -0.001505 0.152548 0.053183
v -0.001505 0.234579 0.035361
v -0.053995 0.210409 0.034629
v 0.183553 0.174765 -0.386758
v 0.129354 0.043905 -0.386758
v -0.001505 0.174765 -0.386758
v -0.001505 -0.010294 -0.386758
v -0.001505 -0.010294 -0.386758
v -0.132365 0.043905 -0.386758
v -0.001505 0.174765 -0.386758
v -0.186564 0.174765 -0.386758
v -0.132365 0.305624 -0.386758
v -0.001505 0.360067 -0.386758
v -0.001505 0.174765 -0.386758
v 0.129354 0.305624 -0.386758
v 0.183553 0.174765 -0.385537
v -0.001505 0.174765 -0.385537
v 0.129354 0.043905 -0.385537
v -0.001505 -0.010294 -0.385537
v -0.001505 -0.010294 -0.385537
v -0.001505 0.174765 -0.385537
v -0.132365 0.043905 -0.385537
v -0.186564 0.174765 -0.385537
v -0.132365 0.305624 -0.385537
v -0.001505 0.174765 -0.385537
v -0.001505 0.360067 -0.385537
v 0.129354 0.305624 -0.385537
v -0.053995 0.210409 0.034629
v -0.065226 0.152548 0.033652
v -0.001505 0.152548 0.053183
v 0.183553 0.174765 -0.386758
v -0.001505 0.174765 -0.386758
v 0.129354 0.305624 -0.386758
v -0.132365 0.305624 -0.386758
v -0.001505 0.174765 -0.386758
v -0.186564 0.174765 -0.386758
v 0.129354 0.305624 -0.385537
v -0.001505 0.174765 -0.385537
v 0.183553 0.174765 -0.385537
v -0.186564 0.174765 -0.385537
v -0.001505 0.174765 -0.385537
v -0.132365 0.305624 -0.385537
v 0.018270 0.160360 -0.254190
v 0.015096 0.194784 -0.248574
v 0.038046 0.160360 -0.219766
v 0.031454 0.194784 -0.219766
v 0.018270 0.160360 -0.185586
v 0.015096 0.194784 -0.191201
v -0.021281 0.160360 -0.185586
v -0.018107 0.194784 -0.191201
v -0.041056 0.160360 -0.219766
v -0.034464 0.194784 -0.219766
v -0.021281 0.160360 -0.254190
v -0.018107 0.194784 -0.248574
v 0.018270 0.160360 -0.254190
v 0.015096 0.194784 -0.248574
v 0.056112 0.098349 0.087851
v 0.063436 0.100790 0.165000
v 0.082968 0.081015 0.086631
v 0.086141 0.086142 0.164023
v 0.083212 0.046103 0.089316
v 0.086141 0.056601 0.166221
v 0.056600 0.028524 0.093223
v 0.063925 0.041952 0.169638
v 0.029989 0.046103 0.094443
v 0.041464 0.056601 0.170615
v 0.029745 0.081015 0.091758
v 0.041219 0.086142 0.168418
v 0.056112 0.098349 0.087851
v 0.063436 0.100790 0.165000
v -0.066447 0.100790 0.165000
v -0.059122 0.098349 0.087851
v -0.089152 0.086142 0.164023
v -0.085978 0.081015 0.086631
v -0.089152 0.056601 0.166221
v -0.086222 0.046103 0.089316
v -0.066935 0.041952 0.169638
v -0.059611 0.028524 0.093223
v -0.044474 0.056601 0.170615
v -0.032999 0.046103 0.094443
v -0.044230 0.086142 0.168418
v -0.032755 0.081015 0.091758
v -0.066447 0.100790 0.165000
v -0.059122 0.098349 0.087851
v 0.007528 -0.032022 0.148154
v -0.010538 -0.032022 0.148154
v 0.007528 -0.011026 0.184775
v -0.010538 -0.011026 0.184775
v 0.007528 -0.032022 0.221885
v -0.010538 -0.032022 0.221885
v 0.007528 -0.074015 0.221885
v -0.010538 -0.074015 0.221885
v 0.007528 -0.095255 0.184775
v -0.010538 -0.095255 0.184775
v 0.007528 -0.074015 0.148154
v -0.010538 -0.074015 0.148154
v 0.007528 -0.032022 0.148154
v -0.010538 -0.032022 0.148154
v 0.509725 -0.017374 -0.206826
v 0.487264 -0.017374 -0.206826
v 0.509725 0.008749 -0.161416
v 0.487264 0.008749 -0.161416
v 0.509725 -0.017374 -0.115762
v 0.487264 -0.017374 -0.115762
v 0.509725 -0.069864 -0.115762
v 0.487264 -0.069864 -0.115762
v 0.509725 -0.095987 -0.161416
v 0.487264 -0.095987 -0.161416
v 0.509725 -0.069864 -0.206826
v 0.487264 -0.069864 -0.206826
v 0.509725 -0.017374 -0.206826
v 0.487264 -0.017374 -0.206826
v -0.512736 0.008749 -0.161416
v -0.490275 0.008749 -0.161416
v -0.512736 -0.017374 -0.206826
v -0.490275 -0.017374 -0.206826
v -0.512736 -0.069864 -0.206826
v -0.490275 -0.069864 -0.206826
v -0.512736 -0.095987 -0.161416
v -0.490275 -0.095987 -0.161416
v -0.512736 -0.069864 -0.115762
v -0.490275 -0.069864 -0.115762
v -0.512736 -0.017374 -0.115762
v -0.490275 -0.017374 -0.115762
v -0.512736 0.008749 -0.161416
v -0.490275 0.008749 -0.161416
v 0.004843 -0.038126 0.086631
v -0.007853 -0.038126 0.086631
v 0.004843 -0.023233 0.112510
v -0.007853 -0.023233 0.112510
v 0.004843 -0.038126 0.138388
v -0.007853 -0.038126 0.138388
v 0.004843 -0.067911 0.138388
v -0.007853 -0.067911 0.138388
v 0.004843 -0.083048 0.112510
v -0.007853 -0.083048 0.112510
v 0.004843 -0.067911 0.086631
v -0.007853 -0.067911 0.086631
v 0.004843 -0.038126 0.086631
v -0.007853 -0.038126 0.086631
v -0.125773 0.101034 -0.170938
v -0.120890 0.101034 -0.170938
v -0.125773 0.071493 -0.207315
v -0.120890 0.071493 -0.207315
v -0.125773 0.042441 -0.208535
v -0.120890 0.042441 -0.208535
v -0.125773 0.012167 -0.206338
v -0.120890 0.012167 -0.206338
v -0.125773 -0.009317 -0.168496
v -0.120890 -0.009317 -0.168496
v 0.121786 0.082480 -0.171182
v 0.116903 0.082480 -0.171182
v 0.121786 0.068075 -0.202432
v 0.116903 0.068075 -0.202432
v 0.121786 0.042441 -0.205362
v 0.116903 0.042441 -0.205362
v 0.121786 0.016073 -0.202676
v 0.116903 0.016073 -0.202676
v 0.121786 0.009970 -0.169229
v 0.116903 0.009970 -0.169229
v -0.120890 0.082480 -0.171182
v -0.125773 0.082480 -0.171182
v -0.120890 0.068075 -0.202432
v -0.125773 0.068075 -0.202432
v -0.120890 0.042441 -0.205362
v -0.125773 0.042441 -0.205362
v -0.120890 0.016073 -0.202676
v -0.125773 0.016073 -0.202676
v -0.120890 0.009970 -0.169229
v -0.125773 0.009970 -0.169229
v 0.116903 0.101034 -0.170938
v 0.121786 0.101034 -0.170938
v 0.116903 0.071493 -0.207315
v 0.121786 0.071493 -0.207315
v 0.116903 0.042441 -0.208535
v 0.121786 0.042441 -0.208535
v 0.116903 0.012167 -0.206338
v 0.121786 0.012167 -0.206338
v 0.116903 -0.009317 -0.168496
v 0.121786 -0.009317 -0.168496
v 0.117391 0.042441 -0.125772
v 0.117391 0.327597 -0.125772
v 0.117391 0.030966 -0.142862
v 0.117391 0.327597 -0.142862
v -0.001505 0.030966 -0.142862
v -0.001505 0.357870 -0.142862
v -0.120402 0.030966 -0.142862
v -0.120402 0.327597 -0.142862
v -0.120402 0.042441 -0.125772
v -0.120402 0.327597 -0.125772
v 0.410604 -0.038614 -0.161416
v 0.410604 -0.050821 -0.161416
v -0.001505 -0.038858 -0.128457
v -0.001505 -0.050821 -0.129678
v -0.413615 -0.038614 -0.161416
v -0.413615 -0.050821 -0.161416
v -0.001505 -0.038614 -0.192910
v -0.001505 -0.050821 -0.192910
v 0.410604 -0.038614 -0.161416
v 0.410604 -0.050821 -0.161416
v 0.499227 -0.050821 -0.161416
v 0.499227 -0.038614 -0.161416
v -0.001505 -0.050821 -0.044961
v -0.001505 -0.038614 -0.044961
v -0.502238 -0.050821 -0.161416
v -0.502238 -0.038614 -0.161416
v -0.001505 -0.050821 -0.277627
v -0.001505 -0.038614 -0.277627
v 0.499227 -0.050821 -0.161416
v 0.499227 -0.038614 -0.161416
v 0.027548 -0.012247 0.213340
v 0.027548 -0.012247 0.170371
v 0.014608 0.029989 0.213340
v 0.014608 0.029989 0.170371
v 0.003134 0.039267 0.213340
v 0.003134 0.039267 0.170371
v -0.011027 0.029989 0.213340
v -0.011027 0.029989 0.170371
v 0.004598 0.176474 -0.301553
v -0.001505 0.171591 -0.301553
v 0.004598 0.176474 -0.408975
v -0.001505 0.171591 -0.408975
v -0.001505 0.181357 -0.408975
v -0.007609 0.176474 -0.408975
v -0.001505 0.181357 -0.301553
v -0.007609 0.176474 -0.301553
v -0.021281 0.475790 -0.185586
v -0.021281 0.528036 -0.185586
v -0.041056 0.475790 -0.219766
v -0.041056 0.528036 -0.219766
v -0.021281 0.475790 -0.254190
v -0.021281 0.528036 -0.254190
v 0.018270 0.475790 -0.254190
v 0.018270 0.528036 -0.254190
v -0.059122 0.160360 -0.327676
v -0.059122 0.160360 -0.245889
v -0.028605 0.202841 -0.327676
v -0.028605 0.202841 -0.245889
v -0.001261 0.212118 -0.327676
v -0.001261 0.212118 -0.245889
v 0.032186 0.202841 -0.327676
v 0.032186 0.202841 -0.245889
v 0.117391 0.042441 -0.125772
v -0.001505 0.042441 -0.125772
v 0.117391 0.029989 -0.114053
v -0.001505 0.029989 -0.114053
v 0.116415 0.024618 -0.003213
v -0.001505 0.025595 0.008750
v 0.062948 0.165487 0.030234
v -0.001505 0.165487 0.030234
v -0.001505 0.042441 -0.125772
v -0.120402 0.042441 -0.125772
v -0.001505 0.029989 -0.114053
v -0.120402 0.029989 -0.114053
v -0.001505 0.025595 0.008750
v -0.119425 0.024618 -0.003213
v -0.001505 0.165487 0.030234
v -0.065958 0.165487 0.030234
v -0.001505 0.357870 -0.142862
v -0.001505 0.357870 -0.125772
v -0.001505 0.030966 -0.142862
v -0.001505 0.042441 -0.125772
v -0.001505 0.357870 -0.142862
v -0.001505 0.357870 -0.125772
v -0.120402 0.327597 -0.142862
v -0.120402 0.327597 -0.125772
v 0.103475 -0.039347 0.185508
v -0.001505 -0.039347 0.185508
v 0.117391 -0.039347 0.091269
v -0.001505 -0.039347 0.091269
v 0.117391 -0.039347 -0.003213
v -0.001505 -0.039347 -0.003213
v 0.117391 -0.039347 -0.125772
v -0.001505 -0.038858 -0.128457
v -0.001505 -0.039347 0.185508
v -0.106486 -0.039347 0.185508
v -0.001505 -0.039347 0.091269
v -0.120402 -0.039347 0.091269
v -0.001505 -0.039347 -0.003213
v -0.120402 -0.039347 -0.003213
v -0.001505 -0.038858 -0.128457
v -0.120402 -0.039347 -0.125772
v -0.044474 0.056601 0.170615
v -0.044230 0.086142 0.168418
v -0.066935 0.041952 0.169638
v -0.066447 0.100790 0.165000
v -0.089152 0.056601 0.166221
v -0.089152 0.086142 0.164023
v 0.067098 -0.002970 0.185508
v 0.062948 0.121786 0.140586
v -0.001505 -0.000040 0.185508
v -0.001505 0.121786 0.140586
v -0.070109 -0.002970 0.185508
v -0.065958 0.121786 0.140586
v 0.015096 0.194784 -0.248574
v -0.018107 0.194784 -0.248574
v 0.031454 0.194784 -0.219766
v -0.034464 0.194784 -0.219766
v 0.015096 0.194784 -0.191201
v -0.018107 0.194784 -0.191201
v 0.004843 -0.067911 0.086631
v 0.004843 -0.038126 0.086631
v 0.004843 -0.083048 0.112510
v 0.004843 -0.023233 0.112510
v 0.004843 -0.067911 0.138388
v 0.004843 -0.038126 0.138388
v 0.027548 -0.012247 0.213340
v 0.014608 0.029989 0.213340
v 0.003134 -0.012247 0.213340
v 0.003134 0.039267 0.213340
v -0.023722 -0.012247 0.213340
v -0.011027 0.029989 0.213340
v -0.490275 -0.069864 -0.206826
v -0.490275 -0.017374 -0.206826
v -0.490275 -0.095987 -0.161416
v -0.490275 0.008749 -0.161416
v -0.490275 -0.069864 -0.115762
v -0.490275 -0.017374 -0.115762
v 0.041219 0.086142 0.168418
v 0.041464 0.056601 0.170615
v 0.063436 0.100790 0.165000
v 0.063925 0.041952 0.169638
v 0.086141 0.086142 0.164023
v 0.086141 0.056601 0.166221
v -0.010538 -0.032022 0.148154
v -0.010538 -0.074015 0.148154
v -0.010538 -0.011026 0.184775
v -0.010538 -0.095255 0.184775
v -0.010538 -0.032022 0.221885
v -0.010538 -0.074015 0.221885
v 0.117391 -0.039347 -0.142862
v 0.117391 -0.039347 -0.125772
v -0.001505 -0.039347 -0.142862
v -0.001505 -0.038858 -0.128457
v -0.120402 -0.039347 -0.142862
v -0.120402 -0.039347 -0.125772
v -0.512736 -0.017374 -0.206826
v -0.512736 -0.069864 -0.206826
v -0.512736 0.008749 -0.161416
v -0.512736 -0.095987 -0.161416
v -0.512736 -0.017374 -0.115762
v -0.512736 -0.069864 -0.115762
v -0.001505 -0.038858 -0.128457
v -0.001505 0.042441 -0.125772
v -0.001505 -0.039347 -0.142862
v -0.001505 0.030966 -0.142862
v -0.001505 -0.038858 -0.128457
v -0.001505 0.042441 -0.125772
v 0.103475 -0.039347 0.185508
v 0.066610 -0.039347 0.267051
v -0.001505 -0.039347 0.185508
v -0.001505 -0.039347 0.279258
v -0.106486 -0.039347 0.185508
v -0.069620 -0.039347 0.267051
v 0.062948 0.121786 0.140586
v 0.062948 0.165487 0.030234
v -0.001505 0.121786 0.140586
v -0.001505 0.165487 0.030234
v -0.065958 0.121786 0.140586
v -0.065958 0.165487 0.030234
v 0.116903 -0.039835 -0.330850
v -0.119913 -0.039835 -0.330850
v 0.116903 -0.027140 -0.340860
v -0.119913 -0.027140 -0.340860
v 0.116903 -0.009806 -0.343789
v -0.119913 -0.009806 -0.343789
v 0.117391 0.327597 -0.125772
v 0.117391 0.042441 -0.125772
v -0.001505 0.357870 -0.125772
v -0.001505 0.042441 -0.125772
v -0.120402 0.327597 -0.125772
v -0.120402 0.042441 -0.125772
v -0.028605 0.202841 -0.245889
v -0.059122 0.160360 -0.245889
v -0.001261 0.212118 -0.245889
v -0.001261 0.160360 -0.245889
v 0.032186 0.202841 -0.245889
v 0.062704 0.160360 -0.245889
v 0.032186 0.202841 -0.327676
v 0.062704 0.160360 -0.327676
v -0.001261 0.212118 -0.327676
v -0.001261 0.160360 -0.327676
v -0.028605 0.202841 -0.327676
v -0.059122 0.160360 -0.327676
v 0.018270 0.528036 -0.254190
v -0.021281 0.528036 -0.254190
v 0.038046 0.528036 -0.219766
v -0.041056 0.528036 -0.219766
v 0.018270 0.528036 -0.185586
v -0.021281 0.528036 -0.185586
v 0.088827 0.167196 -0.346475
v 0.088827 0.167196 -0.179483
v 0.112020 0.083944 -0.346475
v 0.112020 0.083944 -0.179483
v 0.088827 -0.009317 -0.327432
v 0.088827 -0.009317 -0.179483
v 0.088827 -0.009317 -0.327432
v -0.085001 -0.009317 -0.327432
v 0.112020 0.083944 -0.346475
v -0.108195 0.083944 -0.346475
v 0.088827 0.167196 -0.346475
v -0.085001 0.167196 -0.346475
v 0.116903 0.068075 -0.202432
v 0.116903 0.071493 -0.207315
v 0.116903 0.042441 -0.205362
v 0.116903 0.042441 -0.208535
v 0.116903 0.016073 -0.202676
v 0.116903 0.012167 -0.206338
v 0.121786 0.071493 -0.207315
v 0.121786 0.068075 -0.202432
v 0.121786 0.042441 -0.208535
v 0.121786 0.042441 -0.205362
v 0.121786 0.012167 -0.206338
v 0.121786 0.016073 -0.202676
v -0.021281 0.475790 -0.254190
v 0.018270 0.475790 -0.254190
v -0.041056 0.475790 -0.219766
v 0.038046 0.475790 -0.219766
v -0.021281 0.475790 -0.185586
v 0.018270 0.475790 -0.185586
v -0.125773 0.068075 -0.202432
v -0.125773 0.071493 -0.207315
v -0.125773 0.042441 -0.205362
v -0.125773 0.042441 -0.208535
v -0.125773 0.016073 -0.202676
v -0.125773 0.012167 -0.206338
v 0.038046 0.475790 -0.219766
v 0.038046 0.528036 -0.219766
v 0.018270 0.475790 -0.185586
v 0.018270 0.528036 -0.185586
v -0.021281 0.475790 -0.185586
v -0.021281 0.528036 -0.185586
v -0.120890 0.071493 -0.207315
v -0.120890 0.068075 -0.202432
v -0.120890 0.042441 -0.208535
v -0.120890 0.042441 -0.205362
v -0.120890 0.012167 -0.206338
v -0.120890 0.016073 -0.202676
v 0.007528 -0.074015 0.148154
v 0.007528 -0.032022 0.148154
v 0.007528 -0.095255 0.184775
v 0.007528 -0.011026 0.184775
v 0.007528 -0.074015 0.221885
v 0.007528 -0.032022 0.221885
v 0.410604 -0.050821 -0.161416
v 0.499227 -0.050821 -0.161416
v -0.001505 -0.050821 -0.129678
v -0.001505 -0.050821 -0.044961
v -0.413615 -0.050821 -0.161416
v -0.502238 -0.050821 -0.161416
v 0.499227 -0.038614 -0.161416
v 0.410604 -0.038614 -0.161416
v -0.001505 -0.038614 -0.044961
v -0.001505 -0.038858 -0.128457
v -0.502238 -0.038614 -0.161416
v -0.413615 -0.038614 -0.161416
v 0.410604 -0.038614 -0.161416
v 0.499227 -0.038614 -0.161416
v -0.001505 -0.038614 -0.192910
v -0.001505 -0.038614 -0.277627
v -0.413615 -0.038614 -0.161416
v -0.502238 -0.038614 -0.161416
v -0.007853 -0.038126 0.086631
v -0.007853 -0.067911 0.086631
v -0.007853 -0.023233 0.112510
v -0.007853 -0.083048 0.112510
v -0.007853 -0.038126 0.138388
v -0.007853 -0.067911 0.138388
v -0.001505 -0.039347 0.279258
v 0.066610 -0.039347 0.267051
v -0.001505 -0.007608 0.255576
v 0.066610 -0.007608 0.245566
v -0.001505 -0.000040 0.185508
v 0.067098 -0.002970 0.185508
v -0.069620 -0.039347 0.267051
v -0.001505 -0.039347 0.279258
v -0.069620 -0.007608 0.245566
v -0.001505 -0.007608 0.255576
v -0.070109 -0.002970 0.185508
v -0.001505 -0.000040 0.185508
v 0.499227 -0.050821 -0.161416
v 0.410604 -0.050821 -0.161416
v -0.001505 -0.050821 -0.277627
v -0.001505 -0.050821 -0.192910
v -0.502238 -0.050821 -0.161416
v -0.413615 -0.050821 -0.161416
v -0.006876 0.325399 -0.525674
v -0.006876 0.251913 -0.524453
v -0.006876 0.331015 -0.451455
v -0.006876 0.251913 -0.465615
v -0.006876 0.325399 -0.391885
v -0.006876 0.251913 -0.405557
v 0.003866 0.325399 -0.391885
v 0.003866 0.251913 -0.405557
v 0.003866 0.331015 -0.451455
v 0.003866 0.251913 -0.465615
v 0.003866 0.325399 -0.525674
v 0.003866 0.251913 -0.524453
v 0.487264 -0.017374 -0.206826
v 0.487264 -0.069864 -0.206826
v 0.487264 0.008749 -0.161416
v 0.487264 -0.095987 -0.161416
v 0.487264 -0.017374 -0.115762
v 0.487264 -0.069864 -0.115762
v 0.509725 -0.069864 -0.206826
v 0.509725 -0.017374 -0.206826
v 0.509725 -0.095987 -0.161416
v 0.509725 0.008749 -0.161416
v 0.509725 -0.069864 -0.115762
v 0.509725 -0.017374 -0.115762
v -0.026896 0.524130 -0.239541
v -0.001505 0.582968 -0.219033
v 0.023886 0.524130 -0.239541
v -0.001505 0.524130 -0.195596
v 0.062948 0.121786 0.140586
v 0.112264 0.053915 0.091269
v 0.062948 0.165487 0.030234
v 0.116415 0.024618 -0.003213
v -0.119425 0.024618 -0.003213
v -0.115275 0.053915 0.091269
v -0.065958 0.165487 0.030234
v -0.065958 0.121786 0.140586
v -0.119425 0.024618 -0.003213
v -0.120402 0.029989 -0.114053
v -0.120402 -0.039347 -0.125772
v -0.120402 -0.039347 -0.003213
v -0.106486 -0.039347 0.185508
v -0.070109 -0.002970 0.185508
v -0.115275 0.053915 0.091269
v -0.120402 -0.039347 0.091269
v -0.125773 0.071493 -0.207315
v -0.125773 0.068075 -0.202432
v -0.125773 0.082480 -0.171182
v -0.125773 0.101034 -0.170938
v -0.120890 0.068075 -0.202432
v -0.120890 0.071493 -0.207315
v -0.120890 0.101034 -0.170938
v -0.120890 0.082480 -0.171182
v -0.125773 -0.009317 -0.168496
v -0.125773 0.009970 -0.169229
v -0.125773 0.016073 -0.202676
v -0.125773 0.012167 -0.206338
v -0.120890 0.009970 -0.169229
v -0.120890 -0.009317 -0.168496
v -0.120890 0.012167 -0.206338
v -0.120890 0.016073 -0.202676
v -0.012003 0.011435 0.280234
v 0.003134 -0.002970 0.280234
v 0.018514 0.011435 0.280234
v 0.003134 0.026083 0.280234
v 0.003134 -0.002970 0.280234
v 0.003134 -0.002970 0.201133
v 0.018514 0.011435 0.201133
v 0.018514 0.011435 0.280234
v 0.116903 0.117148 -0.362832
v -0.119913 0.117148 -0.362832
v -0.119913 -0.009806 -0.334756
v 0.116903 -0.009806 -0.335000
v -0.119913 0.117148 -0.368692
v 0.116903 0.117148 -0.368692
v 0.116903 -0.009806 -0.343789
v -0.119913 -0.009806 -0.343789
v -0.119913 -0.009806 -0.343789
v -0.119913 -0.009806 -0.334756
v -0.119913 0.117148 -0.362832
v -0.119913 0.117148 -0.368692
v -0.012003 0.011435 0.201133
v -0.012003 0.011435 0.280234
v 0.003134 0.026083 0.280234
v 0.003134 0.026083 0.201133
v -0.119913 -0.009806 -0.161904
v -0.119913 -0.009806 -0.334756
v -0.119913 -0.039835 -0.330850
v -0.119913 -0.039835 -0.161904
v 0.116903 -0.009806 -0.343789
v 0.116903 0.117148 -0.368692
v 0.116903 0.117148 -0.362832
v 0.116903 -0.009806 -0.335000
v 0.003134 -0.002970 0.280234
v -0.012003 0.011435 0.280234
v -0.012003 0.011435 0.201133
v 0.003134 -0.002970 0.201133
v -0.119913 -0.009806 -0.161904
v 0.116903 -0.009806 -0.161904
v 0.116903 -0.009806 -0.335000
v -0.119913 -0.009806 -0.334756
v 0.038046 0.475790 -0.219766
v 0.018270 0.475790 -0.254190
v 0.018270 0.528036 -0.254190
v 0.038046 0.528036 -0.219766
v 0.116903 -0.009806 -0.161904
v 0.116903 -0.039835 -0.161904
v 0.116903 -0.039835 -0.330850
v 0.116903 -0.009806 -0.335000
v 0.116903 0.117148 -0.362832
v 0.116903 0.117148 -0.368692
v -0.119913 0.117148 -0.368692
v -0.119913 0.117148 -0.362832
v 0.116903 -0.039835 -0.330850
v 0.116903 -0.039835 -0.161904
v -0.119913 -0.039835 -0.161904
v -0.119913 -0.039835 -0.330850
v 0.018514 0.011435 0.201133
v 0.003134 0.026083 0.201133
v 0.003134 0.026083 0.280234
v 0.018514 0.011435 0.280234
v -0.001505 0.171591 -0.408975
v -0.001505 0.171591 -0.301553
v -0.007609 0.176474 -0.301553
v -0.007609 0.176474 -0.408975
v 0.004598 0.176474 -0.301553
v 0.004598 0.176474 -0.408975
v -0.001505 0.181357 -0.408975
v -0.001505 0.181357 -0.301553
v -0.001505 0.160849 -0.244180
v -0.022989 0.160849 -0.231973
v -0.022989 0.497763 -0.231973
v -0.001505 0.497763 -0.244180
v 0.019979 0.160849 -0.231973
v -0.001505 0.160849 -0.244180
v -0.001505 0.497763 -0.244180
v 0.019979 0.497763 -0.231973
v 0.019979 0.160849 -0.207071
v 0.019979 0.160849 -0.231973
v 0.019979 0.497763 -0.231973
v 0.019979 0.497763 -0.207071
v 0.062704 0.160360 -0.327676
v 0.032186 0.202841 -0.327676
v 0.032186 0.202841 -0.245889
v 0.062704 0.160360 -0.245889
v -0.001505 0.160849 -0.194863
v 0.019979 0.160849 -0.207071
v 0.019979 0.497763 -0.207071
v -0.001505 0.497763 -0.194864
v 0.129110 0.113974 -0.206094
v 0.129110 0.113974 -0.321817
v 0.129110 0.151571 -0.321817
v 0.129110 0.151571 -0.206094
v 0.085653 0.073202 -0.337930
v 0.129110 0.113974 -0.321817
v 0.129110 0.113974 -0.206094
v 0.085653 0.073202 -0.189981
v 0.085653 0.159140 -0.337930
v 0.129110 0.151571 -0.321817
v 0.129110 0.113974 -0.321817
v 0.085653 0.073202 -0.337930
v 0.085653 0.159140 -0.189981
v 0.129110 0.151571 -0.206094
v 0.129110 0.151571 -0.321817
v 0.085653 0.159140 -0.337930
v 0.085653 0.073202 -0.189981
v 0.129110 0.113974 -0.206094
v 0.129110 0.151571 -0.206094
v 0.085653 0.159140 -0.189981
v -0.022989 0.160849 -0.207071
v -0.001505 0.160849 -0.194863
v -0.001505 0.497763 -0.194864
v -0.022989 0.497763 -0.207071
v -0.022989 0.160849 -0.231973
v -0.022989 0.160849 -0.207071
v -0.022989 0.497763 -0.207071
v -0.022989 0.497763 -0.231973
v -0.085001 -0.009317 -0.327432
v -0.085001 -0.009317 -0.179483
v -0.108195 0.083944 -0.179483
v -0.108195 0.083944 -0.346475
v -0.085001 0.167196 -0.179483
v 0.088827 0.167196 -0.179483
v 0.088827 0.167196 -0.346475
v -0.085001 0.167196 -0.346475
v -0.006876 0.251913 -0.405557
v -0.006876 0.251913 -0.465615
v -0.006876 0.166464 -0.451455
v -0.006876 0.166464 -0.394815
v 0.003866 0.251913 -0.524453
v 0.003866 0.251913 -0.465615
v 0.003866 0.166464 -0.451455
v 0.003866 0.166464 -0.494912
v -0.006876 0.251913 -0.524453
v 0.003866 0.251913 -0.524453
v 0.003866 0.166464 -0.494912
v -0.006876 0.166464 -0.494912
v 0.116903 0.071493 -0.207315
v 0.116903 0.068075 -0.202432
v 0.116903 0.082480 -0.171182
v 0.116903 0.101034 -0.170938
v 0.121786 0.068075 -0.202432
v 0.121786 0.071493 -0.207315
v 0.121786 0.101034 -0.170938
v 0.121786 0.082480 -0.171182
v -0.006876 0.251913 -0.405557
v 0.003866 0.251913 -0.405557
v 0.003866 0.325399 -0.391885
v -0.006876 0.325399 -0.391885
v 0.116903 -0.009317 -0.168496
v 0.116903 0.009970 -0.169229
v 0.116903 0.016073 -0.202676
v 0.116903 0.012167 -0.206338
v 0.121786 0.009970 -0.169229
v 0.121786 -0.009317 -0.168496
v 0.121786 0.012167 -0.206338
v 0.121786 0.016073 -0.202676
v -0.128702 -0.039102 -0.176797
v -0.128702 0.201620 -0.176797
v 0.125692 0.201620 -0.176797
v 0.125692 -0.039102 -0.176797
v -0.128702 -0.039102 -0.176797
v -0.128702 -0.039591 -0.142862
v -0.128702 0.225546 -0.142862
v -0.128702 0.201620 -0.176797
v 0.125692 -0.039591 -0.142862
v 0.125692 -0.039102 -0.176797
v 0.125692 0.201620 -0.176797
v 0.125692 0.225546 -0.142862
v -0.128702 -0.039102 -0.176797
v 0.125692 -0.039102 -0.176797
v 0.125692 -0.039591 -0.142862
v -0.128702 -0.039591 -0.142862
v -0.128702 0.225546 -0.142862
v 0.125692 0.225546 -0.142862
v 0.125692 0.201620 -0.176797
v -0.128702 0.201620 -0.176797
v -0.006876 0.166464 -0.451455
v 0.003866 0.166464 -0.451455
v 0.003866 0.166464 -0.394815
v -0.006876 0.166464 -0.394815
v -0.125284 0.113974 -0.206094
v -0.125284 0.151571 -0.206094
v -0.125284 0.151571 -0.321817
v -0.125284 0.113974 -0.321817
v -0.081827 0.073202 -0.337930
v -0.081827 0.073202 -0.189981
v -0.125284 0.113974 -0.206094
v -0.125284 0.113974 -0.321817
v -0.081827 0.159140 -0.337930
v -0.081827 0.073202 -0.337930
v -0.125284 0.113974 -0.321817
v -0.125284 0.151571 -0.321817
v -0.081827 0.159140 -0.189981
v -0.081827 0.159140 -0.337930
v -0.125284 0.151571 -0.321817
v -0.125284 0.151571 -0.206094
v -0.081827 0.073202 -0.189981
v -0.081827 0.159140 -0.189981
v -0.125284 0.151571 -0.206094
v -0.125284 0.113974 -0.206094
v -0.108195 0.083944 -0.179483
v -0.085001 0.167196 -0.179483
v -0.085001 0.167196 -0.346475
v -0.108195 0.083944 -0.346475
v -0.006876 0.166464 -0.494912
v -0.006876 0.166464 -0.451455
v -0.006876 0.251913 -0.465615
v -0.006876 0.251913 -0.524453
v 0.003866 0.166464 -0.394815
v 0.003866 0.166464 -0.451455
v 0.003866 0.251913 -0.465615
v 0.003866 0.251913 -0.405557
v -0.006876 0.166464 -0.494912
v 0.003866 0.166464 -0.494912
v 0.003866 0.166464 -0.451455
v -0.006876 0.166464 -0.451455
v -0.006876 0.325399 -0.525674
v 0.003866 0.325399 -0.525674
v 0.003866 0.251913 -0.524453
v -0.006876 0.251913 -0.524453
v 0.117391 0.327597 -0.125772
v -0.001505 0.357870 -0.125772
v -0.001505 0.357870 -0.142862
v 0.117391 0.327597 -0.142862
v -0.006876 0.325399 -0.391885
v 0.003866 0.325399 -0.391885
v 0.003866 0.331015 -0.451455
v -0.006876 0.331015 -0.451455
v -0.006876 0.166464 -0.394815
v 0.003866 0.166464 -0.394815
v 0.003866 0.251913 -0.405557
v -0.006876 0.251913 -0.405557
v -0.023722 -0.012247 0.213340
v -0.011027 0.029989 0.213340
v -0.011027 0.029989 0.170371
v -0.023722 -0.012247 0.170371
v 0.117391 0.042441 -0.125772
v 0.117391 -0.039347 -0.125772
v 0.117391 -0.039347 -0.142862
v 0.117391 0.030966 -0.142862
v -0.006876 0.331015 -0.451455
v 0.003866 0.331015 -0.451455
v 0.003866 0.325399 -0.525674
v -0.006876 0.325399 -0.525674
v 0.103475 -0.039347 0.185508
v 0.067098 -0.002970 0.185508
v 0.066610 -0.007608 0.245566
v 0.066610 -0.039347 0.267051
v -0.128702 -0.039591 -0.142862
v 0.125692 -0.039591 -0.142862
v 0.125692 0.225546 -0.142862
v -0.128702 0.225546 -0.142862
v 0.112264 0.053915 0.091269
v 0.117391 -0.039347 0.091269
v 0.117391 -0.039347 -0.003213
v 0.116415 0.024618 -0.003213
v 0.116415 0.024618 -0.003213
v 0.117391 -0.039347 -0.003213
v 0.117391 -0.039347 -0.125772
v 0.117391 0.029989 -0.114053
v 0.103475 -0.039347 0.185508
v 0.117391 -0.039347 0.091269
v 0.112264 0.053915 0.091269
v 0.067098 -0.002970 0.185508
v -0.120402 0.042441 -0.125772
v -0.120402 0.030966 -0.142862
v -0.120402 -0.039347 -0.142862
v -0.120402 -0.039347 -0.125772
v -0.106486 -0.039347 0.185508
v -0.069620 -0.039347 0.267051
v -0.069620 -0.007608 0.245566
v -0.070109 -0.002970 0.185508
v -0.115275 0.053915 0.091269
v -0.119425 0.024618 -0.003213
v -0.120402 -0.039347 -0.003213
v -0.120402 -0.039347 0.091269
v 0.067098 -0.002970 0.185508
v 0.112264 0.053915 0.091269
v 0.062948 0.121786 0.140586
v -0.026896 0.524130 -0.239541
v -0.001505 0.524130 -0.195596
v -0.001505 0.582968 -0.219033
v -0.119913 -0.027140 -0.340860
v -0.119913 -0.009806 -0.334756
v -0.119913 -0.009806 -0.343789
v 0.116903 -0.039835 -0.330850
v 0.116903 -0.027140 -0.340860
v 0.116903 -0.009806 -0.335000
v -0.119913 -0.039835 -0.330850
v -0.119913 -0.009806 -0.334756
v -0.119913 -0.027140 -0.340860
v 0.116903 -0.009806 -0.335000
v 0.116903 -0.027140 -0.340860
v 0.116903 -0.009806 -0.343789
v 0.117391 0.029989 -0.114053
v 0.117391 -0.039347 -0.125772
v 0.117391 0.042441 -0.125772
v -0.070109 -0.002970 0.185508
v -0.065958 0.121786 0.140586
v -0.115275 0.053915 0.091269
v -0.120402 0.029989 -0.114053
v -0.120402 0.042441 -0.125772
v -0.120402 -0.039347 -0.125772
vn -0.1352 0.9588 0.2500
vn -0.1297 0.9518 0.2780
vn 0.1458 0.9496 0.2773
vn 0.1271 0.9574 0.2594
vn 0.1748 0.9750 0.1373
vn 0.0671 0.9947 0.0779
vn -0.1465 0.9862 0.0773
vn -0.1030 0.9801 0.1699
vn 0.6827 0.7167 -0.1424
vn -0.3107 0.9501 0.0292
vn -0.6827 0.7167 -0.1424
vn 0.3107 0.9501 0.0292
vn 0.3756 0.0821 0.9231
vn -0.3756 0.0822 0.9231
vn 0.1739 -0.3940 -0.9025
vn 0.1448 -0.4115 -0.8998
vn 0.1504 0.3834 0.9112
vn 0.1272 0.3993 0.9079
vn -0.1509 0.3980 0.9049
vn -0.1267 0.3870 0.9133
vn -0.1743 -0.4123 -0.8942
vn -0.1444 -0.3959 -0.9069
vn 0.1260 -0.0552 -0.9905
vn 0.1049 -0.0683 -0.9921
vn 0.1056 0.0354 0.9938
vn 0.0845 0.0518 0.9951
vn -0.1068 0.0517 0.9929
vn -0.0836 0.0389 0.9957
vn -0.1273 -0.0716 -0.9893
vn -0.1042 -0.0554 -0.9930
vn 0.0989 0.0343 -0.9945
vn 0.0645 0.0121 -0.9978
vn 0.0781 -0.0399 0.9961
vn 0.0453 -0.0123 0.9989
vn -0.0801 -0.0122 0.9967
vn -0.0439 -0.0333 0.9985
vn -0.1007 0.0050 -0.9949
vn -0.0631 0.0344 -0.9974
vn 0.0463 0.2693 -0.9619
vn -0.0463 0.2693 -0.9619
vn -0.0776 0.6596 0.7476
vn 0.1555 -0.8453 -0.5111
vn 0.1377 0.1204 0.9831
vn -0.1377 0.1204 0.9831
vn 0.0776 0.6596 0.7476
vn -0.1555 -0.8453 -0.5111
vn 0.3679 0.0903 -0.9255
vn 0.3829 0.1041 -0.9179
vn 0.9956 0.0924 -0.0184
vn 0.9959 0.0879 -0.0204
vn 0.3636 0.2601 0.8945
vn 0.4023 0.2177 0.8893
vn -0.3659 0.2213 0.9040
vn -0.4224 0.2590 0.8686
vn -0.9959 0.0886 -0.0176
vn -0.9955 0.0926 -0.0215
vn -0.3670 0.1031 -0.9245
vn -0.3797 0.0898 -0.9207
vn 0.9999 -0.0143 -0.0000
vn 0.9998 -0.0171 -0.0033
vn 0.3486 -0.0060 0.9372
vn 0.3414 -0.0000 0.9399
vn -0.3486 -0.0000 0.9373
vn -0.3417 -0.0059 0.9398
vn -0.9999 -0.0171 -0.0000
vn -0.9999 -0.0143 -0.0027
vn -0.3486 -0.0103 -0.9372
vn -0.3410 -0.0051 -0.9401
vn 0.9991 0.0405 -0.0080
vn 0.9970 0.0753 0.0171
vn 0.3733 -0.0508 -0.9263
vn 0.3527 -0.0773 -0.9325
vn -0.3735 -0.0766 -0.9244
vn -0.3547 -0.0528 -0.9335
vn -0.9973 0.0726 -0.0144
vn -0.9990 0.0423 0.0125
vn 0.7931 0.6063 -0.0577
vn 0.8488 0.5272 -0.0404
vn 0.1047 0.9888 -0.1067
vn 0.1998 0.9778 -0.0635
vn -0.1074 0.9921 -0.0645
vn -0.1818 0.9778 -0.1039
vn -0.7897 0.6114 -0.0509
vn -0.8460 0.5300 -0.0577
vn 0.6170 -0.7855 0.0491
vn 0.7055 -0.7050 0.0724
vn 0.3005 -0.7690 0.5642
vn 0.2650 -0.6059 0.7501
vn -0.3515 -0.5882 0.7283
vn -0.2062 -0.7450 0.6344
vn -0.7154 -0.6967 0.0527
vn -0.6220 -0.7800 0.0691
vn -0.0011 -0.5405 -0.8414
vn -0.0000 -0.5393 -0.8421
vn 0.9971 0.0592 -0.0475
vn 0.0062 0.5397 0.8418
vn -0.0138 0.5546 0.8320
vn 0.0040 -0.5408 -0.8412
vn 0.0028 -0.5418 -0.8405
vn -0.9996 0.0191 -0.0220
vn -0.9992 0.0226 -0.0342
vn 0.0097 0.5456 0.8380
vn 0.0025 0.5524 0.8336
vn 0.3568 -0.0210 -0.9339
vn 0.3415 0.0009 -0.9399
vn 0.3410 -0.0051 -0.9401
vn 0.3486 -0.0103 -0.9372
vn 0.3486 -0.0000 -0.9373
vn 0.3128 0.0312 -0.9493
vn -0.0683 -0.9970 0.0358
vn 0.0857 -0.9950 -0.0519
vn 0.1091 -0.9927 -0.0518
vn -0.1043 -0.9942 0.0275
vn 0.0649 0.9975 -0.0285
vn -0.0892 0.9916 -0.0936
vn -0.0375 0.9949 -0.0939
vn 0.0553 0.9978 -0.0369
vn -0.9832 -0.1576 0.0926
vn -0.9847 -0.1465 0.0948
vn 0.0589 -0.8381 0.5423
vn 0.0672 -0.8417 0.5357
vn 0.9913 -0.1104 0.0718
vn 0.9915 -0.1100 0.0701
vn -0.0129 -0.8433 0.5374
vn -0.0204 -0.8396 0.5429
vn -0.9459 -0.1065 -0.3065
vn -0.8395 -0.0163 -0.5432
vn -0.9076 0.0126 0.4196
vn -0.8343 -0.1604 0.5274
vn 0.8192 -0.2189 -0.5301
vn 0.9071 -0.0126 -0.4208
vn 0.8451 0.0160 0.5343
vn 0.9527 -0.0933 0.2894
vn -0.3694 0.0947 0.9244
vn -0.4524 0.1595 0.8774
vn 0.3682 0.1663 0.9148
vn 0.4559 0.0948 0.8849
vn 0.3128 0.0312 0.9493
vn 0.3486 -0.0000 0.9373
vn -0.3147 -0.0000 0.9492
vn -0.3485 0.0267 0.9369
vn 0.0666 0.7872 0.6131
vn 0.1199 0.7416 0.6601
vn -0.0825 0.7444 0.6626
vn -0.1224 0.8015 0.5853
vn -0.0345 -0.5802 -0.8137
vn -0.0490 -0.5835 -0.8107
vn -0.9975 -0.0685 -0.0167
vn -0.9976 -0.0678 -0.0144
vn -0.4343 -0.1656 -0.8854
vn -0.0329 -0.1203 -0.9922
vn -0.9568 0.2884 0.0357
vn -0.8680 0.3863 -0.3118
vn 0.9971 -0.0247 0.0718
vn 0.9968 -0.0234 0.0759
vn 0.8268 -0.4511 0.3360
vn 0.9359 -0.3468 -0.0619
vn 0.0607 0.5053 0.8608
vn 0.0291 0.4976 0.8669
vn 0.0160 0.0138 0.9998
vn 0.3726 0.0902 0.9236
vn 0.0375 -0.5754 -0.8170
vn 0.0488 -0.5775 -0.8149
vn 0.0224 -0.1097 -0.9937
vn 0.4643 -0.1122 -0.8786
vn 0.9988 -0.0240 -0.0420
vn 0.9994 -0.0200 -0.0283
vn 0.7879 0.4967 -0.3640
vn 0.9187 0.3895 0.0655
vn -0.0325 0.4985 0.8663
vn -0.0388 0.4964 0.8672
vn -0.0290 0.3717 0.9279
vn -0.2199 -0.1387 0.9656
vn -0.6587 -0.7327 -0.1714
vn -0.9070 -0.3383 0.2510
vn -0.9939 -0.0700 0.0849
vn -0.9938 -0.0594 0.0941
vn 0.2010 -0.9791 0.0301
vn 0.1206 -0.9897 0.0768
vn -0.2302 -0.9702 0.0753
vn -0.0997 -0.9947 0.0249
vn 0.9631 -0.2072 -0.1720
vn 0.9806 -0.0876 -0.1751
vn 0.9999 0.0156 -0.0000
vn -0.5930 -0.7619 -0.2605
vn -0.5691 -0.7996 -0.1916
vn 0.0533 -0.3812 0.9230
vn 0.3409 0.0089 0.9401
vn 0.4539 -0.1191 0.8830
vn -0.4539 -0.1191 0.8830
vn -0.0071 0.1989 -0.9800
vn -0.1172 0.2282 -0.9665
vn -0.8289 0.5478 0.1134
vn 0.2732 -0.2897 -0.9173
vn 0.1173 -0.9401 -0.3199
vn -0.0000 -0.9606 -0.2778
vn 0.0879 0.9703 -0.2252
vn 0.2711 0.9611 0.0522
vn -0.2711 0.9611 0.0522
vn 0.3179 -0.2634 0.9108
vn -0.3179 -0.2634 0.9108
vn -0.3339 -0.2804 0.8999
vn -0.9994 0.0325 0.0111
vn -0.9992 0.0399 0.0076
vn 0.9994 0.0325 0.0111
vn 0.9992 0.0399 0.0076
vn 0.6786 -0.6935 -0.2421
vn 0.6561 -0.7348 -0.1720
vn -0.0555 -0.3529 0.9340
vn -0.0351 -0.3937 0.9186
vn -0.9631 -0.2072 -0.1720
vn -0.9806 -0.0876 -0.1751
vn -0.9999 0.0156 -0.0000
vn -0.9805 -0.0875 0.1761
vn 0.0226 0.2008 -0.9794
vn 0.1139 0.2362 -0.9650
vn 0.3149 -0.3321 -0.8891
vn -0.3149 -0.3321 -0.8891
vn -0.2732 -0.2897 -0.9173
vn -0.1173 -0.9401 -0.3199
vn 0.7240 0.6366 0.2656
vn 0.7592 0.6354 0.1409
vn 0.3245 0.7694 -0.5502
vn -0.3245 0.7694 -0.5502
vn 0.9805 -0.0875 0.1761
vn 0.9682 -0.1796 0.1739
vn 0.3339 -0.2804 0.8999
vn 0.1344 -0.9432 0.3040
vn -0.0000 -0.9659 0.2590
vn -0.1344 -0.9432 0.3040
vn -0.3490 -0.0097 -0.9371
vn -0.3326 0.0141 -0.9430
vn 0.0045 0.8409 -0.5412
vn -0.0417 0.8401 -0.5408
vn -0.7973 0.5529 0.2422
vn -0.0879 0.9703 -0.2252
vn 0.0677 -0.3413 0.9375
vn -0.9682 -0.1796 0.1739
vn -0.3409 0.0089 0.9401
vn 0.2928 0.0407 0.9553
vn 0.1107 0.2110 0.9712
vn -0.1107 0.2110 0.9712
vn -0.0000 -0.0000 -1.0000
vn -0.0000 -0.0000 1.0000
vn -0.2928 0.0407 0.9553
vn 0.8561 0.1591 -0.4918
vn 0.8578 0.1643 -0.4871
vn 0.8539 0.1635 0.4941
vn 0.8567 0.1590 0.4906
vn -0.0000 0.1610 0.9870
vn -0.8545 0.1594 0.4944
vn -0.8560 0.1639 0.4902
vn -0.8554 0.1638 -0.4914
vn -0.8586 0.1587 -0.4875
vn -0.0000 0.1610 -0.9870
vn 0.5382 0.8393 -0.0777
vn 0.5381 0.8393 -0.0777
vn 0.9991 0.0038 -0.0412
vn 0.9993 -0.0028 -0.0377
vn 0.5582 -0.8247 0.0913
vn 0.5579 -0.8248 0.0915
vn -0.5342 -0.8224 0.1957
vn -0.5300 -0.8256 0.1936
vn -0.9889 0.0045 0.1484
vn -0.9890 0.0028 0.1478
vn -0.5465 0.8371 0.0258
vn -0.5475 0.8364 0.0255
vn -0.5381 0.8393 -0.0776
vn -0.5382 0.8393 -0.0777
vn -0.9992 -0.0030 -0.0408
vn -0.9992 0.0040 -0.0386
vn -0.5579 -0.8249 0.0913
vn -0.5582 -0.8247 0.0914
vn 0.5297 -0.8253 0.1958
vn 0.5345 -0.8226 0.1939
vn 0.9889 0.0029 0.1486
vn 0.9890 0.0044 0.1477
vn 0.5475 0.8364 0.0260
vn 0.5465 0.8371 0.0254
vn -0.0000 0.8675 -0.4974
vn -0.0000 0.8703 0.4924
vn -0.0000 -0.8679 0.4968
vn -0.0000 -0.8650 -0.5017
vn -0.0000 0.8668 -0.4986
vn -0.0000 0.8680 0.4966
vn -0.0000 -0.8680 0.4966
vn -0.0000 -0.8668 -0.4986
vn -0.0000 0.8667 -0.4988
vn -0.0000 0.8667 0.4988
vn -0.0000 -0.8632 0.5049
vn -0.0000 -0.8632 -0.5049
vn -0.0000 0.7763 -0.6304
vn -0.0000 0.0420 -0.9991
vn -0.0000 -0.0724 -0.9974
vn -0.0000 -0.8696 -0.4937
vn -0.0000 -0.9082 0.4186
vn -0.0000 -0.1135 0.9935
vn -0.0000 0.1013 0.9949
vn -0.0000 0.9838 0.1795
vn -1.0000 -0.0000 -0.0000
vn 1.0000 -0.0000 -0.0000
vn -0.0797 -0.0000 -0.9968
vn -0.0764 0.1012 -0.9919
vn 0.0794 0.1012 -0.9917
vn 0.0768 -0.0000 -0.9970
vn 0.0762 -0.0000 0.9971
vn -0.0762 -0.0000 0.9971
vn 0.2265 -0.0000 0.9740
vn -0.2265 -0.0000 0.9740
vn -0.2261 -0.0000 -0.9741
vn 0.2261 -0.0000 -0.9741
vn 0.9561 0.2929 -0.0000
vn 0.6287 0.7776 -0.0000
vn -0.5480 0.8365 -0.0000
vn 0.6247 -0.7809 -0.0000
vn -0.6247 0.7809 -0.0000
vn -0.8656 -0.0000 0.5008
vn -0.8671 -0.0000 -0.4981
vn -0.8122 0.5834 -0.0000
vn -0.3213 0.9470 -0.0000
vn 0.2673 0.9636 -0.0000
vn -0.0000 0.6854 0.7282
vn -0.0000 0.9988 0.0484
vn 0.0119 0.9993 0.0358
vn -0.0974 0.1948 -0.9760
vn -0.0000 0.1518 -0.9884
vn -0.0000 0.9994 0.0358
vn -0.0132 0.9987 0.0485
vn 0.0985 0.1511 -0.9836
vn -0.0000 0.2310 -0.9730
vn 0.2467 -0.9691 -0.0000
vn -0.0000 -1.0000 -0.0000
vn -0.0040 -1.0000 -0.0039
vn -0.0000 -1.0000 -0.0039
vn 0.0041 -1.0000 -0.0000
vn -0.0918 0.0746 0.9930
vn -0.1005 0.0790 0.9918
vn -0.0904 0.0739 0.9932
vn 0.0145 0.3392 0.9406
vn -0.0000 0.3460 0.9382
vn -0.0148 0.3459 0.9381
vn -0.0000 0.3388 0.9409
vn -0.0000 1.0000 -0.0000
vn 0.1034 0.0746 0.9918
vn 0.0947 0.0790 0.9924
vn 0.0937 0.0790 0.9925
vn 0.1040 0.0738 0.9918
vn -0.0049 -0.9994 0.0339
vn -0.0000 -0.9994 0.0339
vn -0.0000 0.9297 0.3682
vn -0.0000 -0.6192 -0.7853
vn -0.0000 -0.1666 -0.9860
vn 0.9633 0.2684 -0.0000
vn 0.9704 -0.2413 -0.0000
vn -0.0000 -0.2001 -0.9798
vn 0.8656 -0.0000 0.5008
vn -0.0008 1.0000 -0.0029
vn 0.0007 1.0000 -0.0029
vn -0.0000 1.0000 0.0074
vn 0.1422 0.5919 0.7933
vn 0.1208 0.5565 0.8220
vn 0.0158 0.9941 0.1074
vn 0.0425 0.9961 0.0773
vn -0.1468 0.5545 0.8191
vn -0.1170 0.5939 0.7960
vn -0.0113 0.9970 0.0771
vn -0.0424 0.9933 0.1073
vn -0.0000 0.3291 -0.9443
vn 0.8492 0.1954 0.4906
vn 0.8549 0.4824 0.1910
vn 0.9264 0.3691 -0.0738
vn -0.9264 0.3691 -0.0738
vn -0.8549 0.4824 0.1910
vn -1.0000 0.0069 0.0043
vn -0.8871 0.2840 0.3638
vn 0.6836 -0.7299 -0.0000
vn 0.0005 0.2150 0.9766
vn -0.0000 -0.1925 -0.9813
vn -0.6954 0.7186 -0.0000
vn -0.6894 -0.7244 -0.0000
vn 0.8671 -0.0000 -0.4981
vn 0.6897 0.7241 -0.0000
vn -0.6247 -0.7809 -0.0000
vn 0.6247 0.7809 -0.0000
vn -0.4940 -0.0000 -0.8695
vn 0.4940 -0.0000 -0.8695
vn 0.8122 0.5834 -0.0000
vn 0.4940 -0.0000 0.8695
vn 0.6842 -0.7293 -0.0000
vn 0.3477 -0.0000 -0.9376
vn 0.1716 0.9852 -0.0000
vn 0.3477 -0.0000 0.9376
vn -0.4940 -0.0000 0.8695
vn -0.9704 -0.2413 -0.0000
vn -0.0000 -0.3267 -0.9451
vn -0.0000 -0.1829 0.9831
vn -0.0000 -0.9999 -0.0144
vn -0.0000 0.8173 -0.5762
vn -0.6842 -0.7293 -0.0000
vn -0.3477 -0.0000 -0.9376
vn -0.1716 0.9852 -0.0000
vn -0.3477 -0.0000 0.9376
vn -0.9633 0.2684 -0.0000
vn -0.0000 -0.0166 -0.9999
vn -0.2467 -0.9691 -0.0000
vn -0.0000 0.9956 0.0938
vn -0.0000 0.1247 0.9922
vn -0.9577 0.2879 -0.0000
vn -0.0000 0.9972 -0.0754
vn 0.8249 0.5144 0.2345
vn 0.8249 0.5144 0.2344
vn 0.9991 0.0388 0.0159
vn 1.0000 0.0069 0.0043
vn 0.8871 0.2840 0.3638
vn -0.8248 0.5145 0.2344
vn -0.9991 0.0388 0.0159
vn 0.8230 0.2165 0.5251
vn -0.8492 0.1954 0.4906
vn -0.8230 0.2165 0.5251
vn -0.3756 0.0821 0.9231
vn -0.3489 -0.0097 -0.9371
vn -0.3325 0.0141 -0.9430
vn -0.8871 0.2841 0.3638
vn 0.0004 0.2152 0.9766
vn 0.8248 0.5145 0.2344
vn -0.8249 0.5144 0.2344
vn -0.8248 0.5144 0.2345
vt 0.884766 -0.376953
vt 0.963867 -0.324219
vt 0.791016 -0.343750
vt 0.791016 -0.265625
vt 0.928711 -0.554688
vt 0.884766 -0.501953
vt 0.791016 -0.613281
vt 0.791016 -0.533203
vt 0.010742 -0.986328
vt 0.739258 -0.013672
vt 0.010742 -0.013672
vt 0.739258 -0.986328
vt -1.142578 -1.873047
vt -1.509766 -1.503906
vt -1.042969 -1.740234
vt -1.386719 -1.347656
vt -1.173828 -1.839844
vt -1.542969 -1.468750
vt -1.851563 -1.158203
vt -1.697266 -0.962891
vt -1.894531 -1.115234
vt -2.166016 -0.841797
vt -1.958984 -0.585938
vt -2.216797 -0.791016
vt -2.289063 -0.722656
vt -1.107422 -1.908203
vt -0.023438 -0.265625
vt -0.039062 -0.039062
vt -0.050781 -0.265625
vt -0.061523 -0.091797
vt -0.158203 -0.265625
vt -0.147461 -0.112305
vt -0.185547 -0.265625
vt -0.169922 -0.039062
vt -0.387695 -0.535156
vt -0.484375 -0.537109
vt -0.388672 -0.457031
vt -0.453125 -0.475586
vt -0.389648 -0.403320
vt -0.458984 -0.403320
vt -0.387695 -0.588867
vt -0.484375 -0.588867
vt -0.593750 -0.457031
vt -0.511719 -0.457031
vt -0.579102 -0.537109
vt -0.531250 -0.537109
vt -0.577148 -0.588867
vt -0.531250 -0.588867
vt -0.137695 -1.696289
vt -0.152344 -1.902344
vt -0.158203 -1.723633
vt -0.166016 -1.898438
vt -0.232422 -1.718750
vt -0.232422 -1.873047
vt -0.072266 -1.900391
vt -0.055664 -1.907227
vt -0.069336 -1.767578
vt -0.053711 -1.750977
vt -0.122070 -1.747070
vt -0.122070 -1.723633
vt -0.458008 -0.346680
vt -0.607422 -0.345703
vt -0.464844 -0.247070
vt -0.607422 -0.245117
vt -0.465820 -0.121094
vt -0.607422 -0.123047
vt -0.462891 -0.032227
vt -0.607422 -0.031250
vt -0.318359 -0.588867
vt -0.321289 -0.541016
vt -0.571289 -1.902344
vt -0.585938 -1.695313
vt -0.491211 -1.872070
vt -0.491211 -1.674805
vt -0.458984 -1.707031
vt -0.457031 -1.863281
vt -0.391602 -1.679688
vt -0.391602 -1.831055
vt -0.260742 -0.122070
vt -0.231445 -0.238281
vt -0.363281 -0.122070
vt -0.363281 -0.243164
vt -0.250000 -0.527344
vt -0.225586 -0.515625
vt -0.295898 -0.495117
vt -0.225586 -0.493164
vt -0.250000 -0.463867
vt -0.225586 -0.470703
vt -0.637695 -0.027344
vt -0.661133 -0.610352
vt -0.991211 -0.027344
vt -0.991211 -0.665039
vt -0.322266 -0.452148
vt -0.319336 -0.403320
vt -0.232422 -1.674805
vt -0.200195 -0.356445
vt -0.203125 -0.310547
vt -0.210938 -0.356445
vt -0.210938 -0.310547
vt -0.221680 -0.356445
vt -0.218750 -0.314453
vt -0.198242 -0.388672
vt -0.210938 -0.388672
vt -0.223633 -0.388672
vt -0.171875 -0.314453
vt -0.164062 -0.310547
vt -0.171875 -0.356445
vt -0.161133 -0.356445
vt -0.171875 -0.388672
vt -0.159180 -0.388672
vt -0.179688 -0.314453
vt -0.182617 -0.356445
vt -0.184570 -0.388672
vt -0.122070 -1.875000
vt -0.276367 -0.528320
vt -0.321289 -0.496094
vt -0.152344 -0.442383
vt -0.171875 -0.442383
vt -0.637695 -0.972656
vt -0.991211 -0.972656
vt -0.191406 -0.442383
vt -0.210938 -0.442383
vt -0.275391 -0.548828
vt -0.274414 -0.588867
vt -0.256836 -0.571289
vt -0.104492 -0.039062
vt -0.276367 -0.403320
vt -0.277344 -0.444336
vt -0.230469 -0.442383
vt -0.276367 -0.464844
vt -0.258789 -0.420898
vt -0.284180 -0.052734
vt -0.392578 -0.084961
vt -0.412109 -0.039062
vt -0.284180 -0.078125
vt 0.173828 -0.964844
vt 0.166016 -0.949219
vt 0.150391 -0.964844
vt 0.150391 -0.941406
vt 0.035156 -1.300781
vt 0.597656 -1.007813
vt 0.597656 -2.007813
vt 1.162109 -1.300781
vt 0.035156 -1.302734
vt 0.597656 -1.009766
vt 0.597656 -2.009766
vt 1.162109 -1.302734
vt 0.041016 -1.302734
vt 0.609375 -1.007813
vt 0.609375 -2.015625
vt 1.175781 -1.302734
vt 0.105469 -0.958984
vt 0.142578 -1.017578
vt 0.142578 -0.957031
vt 0.117188 -1.027344
vt 0.150391 -1.082031
vt 0.150391 -1.027344
vt 0.786133 -0.729492
vt 0.786133 -0.802734
vt 0.787109 -0.729492
vt 0.787109 -0.802734
vt 0.788086 -0.729492
vt 0.788086 -0.802734
vt 0.789062 -0.729492
vt 0.789062 -0.802734
vt 0.790039 -0.729492
vt 0.790039 -0.802734
vt 0.791992 -0.729492
vt 0.791992 -0.802734
vt 0.792969 -0.729492
vt 0.792969 -0.802734
vt 0.360352 -0.687500
vt 0.360352 -0.311523
vt 0.318359 -0.687500
vt 0.318359 -0.311523
vt 0.276367 -0.687500
vt 0.276367 -0.311523
vt 0.235352 -0.687500
vt 0.235352 -0.311523
vt 0.193359 -0.687500
vt 0.193359 -0.311523
vt 0.151367 -0.687500
vt 0.151367 -0.311523
vt 0.110352 -0.687500
vt 0.110352 -0.311523
vt 0.841797 -0.623047
vt 0.790039 -0.816406
vt 0.790039 -0.727539
vt 0.788086 -0.816406
vt 0.788086 -0.727539
vt 0.787109 -0.816406
vt 0.787109 -0.727539
vt 0.785156 -0.816406
vt 0.785156 -0.727539
vt 0.784180 -0.816406
vt 0.784180 -0.727539
vt 0.789062 -0.727539
vt 0.789062 -0.816406
vt 0.079102 -0.448242
vt 0.079102 -0.551758
vt 0.181641 -0.448242
vt 0.181641 -0.551758
vt 0.573242 -0.970703
vt 0.573242 -1.015625
vt 0.564453 -0.970703
vt 0.564453 -1.015625
vt 0.576172 -1.015625
vt 0.576172 -0.970703
vt 0.764648 -0.764648
vt 0.764648 -0.784180
vt 0.766602 -0.764648
vt 0.766602 -0.784180
vt 0.767578 -0.764648
vt 0.767578 -0.784180
vt 0.768555 -0.764648
vt 0.768555 -0.784180
vt 0.755859 -0.800781
vt 0.768555 -0.800781
vt 0.755859 -0.787109
vt 0.768555 -0.787109
vt 0.755859 -0.774414
vt 0.768555 -0.774414
vt 0.755859 -0.761719
vt 0.768555 -0.761719
vt 0.783203 -0.768555
vt 0.810547 -0.768555
vt 0.783203 -0.769531
vt 0.810547 -0.769531
vt 0.783203 -0.770508
vt 0.810547 -0.770508
vt 0.117188 -0.500000
vt 0.129883 -0.500000
vt 0.117188 -0.499023
vt 0.129883 -0.498047
vt 0.117188 -0.486328
vt 0.129883 -0.486328
vt 0.117188 -0.480469
vt 0.129883 -0.480469
vt 0.117188 -0.551758
vt 0.129883 -0.551758
vt 0.117188 -0.548828
vt 0.129883 -0.548828
vt 0.117188 -0.541992
vt 0.129883 -0.541992
vt 0.117188 -0.525391
vt 0.129883 -0.525391
vt -0.405273 -0.657227
vt -0.405273 -0.639648
vt -0.419922 -0.657227
vt -0.419922 -0.639648
vt 0.224609 0.000000
vt 0.211914 -0.381836
vt 0.012695 0.000000
vt 0.012695 -0.381836
vt 0.802734 -0.835938
vt 0.875000 -0.835938
vt 0.766602 -0.774414
vt 0.911133 -0.774414
vt 0.802734 -0.711914
vt 0.875000 -0.711914
vt 0.754883 -0.906250
vt 0.911133 -0.906250
vt 0.676758 -0.771484
vt 0.989258 -0.771484
vt 0.754883 -0.635742
vt 0.911133 -0.635742
vt 0.881836 -0.776367
vt 0.881836 -0.772461
vt 0.831055 -0.768555
vt 0.881836 -0.768555
vt 0.754883 -0.632812
vt 0.911133 -0.632812
vt 0.676758 -0.767578
vt 0.989258 -0.767578
vt 0.754883 -0.903320
vt 0.911133 -0.903320
vt 0.012695 -0.954102
vt 0.012695 -0.568359
vt 0.012695 -0.623047
vt 0.117188 -0.448242
vt 0.129883 -0.448242
vt 0.211914 -1.807617
vt 0.211914 -1.989258
vt 0.012695 -1.807617
vt 0.012695 -1.989258
vt 0.244141 -0.500977
vt 0.244141 -0.500000
vt 0.244141 -0.493164
vt 1.808594 -0.707031
vt 1.652344 -0.707031
vt 1.886719 -0.842773
vt 1.574219 -0.842773
vt 1.808594 -0.978516
vt 1.652344 -0.978516
vt 0.569336 -0.984375
vt 0.569336 -1.000000
vt 0.571289 -0.984375
vt 0.571289 -1.000000
vt 0.574219 -0.984375
vt 0.574219 -1.000000
vt 0.782227 -0.799805
vt 0.794922 -0.799805
vt 0.782227 -0.779297
vt 0.794922 -0.779297
vt 0.782227 -0.748047
vt 0.794922 -0.748047
vt 0.573242 -1.004883
vt 0.577148 -0.977539
vt 0.565430 -1.007813
vt 0.565430 -0.976562
vt 0.797852 -0.840820
vt 0.874023 -0.840820
vt 0.758789 -0.774414
vt 0.913086 -0.774414
vt 0.797852 -0.708008
vt 0.874023 -0.708008
vt 0.655273 -0.943359
vt 0.993164 -0.943359
vt 0.655273 -0.944336
vt 0.993164 -0.944336
vt -0.441406 -0.990234
vt -0.441406 -0.989258
vt -0.437500 -0.994141
vt -0.424805 -0.994141
vt 0.473633 -0.986328
vt 0.443359 -0.983398
vt 0.306641 -0.998047
vt 0.306641 -0.982422
vt 0.473633 -0.987305
vt 0.306641 -0.983398
vt 0.012695 -0.993164
vt 0.222656 -0.993164
vt 0.012695 -0.923828
vt 0.222656 -0.923828
vt 0.012695 -0.852539
vt 0.224609 -0.865234
vt 0.473633 -0.992188
vt 0.443359 -0.988281
vt 0.306641 -0.988281
vt 0.559570 -0.607422
vt 0.561523 -0.000977
vt 0.983398 -0.607422
vt 0.996094 -0.000977
vt 0.554688 -0.607422
vt 0.555664 -0.000977
vt 0.790039 -0.948242
vt 0.789062 -0.942383
vt 0.789062 -0.948242
vt 0.788086 -0.948242
vt -0.867188 -0.791016
vt -0.850586 -0.841797
vt -0.863281 -0.990234
vt -0.854492 -0.992188
vt 0.396484 -0.883789
vt 0.490234 -0.993164
vt 0.396484 -0.993164
vt 0.282227 -0.994141
vt 0.355469 -0.833984
vt 0.355469 -0.994141
vt -0.415039 -0.980469
vt -0.434570 -1.001953
vt -0.434570 -0.981445
vt -0.426758 -1.000977
vt -0.434570 0.020508
vt -0.429688 -0.000977
vt -0.417969 0.022461
vt -0.434570 -0.000977
vt -0.268555 -0.888672
vt -0.059570 -0.679688
vt -0.268555 -0.679688
vt 0.782227 -0.749023
vt 0.782227 -0.761719
vt 0.226562 -0.514648
vt 0.255859 -0.485352
vt 0.226562 -0.485352
vt 0.223633 -0.999023
vt 0.346680 -0.968750
vt 0.346680 -0.999023
vt 0.755859 -0.749023
vt 0.743164 -0.761719
vt 0.491211 -0.947266
vt 0.508789 -0.993164
vt 0.491211 -0.993164
vt 0.223633 -0.963867
vt 0.244141 -0.485352
vt 0.244141 -0.492188
vt 0.783203 -0.767578
vt 0.810547 -0.767578
vt 0.508789 -0.947266
vt 0.244141 -0.506836
vt 0.586914 -0.897461
vt 0.585938 -0.895508
vt 0.586914 -0.895508
vt 0.587891 -0.897461
vt 0.587891 -0.895508
vt 0.757812 -0.764648
vt 0.755859 -0.784180
vt 0.757812 -0.784180
vt 0.593750 -0.889648
vt 0.578125 -0.907227
vt 0.593750 -0.907227
vt 0.565430 -0.878906
vt 0.579102 -0.872070
vt 0.579102 -0.878906
vt 0.591797 -0.876953
vt 0.605469 -0.868164
vt 0.605469 -0.883789
vt 0.579102 -0.876953
vt 0.565430 -0.864258
vt 0.565430 -0.876953
vt 0.597656 -0.884766
vt 0.584961 -0.863281
vt 0.584961 -0.877930
vt 0.588867 -0.897461
vt 0.588867 -0.895508
vt 0.574219 -1.000977
vt 0.571289 -1.000977
vt 0.577148 -0.984375
vt 0.575195 -1.000000
vt 0.577148 -1.000000
vt 0.554688 -1.011719
vt 0.992188 -1.597656
vt 0.550781 -1.597656
vt 0.564453 -1.011719
vt 0.992188 -1.598633
vt 0.559570 -1.598633
vt -0.424805 -0.906250
vt -0.403320 -0.889648
vt -0.424805 -0.889648
vt -0.425781 -0.905273
vt -0.402344 -0.889648
vt -0.425781 -0.889648
vt 0.589844 -0.892578
vt 0.583984 -0.898438
vt 0.583984 -0.892578
vt 0.574219 -0.981445
vt 0.566406 -1.002930
vt 0.567383 -0.981445
vt 0.574219 -1.002930
vt -0.431641 -0.981445
vt -0.423828 -1.002930
vt -0.431641 -1.002930
vt -0.423828 -0.981445
vt -0.419922 -0.908203
vt -0.419922 -0.889648
vt 0.578125 -0.889648
vt 0.565430 -0.872070
vt 0.591797 -0.864258
vt 0.579102 -0.864258
vt 0.597656 -0.868164
vt 0.988281 -1.004883
vt -0.424805 -0.907227
vt -0.403320 -0.891602
vt -0.424805 -0.891602
vt -0.423828 -0.907227
vt -0.423828 -0.891602
vt 0.363281 -0.864258
vt 0.375977 -0.993164
vt 0.375977 -0.881836
vt 0.272461 -0.994141
vt 0.246094 -0.920898
vt 0.229492 -0.994141
vt 0.589844 -0.898438
vt 0.365234 -0.838867
vt 0.395508 -0.993164
vt 0.395508 -0.883789
vt 0.481445 -0.884766
vt 0.279297 -0.913086
vt 0.363281 -0.993164
vt 0.272461 -0.913086
vt 0.334961 -0.993164
vt 0.117188 -0.474609
vt 0.114258 -0.458008
vt 0.114258 -0.474609
vt 0.100586 -0.997070
vt 0.112305 -0.965820
vt 0.123047 -0.999023
vt 0.080078 -0.987305
vt 0.092773 -0.999023
vt 0.098633 -0.964844
vt 0.499023 -0.884766
vt 0.506836 -0.993164
vt 0.500000 -0.864258
vt -0.059570 -0.888672
vt 0.768555 -0.749023
vt 0.255859 -0.514648
vt 0.223633 -0.962891
vt 0.743164 -0.749023
vt 0.585938 -0.897461
vt 0.755859 -0.764648
vt 0.575195 -0.984375
vt -0.403320 -0.906250
vt -0.402344 -0.905273
vt -0.402344 -0.908203
vt -0.403320 -0.907227
s 0
usemtl pely_a
f 1/1/1 2/2/1 3/3/1
f 2/2/2 4/4/2 3/3/2
f 3/3/3 4/4/3 5/1/3
f 4/4/4 6/2/4 5/1/4
f 7/5/5 8/6/5 9/7/5
f 8/6/6 10/8/6 9/7/6
f 9/7/7 10/8/7 11/5/7
f 10/8/8 12/6/8 11/5/8
f 13/6/9 14/5/9 15/1/9
f 14/5/10 16/2/10 15/1/10
f 17/6/11 18/1/11 19/5/11
f 18/1/12 20/2/12 19/5/12
f 21/9/13 23/10/13 24/11/13
f 25/9/14 27/10/14 28/12/14
f 21/9/13 22/12/13 23/10/13
f 25/9/420 26/11/420 27/10/420
usemtl P_tail
f 29/13/15 30/14/15 31/15/15
f 30/14/16 32/16/16 31/15/16
f 31/15/17 32/16/17 33/17/17
f 32/16/18 34/18/18 33/17/18
f 33/17/19 34/18/19 35/15/19
f 34/18/20 36/16/20 35/15/20
f 35/15/21 36/16/21 37/13/21
f 36/16/22 38/14/22 37/13/22
f 39/14/23 40/19/23 41/16/23
f 40/19/24 42/20/24 41/16/24
f 41/16/25 42/20/25 43/18/25
f 42/20/26 44/21/26 43/18/26
f 43/18/27 44/21/27 45/16/27
f 44/21/28 46/20/28 45/16/28
f 45/16/29 46/20/29 47/14/29
f 46/20/30 48/19/30 47/14/30
f 49/19/31 50/22/31 51/20/31
f 50/22/32 52/23/32 51/20/32
f 51/20/33 52/23/33 53/21/33
f 52/23/34 54/24/34 53/21/34
f 53/21/35 54/24/35 55/20/35
f 54/24/36 56/23/36 55/20/36
f 55/20/37 56/23/37 57/19/37
f 56/23/38 58/22/38 57/19/38
f 59/23/39 60/22/39 61/25/39
f 60/22/40 62/23/40 61/25/40
f 61/25/41 62/23/41 63/24/41
f 64/13/42 65/15/42 66/26/42
f 65/15/43 67/17/43 66/26/43
f 66/26/44 67/17/44 68/15/44
f 69/24/45 70/23/45 71/25/45
f 72/15/46 73/13/46 74/26/46
usemtl P_body
f 75/27/47 76/28/47 77/29/47
f 76/28/48 78/30/48 77/29/48
f 77/29/49 78/30/49 79/31/49
f 78/30/50 80/32/50 79/31/50
f 79/31/51 80/32/51 81/33/51
f 80/32/52 82/34/52 81/33/52
f 81/33/53 82/34/53 83/31/53
f 82/34/54 84/32/54 83/31/54
f 83/31/55 84/32/55 85/29/55
f 84/32/56 86/30/56 85/29/56
f 85/29/57 86/30/57 87/27/57
f 86/30/58 88/28/58 87/27/58
f 89/35/59 90/36/59 91/37/59
f 90/36/60 92/38/60 91/37/60
f 91/37/61 92/38/61 93/39/61
f 92/38/62 94/40/62 93/39/62
f 93/39/63 94/40/63 95/37/63
f 94/40/64 96/38/64 95/37/64
f 95/37/65 96/38/65 97/35/65
f 96/38/66 98/36/66 97/35/66
f 97/35/67 98/36/67 99/41/67
f 98/36/68 100/42/68 99/41/68
f 101/43/69 102/44/69 103/45/69
f 102/44/70 104/46/70 103/45/70
f 103/45/71 104/46/71 105/47/71
f 104/46/72 106/48/72 105/47/72
f 105/47/73 106/48/73 107/45/73
f 106/48/74 108/46/74 107/45/74
f 107/45/75 108/46/75 109/43/75
f 108/46/76 110/44/76 109/43/76
f 111/49/77 112/50/77 113/51/77
f 112/50/78 114/52/78 113/51/78
f 113/51/79 114/52/79 115/53/79
f 114/52/80 116/54/80 115/53/80
f 115/53/81 116/54/81 117/51/81
f 116/54/82 118/52/82 117/51/82
f 117/51/83 118/52/83 119/49/83
f 118/52/84 120/50/84 119/49/84
f 121/55/85 122/56/85 123/57/85
f 122/56/86 124/58/86 123/57/86
f 123/57/87 124/58/87 125/59/87
f 124/58/88 126/60/88 125/59/88
f 125/59/89 126/60/89 127/57/89
f 126/60/90 128/58/90 127/57/90
f 127/57/91 128/58/91 129/55/91
f 128/58/92 130/56/92 129/55/92
f 131/61/93 132/62/93 133/63/93
f 132/62/94 134/64/94 133/63/94
f 133/63/95 134/64/95 135/65/95
f 134/64/95 136/66/95 135/65/95
f 135/65/96 136/66/96 137/67/96
f 136/66/97 138/68/97 137/67/97
f 139/62/98 140/61/98 141/64/98
f 140/61/99 142/63/99 141/64/99
f 141/64/100 142/63/100 143/66/100
f 142/63/101 144/65/101 143/66/101
f 143/66/102 144/65/102 145/68/102
f 144/65/103 146/67/103 145/68/103
f 147/48/104 148/46/104 149/42/104
f 148/46/105 150/36/105 149/42/105
f 149/42/106 150/36/106 151/41/106
f 150/36/107 152/35/107 151/41/107
f 151/41/108 152/35/108 153/69/108
f 152/35/109 154/70/109 153/69/109
f 155/71/110 156/72/110 157/73/110
f 156/72/111 158/74/111 157/73/111
f 157/73/112 158/74/112 159/71/112
f 158/74/113 160/72/113 159/71/113
f 161/75/114 162/76/114 163/77/114
f 162/76/115 164/78/115 163/77/115
f 163/77/116 164/78/116 165/75/116
f 164/78/117 166/76/117 165/75/117
f 167/79/118 168/80/118 169/81/118
f 168/80/119 170/82/119 169/81/119
f 169/81/120 170/82/120 171/65/120
f 170/82/121 172/63/121 171/65/121
f 173/80/122 174/79/122 175/82/122
f 174/79/123 176/81/123 175/82/123
f 175/82/124 176/81/124 177/63/124
f 176/81/125 178/65/125 177/63/125
f 179/83/126 180/84/126 181/85/126
f 180/84/127 182/86/127 181/85/127
f 181/85/128 182/86/128 183/87/128
f 182/86/129 184/88/129 183/87/129
f 185/84/130 186/83/130 187/86/130
f 186/83/131 188/85/131 187/86/131
f 187/86/132 188/85/132 189/88/132
f 188/85/133 190/87/133 189/88/133
f 191/89/134 192/90/134 193/91/134
f 192/90/135 194/92/135 193/91/135
f 193/91/136 194/92/136 195/89/136
f 194/92/137 196/90/137 195/89/137
f 197/93/138 198/37/138 199/94/138
f 198/37/139 200/39/139 199/94/139
f 199/94/140 200/39/140 201/93/140
f 200/39/141 202/37/141 201/93/141
f 203/49/142 204/51/142 205/95/142
f 204/51/143 206/53/143 205/95/143
f 205/95/144 206/53/144 207/49/144
f 206/53/145 208/51/145 207/49/145
f 209/96/146 210/97/146 211/98/146
f 210/97/147 212/99/147 211/98/147
f 211/98/148 212/99/148 213/100/148
f 212/99/149 214/101/149 213/100/149
f 215/102/150 216/96/150 217/103/150
f 216/96/151 218/98/151 217/103/151
f 217/103/152 218/98/152 219/104/152
f 218/98/153 220/100/153 219/104/153
f 221/105/154 222/106/154 223/107/154
f 222/106/155 224/108/155 223/107/155
f 223/107/156 224/108/156 225/109/156
f 224/108/157 226/110/157 225/109/157
f 227/111/158 228/105/158 229/112/158
f 228/105/159 230/107/159 229/112/159
f 229/112/160 230/107/160 231/113/160
f 230/107/161 232/109/161 231/113/161
f 233/99/162 234/97/162 235/98/162
f 234/97/163 236/96/163 235/98/163
f 235/98/164 236/96/164 237/103/164
f 236/96/165 238/102/165 237/103/165
f 239/101/166 240/99/166 241/100/166
f 240/99/167 242/98/167 241/100/167
f 241/100/168 242/98/168 243/104/168
f 242/98/169 244/103/169 243/104/169
f 245/105/170 246/111/170 247/107/170
f 246/111/171 248/112/171 247/107/171
f 247/107/172 248/112/172 249/109/172
f 248/112/173 250/113/173 249/109/173
f 251/109/174 252/110/174 253/107/174
f 252/110/175 254/108/175 253/107/175
f 253/107/176 254/108/176 255/105/176
f 254/108/177 256/106/177 255/105/177
f 257/55/178 258/57/178 259/114/178
f 258/57/179 260/59/179 259/114/179
f 259/114/180 260/59/180 261/55/180
f 260/59/181 262/57/181 261/55/181
f 263/115/182 264/70/182 265/116/182
f 264/70/183 266/35/183 265/116/183
f 265/116/184 266/35/184 267/37/184
f 268/117/185 269/110/185 270/118/185
f 269/110/186 271/109/186 270/118/186
f 270/118/187 271/109/187 272/113/187
f 273/119/188 274/90/188 275/120/188
f 274/90/189 276/92/189 275/120/189
f 275/120/190 276/92/190 277/90/190
f 278/121/191 279/102/191 280/122/191
f 279/102/192 281/103/192 280/122/192
f 280/122/193 281/103/193 282/104/193
f 283/70/194 284/123/194 285/124/194
f 284/123/195 286/125/195 285/124/195
f 285/124/196 286/125/196 287/125/196
f 288/32/197 289/30/197 290/126/197
f 289/30/198 291/28/198 290/126/198
f 290/126/199 291/28/199 292/30/199
f 293/93/200 294/94/200 295/127/200
f 294/94/201 296/93/201 295/127/201
f 295/127/202 296/93/202 297/128/202
f 298/46/203 299/36/203 300/44/203
f 299/36/204 301/38/204 300/44/204
f 302/46/205 303/44/205 304/36/205
f 303/44/206 305/38/206 304/36/206
f 306/117/207 307/118/207 308/110/207
f 307/118/208 309/109/208 308/110/208
f 310/121/209 311/113/209 312/118/209
f 311/113/210 313/109/210 312/118/210
f 314/115/211 315/116/211 316/70/211
f 315/116/212 317/35/212 316/70/212
f 318/35/213 319/116/213 320/37/213
f 319/116/214 321/93/214 320/37/214
f 322/121/215 323/122/215 324/102/215
f 323/122/216 325/103/216 324/102/216
f 326/70/217 327/124/217 328/69/217
f 327/124/218 329/70/218 328/69/218
f 330/70/219 331/124/219 332/123/219
f 331/124/220 333/125/220 332/123/220
f 334/129/221 335/104/221 336/122/221
f 335/104/222 337/103/222 336/122/222
f 338/32/223 339/126/223 340/34/223
f 339/126/224 341/32/224 340/34/224
f 342/37/225 343/93/225 344/116/225
f 343/93/226 345/130/226 344/116/226
f 346/93/227 347/127/227 348/128/227
f 347/127/228 349/131/228 348/128/228
f 350/131/229 351/127/229 352/131/229
f 351/127/230 353/128/230 352/131/230
f 354/42/231 356/46/231 357/48/231
f 358/41/232 360/70/232 361/35/232
f 362/132/233 364/133/233 365/134/233
f 366/132/234 368/133/234 369/135/234
f 370/122/235 371/104/235 372/129/235
f 373/30/236 374/32/236 375/126/236
f 376/121/237 377/118/237 378/113/237
f 379/116/238 380/130/238 381/93/238
f 382/119/239 383/120/239 384/90/239
f 354/42/421 355/36/421 356/46/421
f 358/41/422 359/69/422 360/70/422
f 362/132/233 363/135/233 364/133/233
f 366/132/234 367/134/234 368/133/234
usemtl prope
f 385/136/240 386/137/240 387/138/240
f 386/137/241 388/139/241 387/138/241
f 387/138/242 388/139/242 389/137/242
f 390/140/243 391/141/243 392/142/243
f 391/141/243 393/143/243 392/142/243
f 394/144/243 395/145/243 396/146/243
f 395/145/243 397/147/243 396/146/243
f 398/148/243 399/149/243 400/150/243
f 399/149/243 401/151/243 400/150/243
f 402/140/244 403/142/244 404/141/244
f 403/142/244 405/143/244 404/141/244
f 406/144/244 407/146/244 408/145/244
f 407/146/244 409/147/244 408/145/244
f 410/148/244 411/150/244 412/149/244
f 411/150/244 413/151/244 412/149/244
f 414/137/245 415/136/245 416/138/245
f 417/152/243 418/153/243 419/154/243
f 420/155/243 421/156/243 422/157/243
f 423/154/244 424/153/244 425/152/244
f 426/157/244 427/156/244 428/155/244
usemtl body
f 429/158/246 430/159/246 431/160/246
f 430/159/247 432/161/247 431/160/247
f 431/160/248 432/161/248 433/162/248
f 432/161/249 434/163/249 433/162/249
f 433/162/250 434/163/250 435/164/250
f 434/163/250 436/165/250 435/164/250
f 435/164/251 436/165/251 437/166/251
f 436/165/252 438/167/252 437/166/252
f 437/166/253 438/167/253 439/168/253
f 438/167/254 440/169/254 439/168/254
f 439/168/255 440/169/255 441/170/255
f 440/169/255 442/171/255 441/170/255
f 443/172/256 444/173/256 445/174/256
f 444/173/257 446/175/257 445/174/257
f 445/174/258 446/175/258 447/176/258
f 446/175/259 448/177/259 447/176/259
f 447/176/260 448/177/260 449/178/260
f 448/177/261 450/179/261 449/178/261
f 449/178/262 450/179/262 451/180/262
f 450/179/263 452/181/263 451/180/263
f 451/180/264 452/181/264 453/182/264
f 452/181/265 454/183/265 453/182/265
f 453/182/266 454/183/266 455/184/266
f 454/183/267 456/185/267 455/184/267
f 457/173/268 458/172/268 459/175/268
f 458/172/269 460/174/269 459/175/269
f 459/175/270 460/174/270 461/177/270
f 460/174/271 462/176/271 461/177/271
f 461/177/272 462/176/272 463/179/272
f 462/176/273 464/178/273 463/179/273
f 463/179/274 464/178/274 465/181/274
f 464/178/275 466/180/275 465/181/275
f 465/181/276 466/180/276 467/183/276
f 466/180/277 468/182/277 467/183/277
f 467/183/278 468/182/278 469/185/278
f 468/182/279 470/184/279 469/185/279
f 471/186/280 472/186/280 473/186/280
f 472/186/280 474/186/280 473/186/280
f 473/186/281 474/186/281 475/186/281
f 474/186/281 476/186/281 475/186/281
f 475/186/244 476/186/244 477/186/244
f 476/186/244 478/186/244 477/186/244
f 477/186/282 478/186/282 479/186/282
f 478/186/282 480/186/282 479/186/282
f 479/186/283 480/186/283 481/186/283
f 480/186/283 482/186/283 481/186/283
f 481/186/243 482/186/243 483/186/243
f 482/186/243 484/186/243 483/186/243
f 485/186/284 486/186/284 487/186/284
f 486/186/284 488/186/284 487/186/284
f 487/186/285 488/186/285 489/186/285
f 488/186/285 490/186/285 489/186/285
f 489/186/244 490/186/244 491/186/244
f 490/186/244 492/186/244 491/186/244
f 491/186/286 492/186/286 493/186/286
f 492/186/286 494/186/286 493/186/286
f 493/186/287 494/186/287 495/186/287
f 494/186/287 496/186/287 495/186/287
f 495/186/243 496/186/243 497/186/243
f 496/186/243 498/186/243 497/186/243
f 499/186/284 500/186/284 501/186/284
f 500/186/284 502/186/284 501/186/284
f 501/186/243 502/186/243 503/186/243
f 502/186/243 504/186/243 503/186/243
f 503/186/287 504/186/287 505/186/287
f 504/186/287 506/186/287 505/186/287
f 505/186/286 506/186/286 507/186/286
f 506/186/286 508/186/286 507/186/286
f 507/186/244 508/186/244 509/186/244
f 508/186/244 510/186/244 509/186/244
f 509/186/285 510/186/285 511/186/285
f 510/186/285 512/186/285 511/186/285
f 513/186/288 514/186/288 515/186/288
f 514/186/288 516/186/288 515/186/288
f 515/186/289 516/186/289 517/186/289
f 516/186/289 518/186/289 517/186/289
f 517/186/244 518/186/244 519/186/244
f 518/186/244 520/186/244 519/186/244
f 519/186/290 520/186/290 521/186/290
f 520/186/290 522/186/290 521/186/290
f 521/186/291 522/186/291 523/186/291
f 522/186/291 524/186/291 523/186/291
f 523/186/243 524/186/243 525/186/243
f 524/186/243 526/186/243 525/186/243
f 527/187/292 528/188/292 529/189/292
f 528/188/292 530/190/292 529/189/292
f 529/189/293 530/190/293 531/191/293
f 530/190/293 532/192/293 531/191/293
f 531/191/294 532/192/294 533/193/294
f 532/192/294 534/194/294 533/193/294
f 533/193/295 534/194/295 535/195/295
f 534/194/295 536/196/295 535/195/295
f 537/197/296 538/198/296 539/190/296
f 538/198/296 540/189/296 539/190/296
f 539/190/297 540/189/297 541/192/297
f 540/189/297 542/191/297 541/192/297
f 541/192/298 542/191/298 543/194/298
f 542/191/298 544/193/298 543/194/298
f 543/194/299 544/193/299 545/194/299
f 544/193/299 546/193/299 545/194/299
f 547/197/296 548/198/296 549/190/296
f 548/198/296 550/189/296 549/190/296
f 549/190/297 550/189/297 551/192/297
f 550/189/297 552/191/297 551/192/297
f 551/192/298 552/191/298 553/194/298
f 552/191/298 554/193/298 553/194/298
f 553/194/299 554/193/299 555/194/299
f 554/193/299 556/193/299 555/194/299
f 557/187/292 558/188/292 559/189/292
f 558/188/292 560/190/292 559/189/292
f 559/189/293 560/190/293 561/191/293
f 560/190/293 562/192/293 561/191/293
f 561/191/294 562/192/294 563/193/294
f 562/192/294 564/194/294 563/193/294
f 563/193/295 564/194/295 565/195/295
f 564/194/295 566/196/295 565/195/295
f 567/199/300 568/200/300 569/199/300
f 568/200/300 570/200/300 569/199/300
f 569/199/244 570/200/244 571/201/244
f 570/200/244 572/202/244 571/201/244
f 571/201/244 572/202/244 573/199/244
f 572/202/244 574/200/244 573/199/244
f 573/199/301 574/200/301 575/199/301
f 574/200/301 576/200/301 575/199/301
f 577/203/302 578/204/302 579/205/302
f 578/204/303 580/206/303 579/205/303
f 579/205/304 580/206/304 581/203/304
f 580/206/305 582/204/305 581/203/305
f 581/203/306 582/204/306 583/205/306
f 582/204/306 584/206/306 583/205/306
f 583/205/307 584/206/307 585/203/307
f 584/206/307 586/204/307 585/203/307
f 587/207/308 588/208/308 589/206/308
f 588/208/308 590/205/308 589/206/308
f 589/206/309 590/205/309 591/207/309
f 590/205/309 592/208/309 591/207/309
f 591/207/310 592/208/310 593/206/310
f 592/208/310 594/205/310 593/206/310
f 593/206/311 594/205/311 595/207/311
f 594/205/311 596/208/311 595/207/311
f 597/209/312 598/210/312 599/211/312
f 598/210/312 600/212/312 599/211/312
f 599/211/313 600/212/313 601/213/313
f 600/212/313 602/214/313 601/213/313
f 601/213/314 602/214/314 603/215/314
f 602/214/314 604/216/314 603/215/314
f 605/217/315 606/218/315 607/219/315
f 606/218/315 608/220/315 607/219/315
f 607/219/243 608/220/243 609/221/243
f 608/220/243 610/222/243 609/221/243
f 609/221/316 610/222/316 611/223/316
f 610/222/316 612/224/316 611/223/316
f 613/225/317 614/226/317 615/227/317
f 614/226/317 616/228/317 615/227/317
f 615/227/318 616/228/318 617/227/318
f 616/228/318 618/228/318 617/227/318
f 617/227/243 618/228/243 619/229/243
f 618/228/243 620/230/243 619/229/243
f 621/209/319 622/210/319 623/211/319
f 622/210/319 624/212/319 623/211/319
f 623/211/320 624/212/320 625/213/320
f 624/212/320 626/214/320 625/213/320
f 625/213/321 626/214/321 627/215/321
f 626/214/321 628/216/321 627/215/321
f 629/231/322 630/232/322 631/233/322
f 630/232/322 632/234/322 631/233/322
f 631/233/323 632/234/323 633/235/323
f 632/234/324 634/236/324 633/235/324
f 633/235/325 634/236/325 635/237/325
f 634/236/326 636/238/326 635/237/326
f 637/232/322 638/231/322 639/234/322
f 638/231/322 640/233/322 639/234/322
f 639/234/327 640/233/327 641/236/327
f 640/233/328 642/235/328 641/236/328
f 641/236/329 642/235/329 643/238/329
f 642/235/330 644/237/330 643/238/330
f 645/202/301 646/202/301 647/201/301
f 646/202/301 648/201/301 647/201/301
f 647/201/300 648/201/300 649/202/300
f 648/201/300 650/202/300 649/202/300
f 649/202/331 650/202/331 651/200/331
f 650/202/331 652/200/331 651/200/331
f 653/239/332 654/240/332 655/241/332
f 654/240/332 656/242/332 655/241/332
f 655/241/332 656/242/332 657/243/332
f 656/242/332 658/244/332 657/243/332
f 657/243/332 658/244/332 659/245/332
f 658/244/333 660/246/333 659/245/333
f 661/240/332 662/239/332 663/242/332
f 662/239/332 664/241/332 663/242/332
f 663/242/332 664/241/332 665/244/332
f 664/241/332 666/243/332 665/244/332
f 665/244/334 666/243/334 667/246/334
f 666/243/335 668/245/335 667/246/335
f 669/247/336 670/248/336 671/249/336
f 670/248/337 672/250/337 671/249/337
f 671/249/337 672/250/337 673/247/337
f 672/250/338 674/248/338 673/247/338
f 675/251/339 676/252/339 677/253/339
f 676/252/340 678/254/340 677/253/340
f 677/253/341 678/254/341 679/251/341
f 678/254/342 680/252/342 679/251/342
f 681/255/343 682/256/343 683/257/343
f 682/256/343 684/258/343 683/257/343
f 683/257/343 684/258/343 685/259/343
f 684/258/343 686/260/343 685/259/343
f 687/261/301 688/262/301 689/263/301
f 688/262/301 690/264/301 689/263/301
f 689/263/301 690/264/301 691/265/301
f 690/264/301 692/266/301 691/265/301
f 693/267/244 694/268/244 695/269/244
f 694/268/244 696/270/244 695/269/244
f 695/269/244 696/270/244 697/267/244
f 696/270/244 698/268/244 697/267/244
f 699/271/301 700/272/301 701/273/301
f 700/272/301 702/274/301 701/273/301
f 701/273/301 702/274/301 703/275/301
f 702/274/301 704/276/301 703/275/301
f 705/248/344 706/247/344 707/250/344
f 706/247/345 708/249/345 707/250/345
f 707/250/346 708/249/346 709/248/346
f 708/249/347 710/247/347 709/248/347
f 711/272/300 712/271/300 713/274/300
f 712/271/300 714/273/300 713/274/300
f 713/274/300 714/273/300 715/276/300
f 714/273/300 716/275/300 715/276/300
f 717/245/332 718/245/332 719/246/332
f 718/245/348 720/246/348 719/246/348
f 719/246/349 720/246/349 721/245/349
f 720/246/335 722/245/335 721/245/335
f 723/262/300 724/261/300 725/264/300
f 724/261/300 726/263/300 725/264/300
f 725/264/300 726/263/300 727/266/300
f 726/263/300 728/265/300 727/266/300
f 729/277/300 730/278/300 731/277/300
f 730/278/300 732/279/300 731/277/300
f 731/277/301 732/279/301 733/277/301
f 732/279/301 734/278/301 733/277/301
f 735/280/332 736/280/332 737/281/332
f 736/280/332 738/281/332 737/281/332
f 737/281/332 738/281/332 739/280/332
f 738/281/332 740/280/332 739/280/332
f 741/282/350 742/283/350 743/284/350
f 742/283/350 744/285/350 743/284/350
f 743/284/350 744/285/350 745/282/350
f 744/285/350 746/283/350 745/282/350
f 747/286/351 748/286/351 749/287/351
f 748/286/351 750/287/351 749/287/351
f 749/287/352 750/287/352 751/288/352
f 750/287/352 752/288/352 751/288/352
f 753/199/243 754/200/243 755/201/243
f 754/200/243 756/202/243 755/201/243
f 755/201/243 756/202/243 757/199/243
f 756/202/243 758/200/243 757/199/243
f 759/268/244 760/267/244 761/270/244
f 760/267/244 762/269/244 761/270/244
f 761/270/244 762/269/244 763/268/244
f 762/269/244 764/267/244 763/268/244
f 765/268/243 766/267/243 767/270/243
f 766/267/243 768/269/243 767/270/243
f 767/270/243 768/269/243 769/268/243
f 768/269/243 770/267/243 769/268/243
f 771/289/343 772/290/343 773/291/343
f 772/290/343 774/292/343 773/291/343
f 773/291/343 774/292/343 775/293/343
f 774/292/343 776/294/343 775/293/343
f 777/295/353 778/296/353 779/297/353
f 778/296/353 780/298/353 779/297/353
f 779/297/354 780/298/354 781/299/354
f 780/298/354 782/300/354 781/299/354
f 783/301/355 784/302/355 785/303/355
f 784/302/355 786/304/355 785/303/355
f 785/303/243 786/304/243 787/305/243
f 786/304/243 788/306/243 787/305/243
f 789/307/300 790/308/300 791/309/300
f 790/308/300 792/310/300 791/309/300
f 791/309/300 792/310/300 793/307/300
f 792/310/300 794/308/300 793/307/300
f 795/308/301 796/307/301 797/310/301
f 796/307/301 798/309/301 797/310/301
f 797/310/301 798/309/301 799/308/301
f 798/309/301 800/307/301 799/308/301
f 801/311/332 802/312/332 803/313/332
f 802/312/332 804/314/332 803/313/332
f 803/313/332 804/314/332 805/315/332
f 804/314/332 806/316/332 805/315/332
f 807/307/300 808/308/300 809/309/300
f 808/308/300 810/310/300 809/309/300
f 809/309/300 810/310/300 811/307/300
f 810/310/300 812/308/300 811/307/300
f 813/317/356 814/318/356 815/319/356
f 814/318/356 816/320/356 815/319/356
f 815/319/244 816/320/244 817/319/244
f 816/320/244 818/320/244 817/319/244
f 819/308/301 820/307/301 821/310/301
f 820/307/301 822/309/301 821/310/301
f 821/310/301 822/309/301 823/308/301
f 822/309/301 824/307/301 823/308/301
f 825/261/301 826/262/301 827/263/301
f 826/262/301 828/264/301 827/263/301
f 827/263/301 828/264/301 829/265/301
f 828/264/301 830/266/301 829/265/301
f 831/321/332 832/322/332 833/323/332
f 832/322/332 834/324/332 833/323/332
f 833/323/332 834/324/332 835/321/332
f 834/324/332 836/322/332 835/321/332
f 837/325/343 838/326/343 839/327/343
f 838/326/357 840/328/357 839/327/357
f 839/327/358 840/328/358 841/325/358
f 840/328/359 842/326/359 841/325/359
f 843/326/343 844/329/343 845/330/343
f 844/329/343 846/327/343 845/330/343
f 845/330/343 846/327/343 847/326/343
f 846/327/343 848/329/343 847/326/343
f 849/272/300 850/271/300 851/274/300
f 850/271/300 852/273/300 851/274/300
f 851/274/300 852/273/300 853/276/300
f 852/273/300 854/275/300 853/276/300
f 855/331/360 856/332/360 857/333/360
f 856/332/361 858/334/361 857/333/361
f 857/333/362 858/334/362 859/335/362
f 858/334/363 860/336/363 859/335/363
f 861/332/364 862/331/364 863/334/364
f 862/331/365 864/333/365 863/334/365
f 863/334/366 864/333/366 865/336/366
f 864/333/367 866/335/367 865/336/367
f 867/337/332 868/338/332 869/327/332
f 868/338/332 870/339/332 869/327/332
f 869/327/332 870/339/332 871/337/332
f 870/339/332 872/338/332 871/337/332
f 873/340/300 874/341/300 875/342/300
f 874/341/300 876/343/300 875/342/300
f 875/342/300 876/343/300 877/344/300
f 876/343/300 878/345/300 877/344/300
f 879/344/301 880/345/301 881/342/301
f 880/345/301 882/343/301 881/342/301
f 881/342/301 882/343/301 883/340/301
f 882/343/301 884/341/301 883/340/301
f 885/272/300 886/271/300 887/274/300
f 886/271/300 888/273/300 887/274/300
f 887/274/300 888/273/300 889/276/300
f 888/273/300 890/275/300 889/276/300
f 891/261/301 892/262/301 893/263/301
f 892/262/301 894/264/301 893/263/301
f 893/263/301 894/264/301 895/265/301
f 894/264/301 896/266/301 895/265/301
f 897/346/368 898/347/368 899/348/368
f 898/347/369 900/349/369 899/348/369
f 901/350/370 902/351/370 903/352/370
f 902/351/371 904/353/371 903/352/371
f 905/353/372 906/351/372 907/352/372
f 906/351/373 908/350/373 907/352/373
f 909/354/374 911/355/374 912/356/374
f 913/357/375 915/358/375 916/359/375
f 917/360/300 919/361/300 920/362/300
f 921/363/301 923/362/301 924/361/301
f 925/364/300 927/365/300 928/366/300
f 929/367/301 931/366/301 932/365/301
f 933/368/244 935/369/244 936/370/244
f 937/371/376 939/224/376 940/372/376
f 941/373/377 943/374/377 944/375/377
f 945/373/378 947/374/378 948/375/378
f 949/376/300 951/377/300 952/378/300
f 953/379/379 955/380/379 956/223/379
f 957/381/300 959/382/300 960/383/300
f 961/376/301 963/377/301 964/384/301
f 965/220/380 967/217/380 968/218/380
f 969/385/343 971/386/343 972/386/343
f 973/387/381 975/388/381 976/388/381
f 977/381/301 979/382/301 980/389/301
f 981/386/343 983/288/343 984/386/343
f 985/286/332 987/390/332 988/286/332
f 989/224/382 991/221/382 992/222/382
f 993/371/383 995/224/383 996/372/383
f 997/379/384 999/380/384 1000/223/384
f 1001/391/385 1003/392/385 1004/393/385
f 1005/391/386 1007/393/386 1008/393/386
f 1009/394/301 1011/393/301 1012/395/301
f 1013/396/387 1015/397/387 1016/398/387
f 1017/394/388 1019/395/388 1020/395/388
f 1021/399/301 1023/400/301 1024/401/301
f 1025/402/389 1027/403/389 1028/404/389
f 1029/405/390 1031/406/390 1032/407/390
f 1033/408/391 1035/409/391 1036/410/391
f 1037/411/392 1039/412/392 1040/413/392
f 1041/394/393 1043/395/393 1044/395/393
f 1045/414/300 1047/395/300 1048/415/300
f 1049/416/394 1051/297/394 1052/417/394
f 1053/418/343 1055/419/343 1056/420/343
f 1057/421/300 1059/422/300 1060/423/300
f 1061/424/301 1063/425/301 1064/426/301
f 1065/427/395 1067/428/395 1068/429/395
f 1069/360/300 1071/361/300 1072/362/300
f 1073/363/301 1075/362/301 1076/361/301
f 1077/430/396 1079/431/396 1080/432/396
f 1081/364/300 1083/365/300 1084/366/300
f 1085/367/301 1087/366/301 1088/365/301
f 1089/433/243 1091/434/243 1092/435/243
f 1093/436/300 1095/437/300 1096/438/300
f 1097/439/301 1099/438/301 1100/437/301
f 1101/440/397 1103/441/397 1104/442/397
f 1105/442/398 1107/443/398 1108/440/398
f 1109/444/332 1111/431/332 1112/445/332
f 1113/399/300 1115/400/300 1116/446/300
f 1117/402/399 1119/403/399 1120/447/399
f 1121/405/400 1123/406/400 1124/448/400
f 1125/408/401 1127/409/401 1128/449/401
f 1129/411/402 1131/412/402 1132/450/402
f 1133/298/403 1135/295/403 1136/297/403
f 1137/426/300 1139/451/300 1140/424/300
f 1141/423/301 1143/451/301 1144/421/301
f 1145/444/332 1147/431/332 1148/445/332
f 1149/452/404 1151/453/404 1152/454/404
f 1153/200/405 1155/202/405 1156/200/405
f 1157/444/406 1159/431/406 1160/445/406
f 1161/455/407 1163/453/407 1164/456/407
f 1165/396/408 1167/397/408 1168/398/408
f 1169/457/301 1171/458/301 1172/459/301
f 1173/444/409 1175/431/409 1176/445/409
f 1177/460/410 1179/461/410 1180/462/411
f 1181/433/244 1183/434/244 1184/463/244
f 1185/464/412 1187/465/412 1188/466/412
f 1189/354/413 1191/355/413 1192/467/413
f 1193/357/414 1195/358/414 1196/468/414
f 1197/457/300 1199/458/300 1200/469/300
f 1201/460/415 1203/461/415 1204/470/415
f 1205/464/416 1207/465/416 1208/471/416
f 1209/472/417 1210/473/417 1211/474/417
f 1212/349/418 1213/349/418 1214/347/418
f 1215/475/300 1216/476/300 1217/477/300
f 1218/478/301 1219/479/301 1220/480/301
f 1221/478/300 1222/480/300 1223/479/300
f 1224/476/301 1225/475/301 1226/477/301
f 1227/481/301 1228/482/301 1229/483/301
f 1230/472/419 1231/474/419 1232/473/419
f 1233/481/300 1234/483/300 1235/482/300
f 909/354/374 910/467/374 911/355/374
f 913/357/375 914/468/375 915/358/423
f 917/360/300 918/363/300 919/361/300
f 921/363/301 922/360/301 923/362/301
f 925/364/300 926/367/300 927/365/300
f 929/367/301 930/364/301 931/366/301
f 933/368/244 934/484/244 935/369/244
f 937/371/376 938/485/376 939/224/376
f 941/373/424 942/486/424 943/374/424
f 945/373/378 946/486/378 947/374/378
f 949/376/300 950/487/300 951/377/300
f 953/379/379 954/488/379 955/380/379
f 957/381/300 958/389/300 959/382/300
f 961/376/301 962/378/301 963/377/301
f 965/220/380 966/219/380 967/217/380
f 969/385/343 970/385/343 971/386/343
f 973/387/381 974/387/381 975/388/381
f 977/381/301 978/383/301 979/382/301
f 981/386/343 982/288/343 983/288/343
f 985/286/332 986/390/332 987/390/332
f 989/224/382 990/223/382 991/221/382
f 993/371/383 994/485/383 995/224/383
f 997/379/384 998/488/384 999/380/384
f 1001/391/385 1002/489/385 1003/392/385
f 1005/391/386 1006/391/386 1007/393/386
f 1009/394/301 1010/391/301 1011/393/301
f 1013/396/387 1014/490/387 1015/397/387
f 1017/394/388 1018/394/388 1019/395/388
f 1021/399/301 1022/446/301 1023/400/301
f 1025/402/389 1026/447/389 1027/403/389
f 1029/405/390 1030/448/390 1031/406/390
f 1033/408/391 1034/449/391 1035/409/391
f 1037/411/392 1038/450/392 1039/412/392
f 1041/394/393 1042/394/393 1043/395/393
f 1045/414/300 1046/394/300 1047/395/300
f 1049/416/394 1050/299/394 1051/297/394
f 1053/418/343 1054/491/343 1055/419/343
f 1057/421/300 1058/451/300 1059/422/300
f 1061/424/301 1062/451/301 1063/425/301
f 1065/427/395 1066/492/395 1067/428/395
f 1069/360/300 1070/363/300 1071/361/300
f 1073/363/301 1074/360/301 1075/362/301
f 1077/430/396 1078/493/396 1079/431/396
f 1081/364/300 1082/367/300 1083/365/300
f 1085/367/301 1086/364/301 1087/366/301
f 1089/433/243 1090/463/243 1091/434/243
f 1093/436/300 1094/439/300 1095/437/300
f 1097/439/301 1098/436/301 1099/438/301
f 1101/440/397 1102/443/397 1103/441/397
f 1105/442/398 1106/441/398 1107/443/398
f 1109/444/332 1110/494/332 1111/431/332
f 1113/399/300 1114/401/300 1115/400/300
f 1117/402/399 1118/404/399 1119/403/399
f 1121/405/400 1122/407/400 1123/406/400
f 1125/408/401 1126/410/401 1127/409/401
f 1129/411/402 1130/413/402 1131/412/402
f 1133/298/403 1134/296/403 1135/295/403
f 1137/426/300 1138/425/300 1139/451/300
f 1141/423/301 1142/422/301 1143/451/301
f 1145/444/332 1146/494/332 1147/431/332
f 1149/452/404 1150/495/404 1151/453/404
f 1153/200/405 1154/202/405 1155/202/405
f 1157/444/406 1158/494/406 1159/431/406
f 1161/455/407 1162/495/407 1163/453/407
f 1165/396/408 1166/490/408 1167/397/408
f 1169/457/301 1170/469/301 1171/458/301
f 1173/444/409 1174/494/409 1175/431/409
f 1177/460/425 1178/470/425 1179/461/425
f 1181/433/244 1182/435/244 1183/434/244
f 1185/464/412 1186/471/412 1187/465/412
f 1189/354/413 1190/356/413 1191/355/413
f 1193/357/414 1194/359/414 1195/358/414
f 1197/457/300 1198/459/300 1199/458/300
f 1201/460/426 1202/462/426 1203/461/427
f 1205/464/416 1206/466/416 1207/465/416
