# Blender 4.2.1 LTS
# www.blender.org
mtllib letreroArco.mtl
o Cubo
v -0.910055 -0.345955 0.109165
v -0.910055 0.294045 0.109165
v -0.910055 -0.345955 -0.090835
v -0.910055 0.294045 -0.090835
v 0.889945 -0.345955 0.109165
v 0.889945 0.294045 0.109165
v 0.889945 -0.345955 -0.090835
v 0.889945 0.294045 -0.090835
vn -1.0000 -0.0000 -0.0000
vn -0.0000 -0.0000 -1.0000
vn 1.0000 -0.0000 -0.0000
vn -0.0000 -0.0000 1.0000
vn -0.0000 -1.0000 -0.0000
vn -0.0000 1.0000 -0.0000
vt 0.375000 0.000000
vt 0.625000 0.250000
vt 0.375000 0.250000
vt 0.625000 0.500000
vt 0.375000 0.500000
vt 0.625000 0.750000
vt 0.375000 0.750000
vt 0.999900 0.000100
vt 0.000100 0.999900
vt 0.000100 0.000100
vt 0.125000 0.500000
vt 0.125000 0.750000
vt 0.875000 0.750000
vt 0.625000 0.000000
vt 0.999900 0.999900
vt 0.875000 0.500000
s 0
usemtl Material.006
f 1/1/1 4/2/1 3/3/1
f 3/3/2 8/4/2 7/5/2
f 7/5/3 6/6/3 5/7/3
f 5/8/4 2/9/4 1/10/4
f 3/11/5 5/7/5 1/12/5
f 8/4/6 2/13/6 6/6/6
f 1/1/1 2/14/1 4/2/1
f 3/3/2 4/2/2 8/4/2
f 7/5/3 8/4/3 6/6/3
f 5/8/4 6/15/4 2/9/4
f 3/11/5 7/5/5 5/7/5
f 8/4/6 4/16/6 2/13/6
