# Blender 4.2.1 LTS
# www.blender.org
mtllib reptilePierna02.mtl
o MK-X_iOS_OUTWORLD_Syzoth_Reptile_Nimble-Noxious.002
v 0.008130 -0.616034 0.181844
v 0.014359 -0.582747 0.146562
v -0.001782 -0.580638 0.151868
v 0.019313 -0.604497 0.140762
v 0.008130 -0.616034 0.181844
v -0.006037 -0.607276 0.140732
v -0.006037 -0.607276 0.140732
v 0.019313 -0.604497 0.140762
v 0.017033 -0.575242 0.109175
v -0.015836 -0.576382 0.101810
v -0.019119 -0.608775 0.104753
v 0.018942 -0.606232 0.101757
v -0.019119 -0.608775 0.104753
v 0.018942 -0.606232 0.101757
v -0.047728 -0.616660 0.182673
v -0.041374 -0.582621 0.149197
v -0.054325 -0.586675 0.152939
v -0.033457 -0.595315 0.149780
v -0.052277 -0.596200 0.139776
v -0.052277 -0.596200 0.139776
v -0.033457 -0.595315 0.149780
v -0.053083 -0.577749 0.096486
v -0.057053 -0.609744 0.099178
v -0.057053 -0.609744 0.099178
v -0.091593 -0.616092 0.164052
v -0.076215 -0.585020 0.132869
v -0.089077 -0.583855 0.132049
v -0.071020 -0.601935 0.132039
v -0.091593 -0.616092 0.164052
v -0.085329 -0.603962 0.124256
v -0.085329 -0.603962 0.124256
v -0.071020 -0.601935 0.132039
v -0.085277 -0.581386 0.089618
v -0.085781 -0.614565 0.088249
v -0.085781 -0.614565 0.088249
v -0.125063 -0.617664 0.144709
v -0.112961 -0.592327 0.129441
v -0.122146 -0.592805 0.124258
v -0.104596 -0.607132 0.122096
v -0.125063 -0.617664 0.144709
v -0.117405 -0.605655 0.116853
v -0.117405 -0.605655 0.116853
v -0.104596 -0.607132 0.122096
v -0.110979 -0.585631 0.090516
v -0.110953 -0.605216 0.088094
v -0.110953 -0.605216 0.088094
v -0.102391 -0.582649 0.044682
v -0.110783 -0.605403 0.045842
v 0.015642 -0.566143 0.112025
v -0.056493 -0.552302 0.151610
v -0.054281 -0.557472 0.154665
v 0.017033 -0.575242 0.109175
v -0.109860 -0.580834 0.090009
v -0.054281 -0.557472 0.154665
v -0.110979 -0.585631 0.090516
v -0.096667 -0.567478 0.064739
v -0.102391 -0.582649 0.044682
v -0.055451 -0.550906 0.082459
v 0.009487 -0.556562 0.074737
v -0.096667 -0.567478 0.064739
v -0.055451 -0.550906 0.082459
v -0.055322 -0.525892 0.122794
v 0.009487 -0.556562 0.074737
v 0.028916 -0.558516 0.052442
v 0.010022 -0.550253 0.072343
v 0.019888 -0.568384 0.051826
v -0.055436 -0.520227 0.119007
v -0.099801 -0.559026 0.065005
v -0.118527 -0.576628 0.031497
v -0.116977 -0.582846 0.033179
v -0.101413 -0.566754 0.021803
v -0.095159 -0.576965 0.023007
v -0.092450 -0.603176 -0.004007
v -0.042738 -0.614717 0.072903
v -0.110783 -0.605403 0.045842
v 0.019872 -0.606416 0.075139
v -0.095159 -0.576965 0.023007
v 0.019872 -0.606416 0.075139
v 0.008851 -0.568690 0.071334
v 0.016142 -0.595752 0.013133
v -0.036017 -0.615486 0.002981
v -0.092450 -0.603176 -0.004007
v 0.012840 -0.549295 0.013708
v 0.018126 -0.536753 0.018104
v 0.016142 -0.595752 0.013133
v -0.008607 -0.530350 0.035607
v -0.045159 -0.518584 0.038628
v -0.071877 -0.538703 0.031962
v -0.067889 -0.593929 -0.048349
v -0.067889 -0.593929 -0.048349
v -0.031307 -0.616388 -0.045371
v 0.014993 -0.596498 -0.030225
v 0.014993 -0.596498 -0.030225
v 0.017975 -0.599260 -0.075890
v 0.017975 -0.599260 -0.075890
v -0.021190 -0.615897 -0.079352
v 0.012629 -0.604125 -0.115515
v -0.005570 -0.600302 -0.136371
v -0.031762 -0.599048 -0.125351
v -0.050598 -0.602107 -0.091070
v -0.050598 -0.602107 -0.091070
v -0.031762 -0.599048 -0.125351
v -0.005570 -0.600302 -0.136371
v -0.005570 -0.600302 -0.136371
v 0.012629 -0.604125 -0.115515
v -0.071377 -0.129977 -0.022044
v -0.102558 -0.116463 0.001126
v -0.024567 -0.212476 0.011642
v -0.027114 -0.207449 0.041313
v 0.065443 -0.131379 0.019215
v -0.093246 -0.257924 -0.052823
v -0.021917 -0.305964 0.006992
v -0.088126 -0.170379 -0.034196
v 0.049871 -0.265123 -0.030049
v 0.059143 -0.168834 -0.033231
v -0.103270 -0.261049 -0.071736
v -0.085638 -0.283578 -0.049291
v 0.043938 -0.287787 -0.037373
v 0.061022 -0.264948 -0.045294
v -0.106504 -0.119271 -0.069588
v 0.078660 -0.136748 -0.041592
v -0.082122 -0.125667 -0.058289
v 0.030482 -0.099166 -0.136198
v 0.063605 -0.097337 -0.083618
v 0.063605 -0.097337 -0.083618
v -0.076420 -0.182893 -0.150512
v -0.064413 -0.112847 -0.103519
v -0.036214 -0.185079 -0.172808
v 0.066777 -0.145032 -0.102246
v 0.036441 -0.139005 -0.150956
v 0.066831 -0.135447 -0.056506
v 0.066777 -0.145032 -0.102246
v -0.086629 -0.149479 -0.056832
v -0.070438 -0.275465 -0.147114
v -0.030231 -0.273157 -0.170315
v 0.052132 -0.267494 -0.054135
v 0.060788 -0.266750 -0.099394
v -0.095250 -0.182240 -0.111833
v -0.091006 -0.275774 -0.107235
v -0.017184 -0.267950 -0.151581
v -0.017626 -0.143894 -0.158972
v -0.031139 -0.108003 -0.143992
v -0.084883 -0.267789 -0.071310
v 0.030678 -0.270127 -0.142567
v 0.060788 -0.266750 -0.099394
v -0.015836 -0.576382 0.101810
v -0.053083 -0.577749 0.096486
v -0.053083 -0.577749 0.096486
v -0.085277 -0.581386 0.089618
v 0.036339 -0.035886 0.046353
v 0.048619 -0.051826 0.030379
v 0.060225 -0.038738 0.069556
v 0.060226 -0.030439 0.038620
v 0.036339 -0.035886 0.046353
v 0.060225 -0.038738 0.069556
v -0.060098 -0.041042 0.012292
v -0.049130 -0.025364 0.029437
v -0.083873 -0.021272 0.035457
v -0.049130 -0.025364 0.029437
v -0.062917 -0.015602 0.010081
v -0.083873 -0.021272 0.035457
v -0.062213 -0.515680 -0.000766
v -0.083776 -0.535912 -0.036103
v -0.038506 -0.504105 0.015299
v -0.007434 -0.509318 0.006581
v 0.023853 -0.520417 -0.014895
v -0.074466 -0.548416 -0.043140
v -0.056240 -0.488208 -0.070588
v -0.073004 -0.510840 -0.085775
v -0.072146 -0.534172 -0.097258
v -0.062840 -0.532885 -0.093477
v -0.048748 -0.471549 -0.045191
v -0.053479 -0.462375 -0.067577
v -0.028252 -0.480750 -0.013598
v 0.005262 -0.482271 -0.037603
v 0.023396 -0.502329 -0.063364
v -0.031887 -0.522675 -0.115367
v -0.008722 -0.519075 -0.130009
v 0.011925 -0.529104 -0.101775
v -0.008722 -0.519075 -0.130009
v -0.079419 -0.499852 -0.123137
v -0.059368 -0.492584 -0.090085
v -0.064550 -0.522567 -0.100666
v -0.074883 -0.480690 -0.111483
v -0.082790 -0.501564 -0.121891
v -0.065301 -0.493617 -0.082524
v -0.079394 -0.480226 -0.111344
v -0.071189 -0.523673 -0.094526
v -0.074883 -0.480690 -0.111483
v -0.059368 -0.492584 -0.090085
v -0.064550 -0.522567 -0.100666
v -0.079419 -0.499852 -0.123137
v -0.065301 -0.493617 -0.082524
v -0.071189 -0.523673 -0.094526
v -0.064550 -0.522567 -0.100666
v -0.006632 -0.474741 -0.125538
v 0.023085 -0.470504 -0.085505
v -0.043857 -0.484023 -0.109997
v -0.006632 -0.474741 -0.125538
v -0.059368 -0.492584 -0.090085
v 0.025908 -0.093379 0.021762
v -0.015337 -0.047544 0.068622
v -0.022518 -0.120338 0.046353
v 0.072578 -0.055815 0.016632
v -0.053529 -0.088843 0.024490
v -0.080896 -0.041531 -0.011262
v -0.058536 -0.034780 -0.020155
v 0.046229 -0.120280 -0.017780
v -0.072926 -0.384096 -0.051339
v -0.079308 -0.388771 -0.079171
v -0.067730 -0.405219 -0.061819
v -0.029293 -0.407755 -0.008587
v 0.022473 -0.409883 -0.042373
v 0.030995 -0.385574 -0.044112
v 0.034702 -0.391292 -0.051279
v -0.053974 -0.034218 -0.064089
v 0.032004 -0.023199 -0.111576
v 0.072796 -0.025120 -0.070311
v 0.064293 -0.038996 0.004548
v 0.072796 -0.025120 -0.070311
v -0.052363 -0.368820 -0.134557
v -0.016488 -0.367226 -0.147378
v 0.031262 -0.367769 -0.094725
v 0.022962 -0.391804 -0.063620
v 0.002994 -0.454343 -0.137443
v -0.040966 -0.470726 -0.134954
v 0.000441 -0.453016 -0.118820
v 0.020990 -0.359921 -0.117816
v 0.026195 -0.447531 -0.100353
v -0.007068 -0.354644 -0.133119
v 0.026195 -0.447531 -0.100353
v 0.022794 -0.462928 -0.047971
v -0.070632 -0.379950 -0.096905
v -0.059165 -0.462452 -0.106121
v -0.049018 -0.030937 -0.075642
v -0.016880 -0.028793 -0.110321
v -0.059016 -0.386106 -0.076673
v -0.056780 -0.452328 -0.070188
v 0.027394 -0.460520 -0.033702
v -0.032790 -0.476365 -0.004704
v -0.074765 -0.457660 -0.059612
v 0.070816 -0.476022 -0.068977
v 0.032350 -0.444335 -0.048890
v 0.041481 -0.478762 -0.043292
v 0.044916 -0.431992 -0.072124
v 0.034148 -0.445966 -0.099484
v 0.047691 -0.475253 -0.104301
v 0.061909 -0.499313 -0.059922
v 0.069302 -0.497440 -0.070600
v 0.058931 -0.496553 -0.078384
v 0.032657 -0.496235 -0.071906
v 0.023085 -0.470504 -0.085505
v 0.047598 -0.495628 -0.066849
v 0.047598 -0.495628 -0.066849
v 0.021334 -0.486052 -0.043966
v 0.057727 -0.528352 -0.066011
v 0.022794 -0.462928 -0.047971
v 0.032657 -0.496235 -0.071906
v 0.023396 -0.502329 -0.063364
v 0.000441 -0.453016 -0.118820
v 0.026195 -0.447531 -0.100353
v -0.030946 -0.458647 -0.116850
v -0.046517 -0.464444 -0.099498
v -0.053479 -0.462375 -0.067577
v -0.048748 -0.471549 -0.045191
v -0.028252 -0.480750 -0.013598
v 0.026195 -0.447531 -0.100353
v 0.022794 -0.462928 -0.047971
v 0.034148 -0.445966 -0.099484
v 0.023396 -0.502329 -0.063364
v 0.021334 -0.486052 -0.043966
v 0.022794 -0.462928 -0.047971
v -0.046517 -0.464444 -0.099498
v -0.030946 -0.458647 -0.116850
v 0.000441 -0.453016 -0.118820
v 0.077897 -0.017154 0.040699
v -0.003688 0.005799 0.057758
v -0.009643 0.005209 0.085956
v 0.069848 -0.011129 0.011703
v -0.055439 -0.002516 -0.019429
v -0.077719 0.009818 0.004265
v -0.047051 -0.002782 -0.067308
v -0.013523 -0.000560 -0.102141
v 0.072275 -0.000417 -0.064027
v 0.030963 0.000994 -0.097629
v 0.031262 -0.367769 -0.094725
v 0.072275 -0.000417 -0.064027
v 0.026195 -0.447531 -0.100353
vn 0.1686 0.9232 0.3455
vn 0.0273 -0.7463 0.6650
vn -0.1351 0.9570 0.2567
vn -0.4841 -0.7767 0.4029
vn -0.4156 -0.5386 -0.7329
vn 0.1970 -0.5509 -0.8110
vn 0.3682 0.0180 -0.9296
vn -0.3537 -0.5365 -0.7662
vn -0.0241 -0.4741 -0.8801
vn -0.4522 -0.5719 -0.6844
vn 0.4792 0.3368 0.8105
vn -0.1272 0.1401 0.9819
vn 0.3017 -0.1720 0.9378
vn 0.9791 0.1840 0.0865
vn 0.8598 0.5088 0.0426
vn 0.1853 -0.2614 -0.9473
vn 0.1458 -0.4946 -0.8568
vn -0.0486 -0.9956 0.0801
vn 0.9580 -0.2018 -0.2038
vn -0.7497 0.6465 0.1413
vn -0.7054 0.7042 0.0802
vn -0.5071 0.8517 -0.1325
vn -0.1330 0.9029 -0.4088
vn 0.3749 -0.2947 0.8790
vn -0.2738 -0.7389 0.6157
vn 0.1767 -0.4766 0.8612
vn 0.2473 -0.8738 0.4187
vn 0.7454 -0.4695 0.4732
vn 0.8489 0.2624 0.4587
vn 0.9706 0.2231 -0.0908
vn 0.2864 0.9543 0.0858
vn -0.1249 0.1359 0.9828
vn -0.2017 -0.2963 0.9336
vn -0.9853 0.0143 0.1700
vn 0.9771 -0.0785 -0.1976
vn 0.9909 -0.0195 0.1334
vn 0.9922 -0.0757 0.0987
vn 0.9949 -0.0499 0.0878
vn 0.9609 -0.2766 0.0144
vn 0.9713 -0.1514 0.1833
vn 0.9989 -0.0358 0.0295
vn 0.9874 0.1558 -0.0270
vn 0.9610 -0.0878 0.2623
vn 0.9376 -0.3209 0.1340
vn 0.5625 -0.1374 0.8153
vn -0.0998 -0.0745 0.9922
vn 0.9804 0.1958 0.0221
vn 0.8137 -0.1501 0.5616
vn 0.8768 -0.0730 0.4753
vn 0.9178 -0.0418 0.3948
vn -0.1756 -0.0349 0.9838
vn -0.0701 -0.1269 0.9894
vn 0.8190 -0.3258 0.4723
vn 0.7547 -0.2006 0.6246
vn -0.1270 -0.5514 0.8245
vn 0.9631 -0.0526 0.2638
vn 0.7998 -0.6003 -0.0058
vn 0.9871 -0.1288 -0.0955
vn 0.9722 0.0734 -0.2222
vn -0.2417 -0.4966 0.8337
vn -0.9121 -0.3625 -0.1913
vn -0.4777 -0.8785 0.0094
vn 0.8565 -0.3754 0.3543
vn 0.9305 -0.3572 -0.0809
vn 0.9941 -0.0133 0.1077
vn 0.9730 -0.1919 0.1286
vn -0.0095 -0.9141 0.4055
vn 0.8151 -0.4837 -0.3189
vn 0.7198 -0.4520 -0.5269
vn 0.3449 -0.1428 -0.9277
vn -0.6333 -0.1888 -0.7505
vn -0.2339 -0.8278 -0.5098
vn 0.2958 -0.8841 0.3618
vn -0.8454 -0.5320 -0.0484
vn -0.4227 -0.8802 0.2158
vn -0.8376 -0.2427 -0.4894
vn -0.6241 -0.6243 -0.4699
vn -0.9832 -0.0759 -0.1659
vn -0.9586 -0.2810 -0.0470
vn -0.9828 -0.1844 0.0052
vn -0.9361 -0.3123 -0.1618
vn -0.9056 -0.2340 0.3538
vn -0.7607 -0.6470 -0.0518
vn -0.9328 -0.0846 0.3503
vn -0.9804 -0.1339 -0.1444
vn -0.8632 0.1524 -0.4814
vn -0.9959 -0.0016 0.0905
vn -0.8089 0.1409 -0.5708
vn -0.8790 -0.0209 0.4764
vn -0.7694 -0.2803 -0.5739
vn -0.8750 -0.1618 -0.4562
vn -0.9721 0.1443 -0.1850
vn -0.7148 -0.1456 -0.6840
vn -0.9646 0.0137 -0.2633
vn -0.8230 0.1909 -0.5351
vn -0.9479 0.2283 -0.2221
vn -0.8208 0.3461 -0.4544
vn -0.6873 0.2272 -0.6899
vn -0.8258 0.2649 -0.4978
vn -0.8776 0.2220 -0.4250
vn 0.9972 -0.0538 0.0511
vn 0.9974 -0.0165 -0.0707
vn 0.9996 -0.0211 -0.0165
vn 0.9033 0.0117 -0.4288
vn 0.8978 0.0875 -0.4315
vn 0.7754 0.1115 -0.6215
vn 0.8139 0.0449 -0.5792
vn 0.8057 -0.0204 -0.5919
vn 0.8314 -0.1708 -0.5287
vn 0.7535 -0.2106 -0.6227
vn 0.5728 -0.4982 -0.6509
vn 0.6331 0.2041 0.7467
vn 0.9241 0.2740 0.2666
vn 0.9805 -0.1715 -0.0961
vn 0.9965 0.0450 -0.0710
vn 0.9624 -0.2428 0.1218
vn 0.9903 0.1368 0.0228
vn 0.2375 -0.4442 0.8639
vn 0.4741 0.0417 0.8795
vn -0.0345 0.7566 0.6530
vn 0.4370 0.7054 0.5581
vn 0.9267 0.3303 0.1795
vn 0.9848 -0.0246 0.1717
vn 0.7124 -0.0844 0.6967
vn 0.3931 0.8186 0.4187
vn -0.1795 0.8277 0.5316
vn -0.7003 0.6622 0.2666
vn -0.8934 0.3818 0.2370
vn -0.9107 0.4064 0.0742
vn -0.9943 0.1062 0.0007
vn -0.8715 0.2344 -0.4308
vn -0.8011 0.4184 -0.4280
vn -0.6696 0.0478 -0.7412
vn -0.7355 0.6522 0.1835
vn -0.4364 0.1176 -0.8920
vn -0.9761 0.1331 -0.1717
vn -0.8878 0.3424 -0.3075
vn -0.6735 0.0500 -0.7375
vn -0.5456 0.0252 -0.8377
vn -0.4507 -0.2636 -0.8528
vn -0.4413 -0.4731 -0.7625
vn -0.4096 -0.4434 -0.7973
vn -0.8982 -0.2416 -0.3672
vn -0.8549 0.2572 -0.4505
vn -0.8727 0.3108 0.3766
vn -0.5530 -0.5197 0.6512
vn -0.1023 -0.0344 0.9942
vn -0.9354 0.1309 -0.3284
vn -0.5773 -0.8141 -0.0633
vn -0.8548 -0.0651 -0.5148
vn 0.3481 -0.9113 0.2198
vn -0.1378 0.8319 0.5376
vn 0.6586 0.5761 0.4841
vn -0.1802 0.9455 0.2713
vn -0.6554 0.7464 0.1160
vn 0.0580 -0.8485 0.5260
vn 0.9396 0.1072 0.3251
vn 0.8193 0.5724 0.0336
vn 0.9982 0.0579 0.0150
vn 0.9763 0.1391 0.1660
vn 0.6731 0.6440 0.3637
vn -0.0502 0.4614 0.8858
vn -0.4621 0.7030 0.5406
vn -0.9501 0.0469 0.3083
vn -0.0861 0.9023 0.4225
vn -0.1457 0.1041 0.9838
vn 0.7655 0.3889 0.5126
vn 0.2572 0.8458 0.4674
vn -0.2857 0.5444 0.7887
vn -0.7511 0.5336 0.3887
vn -0.9931 -0.1165 -0.0102
vn -0.1641 0.9329 0.3205
vn 0.0589 0.0764 0.9953
vn 0.8224 0.1550 0.5474
vn 0.4266 0.7303 0.5335
vn -0.6702 0.6971 0.2547
vn -0.4285 0.9012 0.0647
vn -0.4136 0.5064 0.7567
vn -0.9814 -0.1272 -0.1437
vn 0.8704 -0.0335 0.4912
vn 0.6343 0.5619 0.5309
vn 0.7902 0.0839 0.6071
vn 0.2492 0.6784 0.6911
vn -0.3322 0.3106 0.8906
vn -0.8143 0.5708 0.1056
vn -0.9420 -0.1212 -0.3129
vn -0.8589 0.5038 -0.0920
vn -0.9821 0.0759 -0.1725
vn -0.9419 0.2991 -0.1529
vn -0.9386 0.3181 -0.1333
vn -0.9367 0.1221 -0.3282
vn -0.9032 -0.0823 -0.4212
vn -0.9003 -0.1557 -0.4064
vn -0.6038 0.0223 -0.7968
vn -0.4174 0.1028 -0.9029
vn -0.5028 0.0386 -0.8636
vn -0.2981 0.1538 -0.9421
vn -0.1177 0.3281 -0.9373
vn -0.6093 -0.3980 0.6858
vn 0.1257 -0.9490 0.2890
vn 0.0363 -0.9434 0.3296
vn -0.9657 -0.0519 0.2546
vn -0.8728 0.4774 0.1013
vn -0.2711 0.7510 0.6021
vn -0.7026 0.7105 0.0386
vn -0.8595 0.4946 -0.1289
vn -0.1798 0.9804 0.0807
vn 0.4641 0.5367 0.7047
vn 0.4833 0.0483 0.8741
vn 0.3126 -0.6098 0.7283
vn -0.0281 -0.9475 0.3185
vn -0.0123 -0.9443 0.3289
vn 0.1116 0.9668 0.2300
vn -0.4025 0.3411 -0.8495
vn 0.4763 0.3362 -0.8125
vn -0.4577 0.2859 -0.8419
vn 0.3783 0.3138 -0.8709
vn -0.3816 0.3362 -0.8610
vn 0.3617 0.4773 -0.8009
vn 0.6726 0.2585 -0.6934
vn 0.7087 0.1220 -0.6949
vn 0.8026 0.1708 -0.5715
vn 0.8405 0.1093 -0.5307
vn 0.5447 -0.1518 -0.8248
vn 0.5349 0.1523 -0.8310
vn -0.1306 0.2529 -0.9586
vn 0.5492 -0.0586 -0.8337
vn 0.0293 0.1536 -0.9877
vn 0.2109 -0.0919 -0.9732
vn 0.6423 -0.1101 -0.7585
vn 0.6880 -0.1878 -0.7010
vn 0.6557 -0.1099 -0.7470
vn 0.8880 -0.1330 -0.4402
vn 0.8211 -0.1407 -0.5532
vn 0.0507 -0.9221 -0.3836
vn -0.0325 -0.9799 -0.1966
vn -0.0989 -0.9790 -0.1782
vn -0.3191 -0.9477 0.0018
vn -0.1284 -0.9910 0.0366
vn -0.1788 -0.9814 -0.0702
vn 0.0568 -0.9976 -0.0391
vn 0.0494 -0.9982 0.0344
vn 0.0280 -0.9678 0.2503
vn 0.1219 -0.9902 0.0677
vn 0.1428 -0.9897 -0.0048
vn 0.2643 -0.9333 -0.2429
vn 0.0469 -0.9901 0.1324
vn -0.0920 -0.9617 0.2582
vn -0.0651 -0.9572 0.2820
vn 0.1060 -0.9645 -0.2420
vn 0.0968 -0.9922 -0.0785
vn 0.1087 -0.9903 -0.0869
vn 0.0752 -0.9970 0.0177
vn 0.1149 -0.9913 -0.0635
vn 0.2962 -0.9546 -0.0303
vn 0.3674 -0.9288 0.0493
vn -0.0890 -0.9960 0.0040
vn 0.3799 -0.9219 0.0758
vn 0.0076 -0.9965 -0.0829
vn 0.1912 -0.9719 -0.1376
vn -0.0470 -0.9602 -0.2755
vn -0.2194 -0.9313 -0.2907
vn -0.3964 -0.9026 -0.1679
vn -0.4128 -0.9019 -0.1272
vn -0.1870 -0.9641 -0.1885
vn -0.9507 -0.1113 0.2894
vn -0.6913 0.1272 -0.7113
vn -0.1227 -0.7325 0.6696
vn -0.9575 0.2777 -0.0785
vn -0.7474 0.0619 0.6615
vn -0.6307 0.5494 0.5481
vn 0.1257 0.9207 0.3694
vn -0.6195 0.7764 -0.1156
vn 0.2532 0.9118 0.3232
vn -0.3091 -0.7954 -0.5214
vn -0.7932 -0.2845 -0.5384
vn 0.0730 -0.6768 -0.7325
vn -0.8650 -0.5004 -0.0376
vn 0.2069 0.3883 -0.8980
vn 0.5236 0.3488 -0.7773
vn 0.8457 0.0719 -0.5288
vn 0.8506 0.0380 -0.5244
vt 0.772949 0.490234
vt 0.826660 0.505127
vt 0.774414 0.503906
vt 0.775879 0.517334
vt 0.777344 0.531006
vt 0.263916 0.041504
vt 0.270508 0.056152
vt 0.274902 0.055176
vt 0.259277 0.020996
vt 0.266113 0.025391
vt 0.274658 0.023438
vt 0.307617 0.056152
vt 0.316650 0.048828
vt 0.310059 0.037598
vt 0.291504 0.035156
vt 0.291260 0.061035
vt 0.276367 0.041016
vt 0.282715 0.027832
vt 0.289307 0.008301
vt 0.290039 0.026855
vt 0.318359 0.063477
vt 0.293213 0.086426
vt 0.290283 0.083008
vt 0.297119 0.024414
vt 0.306152 0.021484
vt 0.321533 0.036133
vt 0.315186 0.018555
vt 0.323242 0.020996
vt 0.351807 0.280273
vt 0.342041 0.285645
vt 0.406494 0.309082
vt 0.406494 0.293945
vt 0.408203 0.259277
vt 0.462402 0.282227
vt 0.337402 0.262207
vt 0.284424 0.194824
vt 0.285889 0.255371
vt 0.289063 0.275391
vt 0.348389 0.105469
vt 0.325439 0.099121
vt 0.298828 0.161133
vt 0.320313 0.172363
vt 0.335449 0.192871
vt 0.346924 0.254883
vt 0.373779 0.220703
vt 0.409424 0.206543
vt 0.327637 0.172363
vt 0.339355 0.160156
vt 0.370850 0.040039
vt 0.367920 0.051758
vt 0.409668 0.044434
vt 0.406738 0.095703
vt 0.359863 0.097656
vt 0.359375 0.109863
vt 0.411133 0.143555
vt 0.354980 0.195313
vt 0.352539 0.104980
vt 0.358398 0.046387
vt 0.365479 0.048828
vt 0.408203 0.009766
vt 0.448975 0.020508
vt 0.434814 0.007324
vt 0.370361 0.015137
vt 0.366455 0.009766
vt 0.337891 0.010742
vt 0.340576 0.055176
vt 0.406250 0.005371
vt 0.526855 0.012207
vt 0.520508 0.017090
vt 0.524414 0.062500
vt 0.502930 0.064453
vt 0.501465 0.014648
vt 0.503906 0.004883
vt 0.485840 0.017090
vt 0.483643 0.007324
vt 0.460205 0.020020
vt 0.455811 0.011230
vt 0.463623 0.055664
vt 0.452148 0.046387
vt 0.478027 0.060059
vt 0.469971 0.117188
vt 0.457275 0.109863
vt 0.467773 0.120117
vt 0.463135 0.122070
vt 0.487549 0.113281
vt 0.499268 0.186035
vt 0.478271 0.188965
vt 0.474854 0.257813
vt 0.473877 0.166992
vt 0.494873 0.184570
vt 0.488281 0.174805
vt 0.500488 0.155762
vt 0.507813 0.112793
vt 0.467773 0.254883
vt 0.467773 0.289063
vt 0.495605 0.250977
vt 0.512695 0.192383
vt 0.514648 0.153320
vt 0.502441 0.251465
vt 0.496338 0.272949
vt 0.855469 0.398438
vt 0.851563 0.420410
vt 0.898926 0.420898
vt 0.883789 0.438477
vt 0.846191 0.439941
vt 0.847168 0.453613
vt 0.887207 0.456055
vt 0.909180 0.455566
vt 0.913086 0.432617
vt 0.919922 0.451660
vt 0.920898 0.437988
vt 0.912109 0.410156
vt 0.894043 0.396973
vt 0.883301 0.379395
vt 0.858887 0.375488
vt 0.878418 0.357422
vt 0.858398 0.338867
vt 0.909668 0.417480
vt 0.916016 0.420898
vt 0.920898 0.395996
vt 0.908691 0.385742
vt 0.890625 0.378418
vt 0.883789 0.358887
vt 0.888672 0.348145
vt 0.905273 0.368652
vt 0.923340 0.380859
vt 0.937500 0.384766
vt 0.926758 0.409180
vt 0.936523 0.416992
vt 0.925293 0.418457
vt 0.928223 0.432129
vt 0.940430 0.424805
vt 0.937500 0.436523
vt 0.941895 0.420898
vt 0.925781 0.443359
vt 0.955566 0.396484
vt 0.948730 0.419434
vt 0.953613 0.422363
vt 0.955078 0.440918
vt 0.954102 0.425293
vt 0.959473 0.423828
vt 0.956543 0.422852
vt 0.962891 0.400391
vt 0.963867 0.362793
vt 0.954590 0.345215
vt 0.956055 0.340820
vt 0.924316 0.322754
vt 0.965332 0.354980
vt 0.968750 0.355469
vt 0.970215 0.362793
vt 0.960938 0.331543
vt 0.924316 0.327148
vt 0.892578 0.349609
vt 0.925293 0.365723
vt 0.942871 0.364746
vt 0.925293 0.309082
vt 0.883301 0.344238
vt 0.880371 0.315918
vt 0.858887 0.321289
vt 0.858398 0.294434
vt 0.871582 0.295410
vt 0.869629 0.261719
vt 0.877930 0.291504
vt 0.887695 0.286621
vt 0.902344 0.305176
vt 0.898438 0.293457
vt 0.905762 0.282227
vt 0.911621 0.284180
vt 0.910156 0.261719
vt 0.915527 0.281250
vt 0.922363 0.283203
vt 0.929688 0.302246
vt 0.932129 0.291016
vt 0.938965 0.287598
vt 0.943848 0.290039
vt 0.948730 0.289063
vt 0.954590 0.303223
vt 0.950684 0.261719
vt 0.957031 0.287598
vt 0.958008 0.293945
vt 0.966797 0.288086
vt 0.974609 0.288086
vt 0.977051 0.261719
vt 0.979492 0.289063
vt 0.988281 0.289551
vt 0.971680 0.308105
vt 0.986328 0.310547
vt 0.972656 0.346191
vt 0.987793 0.342773
vt 0.987305 0.375488
vt 0.985352 0.401367
vt 0.990723 0.422363
vt 0.990723 0.440918
vt 0.991699 0.454102
vt 0.954102 0.453125
vt 0.934082 0.455078
vt 0.923340 0.458008
vt 0.892090 0.482422
vt 0.927246 0.499512
vt 0.923828 0.482422
vt 0.927246 0.512939
vt 0.924805 0.513916
vt 0.890625 0.485352
vt 0.917480 0.528320
vt 0.927246 0.537598
vt 0.893066 0.520996
vt 0.855469 0.509033
vt 0.888184 0.482910
vt 0.851074 0.507813
vt 0.854004 0.490723
vt 0.858398 0.471680
vt 0.859863 0.528076
vt 0.529297 0.249023
vt 0.559082 0.203613
vt 0.532715 0.193359
vt 0.557129 0.253906
vt 0.528320 0.270996
vt 0.557617 0.272949
vt 0.588379 0.275879
vt 0.590332 0.261719
vt 0.589355 0.217285
vt 0.587402 0.178223
vt 0.562012 0.112305
vt 0.560059 0.179199
vt 0.537598 0.173828
vt 0.539063 0.113770
vt 0.530273 0.152832
vt 0.528320 0.112793
vt 0.536621 0.066895
vt 0.553711 0.060059
vt 0.545898 0.008789
vt 0.566895 0.051270
vt 0.589844 0.110840
vt 0.197632 0.302246
vt 0.200928 0.317383
vt 0.207275 0.314941
vt 0.203613 0.331543
vt 0.216919 0.331543
vt 0.203369 0.352539
vt 0.240479 0.375488
vt 0.238159 0.340332
vt 0.231445 0.326660
vt 0.217896 0.313477
vt 0.224976 0.309570
vt 0.214233 0.293457
vt 0.250244 0.324219
vt 0.243774 0.301758
vt 0.234619 0.305664
vt 0.264648 0.285156
vt 0.257324 0.306152
vt 0.270020 0.306152
vt 0.269531 0.326172
vt 0.269775 0.339355
vt 0.268311 0.370605
vt 0.267578 0.392090
vt 0.242676 0.399414
vt 0.268066 0.415039
vt 0.247192 0.416016
vt 0.263672 0.434570
vt 0.254150 0.444824
vt 0.241089 0.439453
vt 0.231689 0.422363
vt 0.221680 0.401367
vt 0.211426 0.377930
vt 0.448975 0.058105
vt 0.457764 0.053711
vt 0.411621 0.149902
vt 0.459229 0.194336
vt 0.436279 0.221191
vt 0.957520 0.023926
vt 0.970703 0.024902
vt 0.971191 0.022949
vt 0.959473 0.026855
vt 0.958496 0.007324
vt 0.971680 0.013184
vt 0.972168 0.011719
vt 0.957031 0.010742
vt 0.973145 0.013672
vt 0.973145 0.022949
vt 0.985352 0.023926
vt 0.987305 0.011230
s 1
usemtl MKX_iOS_OUT_SYZ_NNO_B
f 160/1/1 161/2/1 159/3/1
f 157/3/2 158/2/2 156/4/2
f 154/1/3 155/2/3 153/3/3
f 151/4/4 152/2/4 150/5/4
f 252/6/5 288/7/6 246/8/7
f 259/9/8 252/6/5 251/10/9
f 252/6/5 253/11/10 251/10/9
f 243/12/11 257/13/12 244/14/13
f 243/12/11 244/14/13 242/15/14
f 242/15/14 245/16/15 243/12/11
f 242/15/14 246/8/7 245/16/15
f 247/17/16 246/8/7 242/15/14
f 246/8/7 247/17/16 252/6/5
f 252/6/5 247/17/16 250/18/17
f 250/18/17 253/11/10 252/6/5
f 256/19/18 253/11/10 250/18/17
f 256/19/18 250/18/17 249/20/19
f 249/20/19 250/18/17 242/15/14
f 250/18/17 247/17/16 242/15/14
f 268/21/20 245/16/21 267/22/22
f 269/23/23 267/22/22 245/16/21
f 256/19/18 248/24/24 254/25/25
f 256/19/18 249/20/19 248/24/24
f 248/24/24 249/20/19 242/15/14
f 242/15/14 244/14/13 248/24/24
f 254/25/25 248/24/24 244/14/13
f 244/14/13 255/26/26 254/25/25
f 258/27/27 254/25/25 255/26/26
f 270/28/28 258/27/27 255/26/26
f 255/26/26 244/14/13 257/13/12
f 276/29/29 279/30/30 277/31/31
f 277/31/31 278/32/32 276/29/29
f 276/29/29 278/32/32 202/33/33
f 281/34/34 202/33/33 278/32/32
f 219/35/35 279/30/30 276/29/29
f 125/36/36 220/37/37 219/35/35
f 219/35/35 220/37/37 287/38/38
f 287/38/38 279/30/30 219/35/35
f 136/39/39 137/40/40 132/41/41
f 132/41/41 131/42/42 136/39/39
f 132/41/41 125/36/36 131/42/42
f 208/43/43 131/42/42 125/36/36
f 219/35/35 208/43/43 125/36/36
f 219/35/35 204/44/44 208/43/43
f 276/29/29 204/44/44 219/35/35
f 202/33/33 204/44/44 276/29/29
f 202/33/33 201/45/45 204/44/44
f 202/33/33 203/46/46 201/45/45
f 121/47/47 208/43/43 115/48/48
f 213/49/49 214/50/50 212/51/51
f 112/52/52 212/51/51 214/50/50
f 214/50/50 118/53/53 112/52/52
f 118/53/53 114/54/54 112/52/52
f 108/55/55 112/52/52 114/54/54
f 114/54/54 115/48/48 108/55/55
f 108/55/55 115/48/48 208/43/43
f 108/55/55 208/43/43 110/56/56
f 110/56/56 208/43/43 201/45/45
f 208/43/43 204/44/44 201/45/45
f 131/42/42 208/43/43 121/47/47
f 131/42/42 121/47/47 115/48/48
f 131/42/42 115/48/48 136/39/39
f 114/54/54 136/39/39 115/48/48
f 118/53/53 119/57/57 114/54/54
f 119/57/57 118/53/53 136/39/39
f 224/58/58 136/39/39 118/53/53
f 118/53/53 214/50/50 224/58/58
f 215/59/59 224/58/58 214/50/50
f 214/50/50 213/49/49 215/59/59
f 224/58/58 215/59/59 213/49/49
f 240/60/60 241/61/61 265/62/62
f 241/61/61 240/60/60 212/51/51
f 240/60/60 239/63/63 212/51/51
f 212/51/51 239/63/63 213/49/49
f 213/49/49 239/63/63 232/64/64
f 232/64/64 224/58/58 213/49/49
f 224/58/58 232/64/64 231/65/65
f 231/65/65 223/66/66 224/58/58
f 136/39/39 224/58/58 223/66/66
f 223/66/66 137/40/40 136/39/39
f 266/67/67 240/60/60 265/62/62
f 239/63/63 240/60/60 266/67/67
f 266/67/67 232/64/64 239/63/63
f 227/68/68 225/69/69 222/70/70
f 221/71/71 222/70/70 225/69/69
f 225/69/69 226/72/72 221/71/71
f 262/73/73 226/72/72 225/69/69
f 234/74/74 226/72/72 262/73/73
f 234/74/74 263/75/75 238/76/76
f 263/75/75 264/77/77 238/76/76
f 264/77/77 241/61/61 238/76/76
f 241/61/61 264/77/77 265/62/62
f 225/69/69 227/68/68 262/73/73
f 234/74/74 238/76/76 237/78/78
f 238/76/76 211/79/79 237/78/78
f 211/79/79 238/76/76 241/61/61
f 212/51/51 211/79/79 241/61/61
f 221/71/71 226/72/72 234/74/74
f 234/74/74 233/80/80 221/71/71
f 237/78/78 233/80/80 234/74/74
f 233/80/80 237/78/78 143/81/81
f 117/82/82 143/81/81 237/78/78
f 116/83/83 143/81/81 117/82/82
f 117/82/82 111/84/84 116/83/83
f 221/71/71 233/80/80 139/85/85
f 143/81/81 139/85/85 233/80/80
f 122/86/86 106/87/87 207/88/88
f 113/89/89 106/87/87 120/90/90
f 113/89/89 120/90/90 133/91/91
f 111/84/84 113/89/89 133/91/91
f 133/91/91 143/81/81 111/84/84
f 143/81/81 133/91/91 138/92/92
f 138/92/92 139/85/85 143/81/81
f 134/93/93 139/85/85 138/92/92
f 139/85/85 134/93/93 221/71/71
f 120/90/90 122/86/86 133/91/91
f 207/88/88 106/87/87 206/94/94
f 281/34/34 206/94/94 202/33/33
f 281/34/34 280/95/95 206/94/94
f 280/95/95 207/88/88 206/94/94
f 216/96/96 207/88/88 280/95/95
f 207/88/88 216/96/96 122/86/86
f 127/97/97 122/86/86 216/96/96
f 127/97/97 133/91/91 122/86/86
f 127/97/97 138/92/92 133/91/91
f 127/97/97 126/98/98 138/92/92
f 138/92/92 126/98/98 134/93/93
f 216/96/96 235/99/99 127/97/97
f 235/99/99 216/96/96 282/100/100
f 280/95/95 282/100/100 216/96/96
f 93/101/101 94/102/102 176/103/103
f 179/104/104 176/103/103 94/102/102
f 94/102/102 105/105/105 179/104/104
f 179/104/104 105/105/105 104/106/106
f 104/106/106 180/107/107 179/104/104
f 196/108/108 179/104/104 180/107/107
f 179/104/104 196/108/108 197/109/109
f 196/108/108 260/110/110 197/109/109
f 261/111/111 197/109/109 260/110/110
f 197/109/109 176/103/103 179/104/104
f 176/103/103 175/112/112 166/113/113
f 176/103/103 166/113/113 93/101/101
f 166/113/113 83/114/114 93/101/101
f 85/115/115 93/101/101 83/114/114
f 85/115/115 83/114/114 66/116/116
f 66/116/116 78/117/117 85/115/115
f 271/118/118 175/112/112 176/103/103
f 271/118/118 272/119/119 175/112/112
f 272/119/119 174/120/120 175/112/112
f 175/112/112 174/120/120 165/121/121
f 175/112/112 165/121/121 166/113/113
f 166/113/113 165/121/121 84/122/122
f 83/114/114 166/113/113 84/122/122
f 83/114/114 84/122/122 64/123/123
f 64/123/123 66/116/116 83/114/114
f 66/116/116 64/123/123 63/124/124
f 86/125/125 64/123/123 84/122/122
f 165/121/121 86/125/125 84/122/122
f 86/125/125 165/121/121 164/126/126
f 165/121/121 174/120/120 164/126/126
f 162/127/127 164/126/126 174/120/120
f 174/120/120 172/128/128 162/127/127
f 162/127/127 172/128/128 168/129/129
f 172/128/128 173/130/130 168/129/129
f 168/129/129 173/130/130 273/131/131
f 168/129/129 273/131/131 200/132/132
f 200/132/132 273/131/131 198/133/133
f 168/129/129 200/132/132 193/134/134
f 273/131/131 274/135/135 198/133/133
f 163/136/136 162/127/127 168/129/129
f 168/129/129 169/137/137 163/136/136
f 168/129/129 193/134/134 169/137/137
f 194/138/138 169/137/137 193/134/134
f 198/133/133 177/139/139 200/132/132
f 200/132/132 177/139/139 195/140/140
f 177/139/139 171/141/141 195/140/140
f 194/138/138 195/140/140 171/141/141
f 171/141/141 170/142/142 194/138/138
f 170/142/142 169/137/137 194/138/138
f 169/137/137 170/142/142 167/143/143
f 167/143/143 163/136/136 169/137/137
f 71/144/144 163/136/136 167/143/143
f 162/127/127 163/136/136 71/144/144
f 167/143/143 170/142/142 171/141/141
f 68/145/145 60/146/146 62/147/147
f 60/146/146 68/145/145 69/148/148
f 71/144/144 69/148/148 68/145/145
f 70/149/149 69/148/148 71/144/144
f 71/144/144 72/150/150 70/149/149
f 72/150/150 71/144/144 167/143/143
f 69/148/148 70/149/149 60/146/146
f 77/151/151 60/146/146 70/149/149
f 67/152/152 62/147/147 65/153/153
f 62/147/147 67/152/152 68/145/145
f 68/145/145 67/152/152 87/154/154
f 87/154/154 88/155/155 68/145/145
f 68/145/145 88/155/155 71/144/144
f 87/154/154 67/152/152 65/153/153
f 71/144/144 88/155/155 162/127/127
f 164/126/126 162/127/127 88/155/155
f 88/155/155 87/154/154 164/126/126
f 164/126/126 87/154/154 86/125/125
f 65/153/153 86/125/125 87/154/154
f 86/125/125 65/153/153 64/123/123
f 65/153/153 63/124/124 64/123/123
f 63/124/124 65/153/153 62/147/147
f 63/124/124 62/147/147 61/156/156
f 61/156/156 62/147/147 60/146/146
f 79/157/157 66/116/116 63/124/124
f 66/116/116 79/157/157 78/117/117
f 78/117/117 79/157/157 9/158/158
f 9/158/158 14/159/159 78/117/117
f 14/159/159 9/158/158 8/160/160
f 9/158/158 2/161/161 8/160/160
f 2/161/161 1/162/162 8/160/160
f 2/161/161 3/163/163 1/162/162
f 3/163/163 7/164/164 1/162/162
f 7/164/164 3/163/163 10/165/165
f 9/158/158 10/165/165 3/163/163
f 3/163/163 2/161/161 9/158/158
f 10/165/165 11/166/166 7/164/164
f 11/166/166 10/165/165 21/167/167
f 16/168/168 21/167/167 10/165/165
f 16/168/168 15/169/169 21/167/167
f 16/168/168 17/170/170 15/169/169
f 17/170/170 20/171/171 15/169/169
f 20/171/171 17/170/170 22/172/172
f 22/172/172 23/173/173 20/171/171
f 23/173/173 22/172/172 32/174/174
f 22/172/172 26/175/175 32/174/174
f 17/170/170 16/168/168 22/172/172
f 10/165/165 22/172/172 16/168/168
f 27/176/176 26/175/175 33/177/177
f 22/172/172 33/177/177 26/175/175
f 26/175/175 25/178/178 32/174/174
f 26/175/175 27/176/176 25/178/178
f 27/176/176 31/179/179 25/178/178
f 31/179/179 27/176/176 33/177/177
f 34/180/180 33/177/181 43/181/182
f 33/177/181 37/182/183 43/181/182
f 37/182/183 36/183/184 43/181/182
f 37/182/183 38/184/185 36/183/184
f 38/184/185 42/185/186 36/183/184
f 38/184/185 37/182/183 44/186/187
f 33/177/181 44/186/187 37/182/183
f 42/185/186 38/184/185 44/186/187
f 44/186/187 45/187/188 42/185/186
f 45/187/188 44/186/187 47/188/189
f 47/188/189 48/189/190 45/187/188
f 48/189/190 47/188/189 72/150/150
f 72/150/150 73/190/191 48/189/190
f 73/190/191 72/150/150 167/143/143
f 167/143/143 89/191/192 73/190/191
f 101/192/193 89/191/192 167/143/143
f 171/141/141 101/192/193 167/143/143
f 102/193/194 101/192/193 171/141/141
f 171/141/141 177/139/139 102/193/194
f 103/194/195 102/193/194 177/139/139
f 177/139/139 178/195/196 103/194/195
f 178/195/196 177/139/139 198/133/133
f 198/133/133 199/196/197 178/195/196
f 198/133/133 274/135/135 199/196/197
f 275/197/198 199/196/197 274/135/135
f 54/198/199 149/199/200 148/200/201
f 54/198/199 55/201/202 149/199/200
f 53/202/203 55/201/202 54/198/199
f 54/198/199 50/203/204 53/202/203
f 56/204/205 57/205/206 55/201/202
f 55/201/202 53/202/203 56/204/205
f 58/206/207 56/204/205 53/202/203
f 50/203/204 58/206/207 53/202/203
f 49/207/208 58/206/207 50/203/204
f 50/203/204 51/208/209 49/207/208
f 51/208/209 52/209/210 49/207/208
f 51/208/209 146/210/211 52/209/210
f 51/208/209 147/211/212 146/210/211
f 58/206/207 49/207/208 59/212/213
f 236/213/214 123/214/215 142/215/216
f 236/213/214 217/216/217 123/214/215
f 217/216/217 236/213/214 283/217/218
f 283/217/218 285/218/219 217/216/217
f 217/216/217 285/218/219 284/219/220
f 284/219/220 218/220/221 217/216/217
f 124/221/222 217/216/217 218/220/221
f 217/216/217 124/221/222 123/214/215
f 123/214/215 124/221/222 129/222/223
f 144/223/224 130/224/225 129/222/223
f 129/222/223 130/224/225 123/214/215
f 123/214/215 130/224/225 141/225/226
f 141/225/226 142/215/216 123/214/215
f 127/97/97 142/215/216 141/225/226
f 236/213/214 142/215/216 127/97/97
f 235/99/99 236/213/214 127/97/97
f 283/217/218 236/213/214 235/99/99
f 282/100/100 283/217/218 235/99/99
f 141/225/226 130/224/225 144/223/224
f 144/223/224 140/226/227 141/225/226
f 128/227/228 141/225/226 140/226/227
f 141/225/226 128/227/228 127/97/97
f 127/97/97 128/227/228 126/98/98
f 134/93/93 126/98/98 128/227/228
f 128/227/228 135/228/229 134/93/93
f 140/226/227 135/228/229 128/227/228
f 135/228/229 140/226/227 230/229/230
f 230/229/230 140/226/227 144/223/224
f 144/223/224 228/230/231 230/229/230
f 221/71/71 134/93/93 135/228/229
f 135/228/229 222/70/70 221/71/71
f 230/229/230 222/70/70 135/228/229
f 222/70/70 230/229/230 227/68/68
f 227/68/68 230/229/230 228/230/231
f 228/230/231 229/231/232 227/68/68
f 229/231/232 228/230/231 286/232/233
f 145/233/234 286/232/233 228/230/231
f 228/230/231 144/223/224 145/233/234
f 129/222/223 145/233/234 144/223/224
f 40/234/235 41/235/236 39/236/237
f 39/236/237 41/235/236 46/237/238
f 46/237/238 35/238/239 39/236/237
f 75/239/240 35/238/239 46/237/238
f 81/240/241 74/241/242 75/239/240
f 74/241/242 35/238/239 75/239/240
f 35/238/239 74/241/242 24/242/243
f 35/238/239 24/242/243 30/243/244
f 24/242/243 28/244/245 30/243/244
f 29/245/246 30/243/244 28/244/245
f 13/246/247 18/247/248 19/248/249
f 24/242/243 13/246/247 19/248/249
f 24/242/243 74/241/242 13/246/247
f 5/249/250 6/250/251 4/251/252
f 6/250/251 12/252/253 4/251/252
f 13/246/247 12/252/253 6/250/251
f 76/253/254 12/252/253 13/246/247
f 13/246/247 74/241/242 76/253/254
f 80/254/255 76/253/254 74/241/242
f 74/241/242 81/240/241 80/254/255
f 92/255/256 80/254/255 81/240/241
f 81/240/241 91/256/257 92/255/256
f 95/257/258 92/255/256 91/256/257
f 91/256/257 96/258/259 95/257/258
f 97/259/260 95/257/258 96/258/259
f 96/258/259 98/260/261 97/259/260
f 99/261/262 98/260/261 96/258/259
f 96/258/259 100/262/263 99/261/262
f 100/262/263 96/258/259 91/256/257
f 91/256/257 90/263/264 100/262/263
f 90/263/264 91/256/257 81/240/241
f 81/240/241 82/264/265 90/263/264
f 75/239/240 82/264/265 81/240/241
f 108/55/55 106/87/87 113/89/89
f 108/55/55 113/89/89 111/84/84
f 111/84/84 112/52/52 108/55/55
f 117/82/82 112/52/52 111/84/84
f 112/52/52 117/82/82 209/265/266
f 237/78/78 209/265/266 117/82/82
f 237/78/78 210/266/267 209/265/266
f 210/266/267 237/78/78 211/79/79
f 210/266/267 211/79/79 209/265/266
f 209/265/266 211/79/79 212/51/51
f 209/265/266 212/51/51 112/52/52
f 110/56/56 201/45/45 203/46/46
f 203/46/46 109/267/268 110/56/56
f 110/56/56 109/267/268 108/55/55
f 108/55/55 109/267/268 107/268/269
f 107/268/269 106/87/87 108/55/55
f 107/268/269 205/269/270 106/87/87
f 206/94/94 106/87/87 205/269/270
f 206/94/94 205/269/270 202/33/33
f 202/33/33 205/269/270 203/46/46
f 203/46/46 205/269/270 107/268/269
f 107/268/269 109/267/268 203/46/46
f 186/270/271 189/271/272 187/272/273
f 186/270/271 190/273/274 189/271/272
f 191/274/275 185/275/276 192/276/277
f 185/275/276 191/274/275 188/277/278
f 185/275/276 188/277/278 186/270/271
f 186/270/271 187/272/273 185/275/276
f 187/272/273 181/278/279 185/275/276
f 187/272/273 184/279/280 181/278/279
f 181/278/279 184/279/280 182/280/281
f 182/280/281 183/281/282 181/278/279
