# Blender 4.2.1 LTS
# www.blender.org
mtllib reptilePierna01.mtl
o MK-X_iOS_OUTWORLD_Syzoth_Reptile_Nimble-Noxious.001
v -0.111926 -1.183209 0.149780
v -0.126197 -1.204554 0.182673
v -0.130746 -1.184094 0.139776
v -0.163798 -1.191856 0.124256
v -0.163746 -1.169280 0.089618
v -0.164250 -1.202459 0.088249
v -0.149846 -0.717871 -0.022044
v -0.028598 -0.853017 -0.030049
v -0.017447 -0.852842 -0.045294
v -0.184973 -0.707165 -0.069588
v -0.160591 -0.713561 -0.058289
v -0.026337 -0.855388 -0.054135
v -0.023885 0.002181 -0.130253
v -0.055778 -0.297965 0.117435
v -0.072804 -0.532083 0.090649
v 0.032780 -0.338716 0.068543
v 0.020287 -0.554914 0.056023
v -0.139181 -0.274795 0.063649
v -0.148343 -0.278207 -0.043722
v -0.086589 -0.289348 -0.115423
v 0.017249 -0.329761 -0.124053
v 0.061727 -0.337996 -0.030785
v 0.089908 0.003376 -0.137356
v 0.033012 0.002779 -0.133804
v 0.089908 -0.017479 0.127688
v -0.019444 -0.008842 0.101224
v 0.061727 -0.337996 -0.030785
v -0.137634 -1.050346 -0.106121
v -0.109415 -1.046541 -0.116850
v -0.124986 -1.052338 -0.099498
v -0.082157 -0.582095 0.057758
v -0.088112 -0.582685 0.085956
v -0.008621 -0.599023 0.011703
v -0.133908 -0.590410 -0.019429
v -0.156188 -0.578076 0.004265
v -0.082863 -0.062710 0.059382
v -0.092872 0.000789 -0.009019
v -0.105796 -0.070395 -0.040105
v -0.066153 -0.008749 0.062408
v -0.071880 0.003839 -0.078917
v -0.048958 -0.082635 -0.133174
v 0.034484 -0.108084 -0.148283
v -0.137322 -0.526995 0.042457
v -0.169169 -0.523768 -0.044880
v -0.103339 -0.516970 -0.121440
v -0.007590 -0.526242 -0.130748
v -0.106474 -0.150294 0.062537
v -0.116354 -0.144291 -0.041645
v -0.059552 -0.156769 -0.126427
v 0.028067 -0.186513 -0.132822
v 0.082577 -0.231664 -0.006546
v 0.069166 -0.199237 -0.078569
v 0.089908 -0.204950 -0.010976
v 0.089908 -0.178431 -0.060225
v 0.089908 -0.119946 -0.136395
v -0.015699 -0.136549 0.111259
v 0.089908 -0.139954 0.129702
v 0.037841 -0.551198 -0.048441
v 0.067654 -0.239260 0.066917
v 0.037107 -0.216552 0.103888
v 0.082577 -0.231664 -0.006546
v 0.089908 -0.244854 0.081392
v 0.089908 -0.204950 -0.010976
v 0.037841 -0.551198 -0.048441
v 0.089908 -0.195968 0.116084
v -0.125520 -0.590676 -0.067308
v -0.091992 -0.588454 -0.102141
v -0.006194 -0.588311 -0.064027
v -0.047506 -0.586900 -0.097629
v -0.006194 -0.588311 -0.064027
v -0.024560 -0.172745 0.115230
vn -0.7986 -0.2172 0.5613
vn -0.1267 -0.0702 0.9895
vn -0.8545 0.0954 0.5106
vn -0.1592 0.1066 0.9815
vn 0.1413 -0.2983 0.9440
vn -0.2956 0.0589 0.9535
vn 0.7293 -0.2032 0.6534
vn -0.1398 -0.3030 0.9427
vn -0.2096 0.0924 0.9734
vn -0.9853 -0.1293 0.1119
vn 0.2108 0.9524 -0.2203
vn 0.0339 0.9990 0.0281
vn 0.3683 -0.8614 0.3499
vn 0.9420 -0.3355 0.0056
vn 0.9548 -0.1782 0.2378
vn 0.6450 -0.4512 0.6168
vn 0.5650 -0.7468 0.3507
vn 0.6595 -0.7470 -0.0845
vn 0.8899 -0.4494 0.0781
vn -0.1688 0.9792 -0.1122
vn 0.0113 -0.9514 -0.3077
vn 0.2333 0.9713 0.0463
vn -0.9743 -0.1471 -0.1705
vn -0.7884 -0.3700 -0.4915
vn -0.9519 0.1228 -0.2808
vn -0.8108 0.2132 0.5451
vn -0.8064 0.1754 0.5648
vn -0.9669 0.1674 -0.1927
vn -0.9536 0.1785 -0.2425
vn -0.4478 -0.1220 -0.8858
vn -0.4689 0.0369 -0.8825
vn -0.5083 0.0094 -0.8611
vn -0.5376 0.0782 -0.8395
vn -0.8413 0.2055 -0.5001
vn -0.9768 0.2062 0.0577
vn -0.3869 0.1723 -0.9059
vn 0.0754 -0.1493 -0.9859
vn 0.3818 -0.1475 -0.9124
vn 0.4871 -0.0839 -0.8693
vn 0.4118 -0.2630 -0.8725
vn 0.1902 -0.4915 -0.8498
vn 0.5743 -0.5933 -0.5640
vn 0.8366 -0.2253 -0.4994
vn 0.9009 -0.1358 -0.4122
vn 0.7994 -0.2864 -0.5281
vn 0.9439 -0.1975 -0.2647
vn 0.8852 -0.3543 -0.3016
vn 0.7242 -0.4826 -0.4926
vn 0.0730 -0.5148 -0.8542
vn 0.0179 0.0887 -0.9959
vn -0.0631 0.1284 -0.9897
vn -0.9999 0.0149 0.0082
vn -0.3138 -0.2936 -0.9030
vn 0.2729 -0.8568 -0.4376
vn -0.0826 -0.9362 0.3417
vn 0.9519 -0.2814 -0.1216
vn -0.7737 0.2060 0.5992
vn -0.4354 0.0808 0.8966
vn -0.2039 0.0459 0.9779
vn -0.1661 -0.1012 0.9809
vn -0.0708 -0.3678 0.9272
vt 0.436523 0.325195
vt 0.396240 0.428223
vt 0.440430 0.428711
vt 0.398682 0.486816
vt 0.363037 0.477051
vt 0.400879 0.503662
vt 0.345947 0.414551
vt 0.398438 0.330078
vt 0.406494 0.309082
vt 0.467773 0.289063
vt 0.462402 0.282227
vt 0.406494 0.293945
vt 0.337158 0.468262
vt 0.300293 0.467773
vt 0.291260 0.412598
vt 0.348389 0.317383
vt 0.342041 0.285645
vt 0.289063 0.275391
vt 0.296143 0.311523
vt 0.352539 0.104980
vt 0.348389 0.105469
vt 0.359375 0.109863
vt 0.503906 0.004883
vt 0.483643 0.007324
vt 0.485840 0.017090
vt 0.494873 0.184570
vt 0.478271 0.188965
vt 0.499268 0.186035
vt 0.478516 0.315918
vt 0.496338 0.272949
vt 0.485596 0.419434
vt 0.444092 0.483398
vt 0.448242 0.523682
vt 0.492920 0.512939
vt 0.491211 0.479980
vt 0.524902 0.313477
vt 0.527832 0.414551
vt 0.537109 0.474121
vt 0.540039 0.506836
vt 0.515137 0.544922
vt 0.483398 0.546631
vt 0.544922 0.547119
vt 0.577148 0.499512
vt 0.578613 0.462891
vt 0.575684 0.397461
vt 0.567383 0.310547
vt 0.557617 0.272949
vt 0.588379 0.275879
vt 0.609863 0.454590
vt 0.621582 0.391113
vt 0.606934 0.296387
vt 0.639648 0.435547
vt 0.640137 0.447266
vt 0.623047 0.462402
vt 0.602051 0.499023
vt 0.592773 0.551270
vt 0.568848 0.549316
vt 0.954590 0.303223
vt 0.958008 0.293945
vt 0.957031 0.287598
vt 0.528320 0.270996
vt 0.236450 0.283691
vt 0.234619 0.305664
vt 0.243774 0.301758
vt 0.338623 0.478027
vt 0.296875 0.478516
vt 0.449219 0.549072
vt 0.421387 0.554199
vt 0.375000 0.557617
vt 0.355713 0.519775
vt 0.347168 0.497559
s 1
usemtl MKX_iOS_OUT_SYZ_NNO_B
f 43/1/1 14/2/2 18/3/3
f 18/3/3 14/2/2 71/4/4
f 60/5/5 56/6/6 71/4/4
f 60/5/5 71/4/4 14/2/2
f 14/2/2 16/7/7 60/5/5
f 15/8/8 16/7/7 14/2/2
f 43/1/1 15/8/8 14/2/2
f 31/9/9 15/8/8 43/1/1
f 43/1/1 34/10/10 31/9/9
f 34/10/10 35/11/11 31/9/9
f 32/12/12 31/9/9 35/11/11
f 59/13/13 60/5/5 16/7/7
f 61/14/14 59/13/13 27/15/15
f 16/7/7 27/15/15 59/13/13
f 27/15/15 16/7/7 17/16/16
f 15/8/8 17/16/16 16/7/7
f 33/17/17 17/16/16 15/8/8
f 15/8/8 31/9/9 33/17/17
f 33/17/17 70/18/18 58/19/19
f 33/17/17 58/19/19 17/16/16
f 17/16/16 58/19/19 27/15/15
f 9/20/20 12/21/20 8/22/20
f 29/23/21 30/24/21 28/25/21
f 10/26/22 7/27/22 11/28/22
f 34/10/10 44/29/23 66/30/24
f 34/10/10 43/1/1 44/29/23
f 19/31/25 44/29/23 43/1/1
f 18/3/3 19/31/25 43/1/1
f 19/31/25 18/3/3 47/32/26
f 71/4/4 47/32/26 18/3/3
f 47/32/26 71/4/4 56/6/6
f 56/6/6 36/33/27 47/32/26
f 36/33/27 38/34/28 47/32/26
f 38/34/28 48/35/29 47/32/26
f 47/32/26 48/35/29 19/31/25
f 44/29/23 45/36/30 66/30/24
f 20/37/31 45/36/30 44/29/23
f 44/29/23 19/31/25 20/37/31
f 49/38/32 20/37/31 19/31/25
f 19/31/25 48/35/29 49/38/32
f 41/39/33 49/38/32 48/35/29
f 48/35/29 38/34/28 41/39/33
f 38/34/28 40/40/34 41/39/33
f 37/41/35 40/40/34 38/34/28
f 37/41/35 38/34/28 36/33/27
f 13/42/36 41/39/33 40/40/34
f 41/39/33 13/42/36 42/43/37
f 49/38/32 41/39/33 42/43/37
f 42/43/37 50/44/38 49/38/32
f 20/37/31 49/38/32 50/44/38
f 50/44/38 21/45/39 20/37/31
f 45/36/30 20/37/31 21/45/39
f 21/45/39 46/46/40 45/36/30
f 45/36/30 46/46/40 69/47/41
f 68/48/42 69/47/41 46/46/40
f 42/43/37 52/49/43 50/44/38
f 21/45/39 50/44/38 52/49/43
f 52/49/43 22/50/44 21/45/39
f 46/46/40 21/45/39 22/50/44
f 22/50/44 64/51/45 46/46/40
f 46/46/40 64/51/45 68/48/42
f 22/50/44 52/49/43 51/52/46
f 52/49/43 53/53/47 51/52/46
f 52/49/43 54/54/48 53/53/47
f 42/43/37 54/54/48 52/49/43
f 42/43/37 55/55/49 54/54/48
f 23/56/50 55/55/49 42/43/37
f 42/43/37 24/57/51 23/56/50
f 42/43/37 13/42/36 24/57/51
f 5/58/52 6/59/52 4/60/52
f 45/36/30 69/47/41 67/61/53
f 45/36/30 67/61/53 66/30/24
f 2/62/54 3/63/54 1/64/54
f 62/65/55 61/14/14 63/66/56
f 36/33/27 39/67/57 37/41/35
f 26/68/58 39/67/57 36/33/27
f 36/33/27 56/6/6 26/68/58
f 25/69/59 26/68/58 56/6/6
f 56/6/6 57/70/60 25/69/59
f 60/5/5 57/70/60 56/6/6
f 60/5/5 65/71/61 57/70/60
f 62/65/55 65/71/61 60/5/5
f 60/5/5 59/13/13 62/65/55
f 62/65/55 59/13/13 61/14/14
